<svg width="108" height="108" viewBox="0 0 108 108" fill="none" xmlns="http://www.w3.org/2000/svg">
<path d="M14.3763 89.8447H31.283C35.226 89.8447 38.9307 91.693 41.2507 94.8169L49.3006 105.656C51.6219 108.781 56.3783 108.781 58.6995 105.656L66.7494 94.8169C69.0696 91.693 72.7742 89.8447 76.7171 89.8447H93.6241C101.564 89.8447 108 83.538 108 75.7583V14.087C108 6.30721 101.564 0 93.6246 0H14.3761C6.43607 0 0 6.30721 0 14.087V75.7583C0 83.538 6.43607 89.8447 14.3761 89.8447H14.3763ZM53.4454 11.7733C53.7173 12.1485 54.2833 12.1485 54.5551 11.7733C55.3191 10.7189 56.9424 9.15516 59.8508 9.15516C64.239 9.15516 67.1643 12.7385 67.1643 16.3217C67.1643 24.8113 56.2325 30.3052 54.2927 31.2139C54.1068 31.3008 53.8936 31.3008 53.7076 31.2139C51.768 30.3052 40.8362 24.8114 40.8362 16.3217C40.8362 12.7385 43.7619 9.15516 48.1496 9.15516C51.0579 9.15516 52.6814 10.7189 53.4453 11.7733H53.4454ZM73.0764 73.2507C73.0764 73.8864 73.1641 74.4728 73.3403 75.0078C73.5163 75.5442 73.785 76.0117 74.1464 76.4116C74.5082 76.8108 74.9715 77.1195 75.537 77.3377C76.1022 77.556 76.7743 77.6647 77.5534 77.6647C78.1463 77.6647 78.6282 77.637 78.999 77.5829C79.3699 77.5289 79.6107 77.4743 79.7223 77.4193V72.6511C79.7223 71.6154 79.4533 70.753 78.9156 70.0624C78.3778 69.3721 77.5712 69.0267 76.4964 69.0267C75.4209 69.0267 74.5818 69.4131 73.9792 70.1847C73.3766 70.9574 73.076 71.9789 73.076 73.2504L73.0764 73.2507ZM83.6156 80.2265C83.504 80.2441 83.2863 80.2758 82.9621 80.3218C82.6372 80.367 82.2341 80.4078 81.7523 80.4447C81.2704 80.4804 80.7235 80.5165 80.1113 80.5529C79.4997 80.5891 78.86 80.6075 78.1926 80.6075C75.1523 80.6075 72.8717 79.9225 71.3522 78.5504C69.8321 77.179 69.0716 75.2765 69.0716 72.8419C69.0716 71.7157 69.2481 70.7255 69.6003 69.8714C69.9519 69.0176 70.4299 68.3007 71.0323 67.7192C71.6349 67.1381 72.3296 66.6969 73.1176 66.3977C73.9056 66.0977 74.7447 65.9477 75.6341 65.9477C76.2642 65.9477 76.8304 66.0252 77.3308 66.1794C77.8313 66.3341 78.2526 66.5158 78.596 66.7246C78.9386 66.9332 79.2035 67.1285 79.3888 67.3103C79.5735 67.4918 79.6846 67.6103 79.7225 67.6642V61.7786C79.7225 61.1613 79.9071 60.7343 80.2781 60.4979C80.649 60.262 81.1404 60.1433 81.7521 60.1433C82.1788 60.1433 82.5726 60.189 82.9337 60.2796C83.2957 60.3715 83.5226 60.4349 83.6156 60.4707V80.2263V80.2265ZM62.3703 61.7788C62.3703 61.1615 62.5557 60.7345 62.9267 60.498C63.2974 60.2621 63.7889 60.1435 64.4006 60.1435C64.8266 60.1435 65.221 60.1891 65.5823 60.2798C65.9441 60.3717 66.1704 60.435 66.2635 60.4709V80.2265H62.3703V61.7788ZM55.6133 73.2777C55.6133 72.6602 55.534 72.0839 55.3768 71.5475C55.2195 71.0116 54.9782 70.5484 54.6542 70.1578C54.3295 69.7671 53.9353 69.4586 53.4719 69.2316C53.0086 69.0039 52.4715 68.8905 51.8593 68.8905C51.2476 68.8905 50.7095 69.0039 50.2467 69.2316C49.7827 69.4586 49.3891 69.7673 49.0644 70.1578C48.7402 70.5484 48.4991 71.0116 48.3417 71.5475C48.1839 72.0839 48.1053 72.6601 48.1053 73.2777C48.1053 73.8956 48.1839 74.4726 48.3417 75.0078C48.4991 75.5442 48.7404 76.007 49.0644 76.3976C49.3891 76.7887 49.7827 77.0973 50.2467 77.3244C50.7095 77.5514 51.2476 77.6648 51.8593 77.6648C52.4715 77.6648 53.0086 77.5514 53.4719 77.3244C53.9353 77.0973 54.3295 76.7886 54.6542 76.3976C54.9784 76.007 55.2195 75.5442 55.3768 75.0078C55.534 74.4726 55.6133 73.8958 55.6133 73.2777ZM59.5623 73.2777C59.5623 74.3134 59.3816 75.2807 59.0198 76.1797C58.6584 77.0789 58.1393 77.86 57.4629 78.5227C56.7853 79.186 55.975 79.7128 55.0291 80.1034C54.0839 80.4941 53.027 80.6892 51.8591 80.6892C50.6912 80.6892 49.6343 80.4941 48.6889 80.1034C47.7438 79.7128 46.9324 79.186 46.256 78.5227C45.579 77.8598 45.0598 77.0789 44.6985 76.1797C44.3366 75.2807 44.1559 74.3132 44.1559 73.2777C44.1559 72.242 44.3366 71.2747 44.6985 70.3762C45.0598 69.477 45.579 68.6952 46.256 68.0326C46.9324 67.3691 47.7438 66.8431 48.6889 66.4519C49.6343 66.0613 50.6912 65.8661 51.8591 65.8661C53.027 65.8661 54.0839 66.0613 55.0291 66.4519C55.975 66.8431 56.7853 67.3691 57.4629 68.0326C58.1393 68.6954 58.6584 69.477 59.0198 70.3762C59.3816 71.2747 59.5623 72.2421 59.5623 73.2777ZM39.2351 69.4626C40.7366 69.4626 41.4874 70.1712 41.4874 71.5879V80.2263C41.4317 80.244 41.2138 80.2757 40.8339 80.3217C40.454 80.3668 39.9668 80.4171 39.3738 80.471C38.7802 80.5257 38.1127 80.5758 37.3715 80.6216C36.6303 80.6663 35.879 80.6892 35.1192 80.6892C33.5618 80.6892 32.13 80.4851 30.8228 80.0765C29.5156 79.6673 28.3849 79.0544 27.4301 78.2369C26.4753 77.4195 25.7293 76.3976 25.1915 75.1713C24.6537 73.9452 24.3855 72.5145 24.3855 70.88C24.3855 69.3539 24.6448 67.9873 25.1638 66.7786C25.683 65.5709 26.4056 64.5399 27.3327 63.686C28.2593 62.832 29.3631 62.1787 30.642 61.724C31.9215 61.27 33.3302 61.043 34.869 61.043C35.6287 61.043 36.3056 61.0884 36.8986 61.1795C37.4921 61.2702 38.0204 61.3836 38.484 61.5199C38.947 61.6557 39.3411 61.8057 39.6658 61.9694C39.99 62.1328 40.2636 62.2875 40.4863 62.4328C40.838 62.6874 41.1068 62.9645 41.2929 63.2637C41.4778 63.5637 41.5708 63.8589 41.5708 64.1495C41.5708 64.4582 41.5101 64.7352 41.3901 64.9804C41.2688 65.2256 41.1254 65.4438 40.9586 65.6343C40.7916 65.8248 40.6201 65.9801 40.4442 66.0979C40.2677 66.216 40.1243 66.3024 40.0132 66.3565C39.8644 66.2113 39.6562 66.0161 39.3874 65.7708C39.1186 65.5254 38.7759 65.2897 38.3587 65.0621C37.9416 64.8357 37.4412 64.6398 36.8572 64.4764C36.2733 64.3128 35.6102 64.231 34.869 64.231C33.9236 64.231 33.0662 64.3805 32.2966 64.6804C31.5274 64.9804 30.8647 65.4167 30.3082 65.9883C29.7521 66.5611 29.3211 67.2603 29.015 68.0867C28.7096 68.9134 28.5565 69.8445 28.5565 70.88C28.5565 71.9516 28.7137 72.8919 29.0294 73.7C29.344 74.5087 29.794 75.1807 30.3781 75.7166C30.9621 76.2525 31.6665 76.6564 32.4913 76.9293C33.3159 77.2016 34.2389 77.3379 35.2585 77.3379C35.944 77.3379 36.463 77.3202 36.8154 77.2833C37.1676 77.2474 37.4089 77.2109 37.5385 77.1746V72.9238C37.5385 72.9238 35.9222 73.0033 35.9258 71.2355C35.9283 69.9463 36.4666 69.6264 36.625 69.4642L39.2349 69.463L39.2351 69.4626ZM91.0538 39.0991C91.2579 38.6275 91.5082 38.2363 91.8046 37.9276C92.1011 37.6189 92.6017 37.4642 93.3069 37.4642C93.8998 37.4642 94.372 37.5729 94.7244 37.7909C95.0766 38.0092 95.2897 38.1639 95.3642 38.2538C95.2345 38.6903 95.0489 39.2132 94.8078 39.8212C94.5672 40.4303 94.2977 41.0748 94.0018 41.756C93.7048 42.4369 93.404 43.1233 93.0979 43.813C92.7918 44.5035 92.5092 45.1391 92.2501 45.7207C91.7116 46.9191 91.1608 48.0819 90.5955 49.2081C90.0295 50.3348 89.4041 51.4785 88.7182 52.6413C88.4025 53.1864 88.0696 53.7087 87.7172 54.2085C87.365 54.7078 86.9569 55.1525 86.4936 55.544C86.0303 55.9339 85.5065 56.2427 84.9224 56.4702C84.3386 56.6966 83.6572 56.8107 82.8791 56.8107C82.4151 56.8107 81.9841 56.7743 81.5856 56.7021C81.1865 56.6291 80.8439 56.5474 80.5571 56.456C80.2695 56.3655 80.0331 56.2791 79.8477 56.1973C79.663 56.1156 79.5608 56.0563 79.5415 56.0202L80.6542 53.3228C80.7653 53.3774 81.0107 53.4593 81.3913 53.5681C81.7707 53.6773 82.1559 53.7316 82.5454 53.7316C83.1196 53.7316 83.6111 53.5722 84.0194 53.2547C84.4263 52.9365 84.8255 52.4239 85.215 51.7153L86.0492 50.1621C85.7335 49.654 85.3861 49.0859 85.006 48.4591C84.6261 47.8329 84.2457 47.1918 83.8665 46.5385C83.4859 45.8845 83.1109 45.2394 82.7399 44.6036C82.369 43.9679 82.0354 43.3909 81.7389 42.8729C81.4419 42.3552 81.1922 41.9154 80.988 41.5514C80.7841 41.1884 80.6544 40.952 80.5985 40.8428C80.4503 40.5528 80.3297 40.2841 80.2372 40.0393C80.1441 39.7941 80.0981 39.5171 80.0981 39.2085C80.0981 38.9903 80.1306 38.7768 80.1959 38.568C80.2601 38.3592 80.3719 38.173 80.5289 38.0093C80.6862 37.8459 80.8909 37.7141 81.1411 37.6143C81.3915 37.5148 81.7112 37.4644 82.1002 37.4644C82.6565 37.4644 83.0689 37.519 83.3377 37.6278C83.6065 37.7365 83.7499 37.8007 83.7687 37.8182C83.8244 37.9642 83.9955 38.3364 84.2836 38.9357C84.5704 39.5354 84.9137 40.2435 85.3121 41.0615C85.7108 41.8785 86.1466 42.7504 86.6193 43.6765C87.0923 44.6034 87.5507 45.4662 87.996 46.2655C88.3476 45.5028 88.6863 44.7352 89.011 43.963C89.3351 43.1909 89.6362 42.4781 89.9149 41.8242C90.1926 41.1697 90.4291 40.6021 90.6236 40.121C90.8179 39.6396 90.9613 39.2988 91.0543 39.099L91.0538 39.0991ZM68.1402 44.3855C68.1402 45.0211 68.2284 45.6074 68.4047 46.1431C68.5806 46.679 68.8494 47.147 69.2107 47.5462C69.5726 47.9461 70.036 48.2548 70.6013 48.4731C71.1666 48.6906 71.8388 48.7995 72.6177 48.7995C73.2107 48.7995 73.6925 48.7723 74.0635 48.7175C74.4345 48.6635 74.675 48.6089 74.7867 48.5546V43.7859C74.7867 42.7502 74.5171 41.8876 73.9801 41.1972C73.4421 40.5067 72.6356 40.1614 71.5608 40.1614C70.4854 40.1614 69.6463 40.5479 69.0437 41.32C68.4411 42.0922 68.1398 43.1137 68.1398 44.3852L68.1402 44.3855ZM78.6794 51.3613C78.5685 51.3789 78.3506 51.4111 78.0265 51.4565C77.7018 51.5018 77.2985 51.5424 76.8166 51.5793C76.3342 51.6152 75.7881 51.6518 75.1758 51.6882C74.5641 51.7244 73.9244 51.7428 73.2571 51.7428C70.2168 51.7428 67.9361 51.0571 66.4165 49.6852C64.8964 48.3136 64.136 46.4113 64.136 43.9765C64.136 42.8505 64.3124 41.8608 64.6641 41.0062C65.0165 40.1529 65.4942 39.4355 66.0966 38.8538C66.6987 38.2727 67.3942 37.8317 68.1822 37.5323C68.97 37.2323 69.8092 37.083 70.6986 37.083C71.3288 37.083 71.8947 37.16 72.3952 37.3142C72.8958 37.4689 73.3169 37.6504 73.6604 37.8592C74.0031 38.068 74.2678 38.2638 74.4532 38.4449C74.6381 38.6271 74.7491 38.7449 74.7868 38.799V32.9134C74.7868 32.2966 74.9715 31.8691 75.3425 31.6325C75.7134 31.3967 76.2049 31.2786 76.8164 31.2786C77.2426 31.2786 77.6369 31.3238 77.9982 31.4149C78.3596 31.5061 78.5869 31.5697 78.6794 31.6055V51.3611V51.3613ZM57.6292 51.3613V43.5407C57.6292 41.2883 56.5633 40.1616 54.4315 40.1616C53.6526 40.1616 53.05 40.2257 52.6239 40.3527C52.1972 40.4796 51.8911 40.5885 51.7064 40.6797V51.3611H47.8131V38.309C47.887 38.2726 48.1097 38.1821 48.4805 38.0361C48.8515 37.8909 49.3285 37.7416 49.9124 37.5869C50.4969 37.4322 51.1824 37.2964 51.9704 37.178C52.7584 37.0599 53.6153 37.0011 54.5428 37.0011C55.581 37.0011 56.531 37.128 57.3929 37.3821C58.2552 37.6367 58.9923 38.009 59.6038 38.4995C60.216 38.9899 60.6882 39.5939 61.0221 40.3114C61.3557 41.0295 61.5225 41.851 61.5225 42.7773V51.3611H57.6293L57.6292 51.3613ZM40.6389 45.2574C40.5837 45.2392 40.472 45.221 40.3052 45.2028C40.1384 45.1851 39.9345 45.1669 39.6937 45.148C39.4524 45.1304 39.1884 45.1169 38.9016 45.1076C38.6135 45.0989 38.3219 45.0941 38.0254 45.0941C37.3392 45.0941 36.783 45.148 36.3569 45.2576C35.9302 45.3663 35.6012 45.5163 35.3698 45.707C35.1374 45.898 34.9802 46.1251 34.8967 46.3885C34.8133 46.6519 34.7713 46.9288 34.7713 47.2193C34.7713 47.4739 34.8084 47.7193 34.8829 47.955C34.9567 48.1916 35.1097 48.4045 35.3421 48.5956C35.5732 48.786 35.8977 48.9407 36.3149 49.059C36.732 49.1771 37.2747 49.2361 37.942 49.2361C38.6466 49.2361 39.2304 49.2043 39.6939 49.1402C40.1572 49.0772 40.4722 49.0273 40.639 48.9907V45.2576L40.6389 45.2574ZM44.4768 51.2517C44.4211 51.2701 44.217 51.3063 43.8646 51.3611C43.5124 51.4152 43.0441 51.4698 42.4602 51.5245C41.8762 51.5791 41.1854 51.6294 40.3885 51.674C39.5914 51.7192 38.72 51.7428 37.7748 51.7428C36.4028 51.7428 35.2764 51.6294 34.3959 51.4024C33.5148 51.1747 32.8152 50.862 32.2966 50.4619C31.7774 50.0622 31.4204 49.5945 31.2261 49.0588C31.031 48.5229 30.9337 47.9368 30.9337 47.3012C30.9337 46.5208 31.0542 45.839 31.2955 45.2576C31.5363 44.6765 31.9251 44.1991 32.4636 43.8267C33.0006 43.4544 33.6915 43.1776 34.5354 42.9959C35.3783 42.8143 36.4028 42.7236 37.608 42.7236C38.4424 42.7236 39.1372 42.7467 39.6935 42.7919C40.2499 42.837 40.574 42.8689 40.6671 42.8872V42.4508C40.6671 41.5974 40.3699 40.9436 39.7769 40.4889C39.1834 40.0354 38.2658 39.8079 37.0242 39.8079C36.4678 39.8079 35.9761 39.8578 35.5502 39.9579C35.1235 40.058 34.7579 40.1762 34.4518 40.312C34.1456 40.4483 33.886 40.5843 33.6734 40.7206C33.4598 40.8569 33.2882 40.9618 33.1585 41.0341C32.8988 40.8888 32.667 40.6571 32.4638 40.3396C32.2596 40.0214 32.1576 39.6627 32.1576 39.2628C32.1576 38.8636 32.2871 38.523 32.5472 38.2412C32.8063 37.9596 33.1539 37.7327 33.5902 37.5597C34.0253 37.3874 34.5259 37.2645 35.0912 37.1917C35.6564 37.1199 36.2356 37.0835 36.8297 37.0835C37.9598 37.0835 38.9938 37.1787 39.9302 37.3693C40.8659 37.5597 41.6724 37.8875 42.3495 38.3503C43.0259 38.8137 43.5499 39.4311 43.9205 40.2026C44.2909 40.9754 44.4768 41.9429 44.4768 43.1053V51.2521V51.2517ZM29.4606 35.2841C29.4606 35.5933 29.3999 35.8751 29.2798 36.129C29.1586 36.383 29.0152 36.6101 28.8483 36.81C28.6813 37.0099 28.5099 37.178 28.334 37.314C28.1575 37.4504 28.0139 37.5457 27.903 37.6003C27.7542 37.4551 27.546 37.2647 27.2772 37.0275C27.0084 36.7923 26.6607 36.5646 26.2347 36.3466C25.808 36.129 25.3033 35.9386 24.7193 35.775C24.1354 35.6108 23.4723 35.5291 22.7311 35.5291C21.8409 35.5291 21.0344 35.6838 20.3118 35.9927C19.5886 36.3014 18.9667 36.7377 18.4484 37.3006C17.9292 37.8639 17.5259 38.5403 17.2391 39.3307C16.951 40.121 16.8076 41.0062 16.8076 41.9877C16.8076 44.0766 17.3502 45.6662 18.4347 46.7559C19.5191 47.8462 20.9697 48.3913 22.7863 48.3913C23.5468 48.3913 24.2279 48.3225 24.8305 48.1867C25.4331 48.0502 25.9473 47.9002 26.374 47.7368C26.8001 47.5732 27.1427 47.4099 27.4027 47.2469C27.6619 47.0828 27.8289 46.9741 27.9032 46.9193L29.6833 49.8628C29.5897 49.954 29.3675 50.1035 29.0153 50.3121C28.6631 50.5216 28.1811 50.7391 27.5696 50.9661C26.958 51.1938 26.2301 51.3924 25.3869 51.566C24.5432 51.7379 23.5835 51.8247 22.5085 51.8247C21.118 51.8247 19.8204 51.6154 18.6152 51.1978C17.4102 50.7804 16.3672 50.1535 15.4874 49.3177C14.6063 48.4822 13.9109 47.4559 13.4013 46.2385C12.8911 45.0211 12.6366 43.6051 12.6366 41.9877C12.6366 40.4616 12.8911 39.0948 13.4013 37.887C13.9109 36.6791 14.6153 35.6521 15.5151 34.8072C16.4141 33.9627 17.4702 33.3135 18.6851 32.8593C19.8992 32.4046 21.2201 32.1778 22.6479 32.1778C24.1674 32.1778 25.3912 32.3325 26.3185 32.6412C27.245 32.9501 27.9318 33.2587 28.3765 33.5681C28.7281 33.822 28.9969 34.0993 29.1825 34.3985C29.3677 34.6985 29.4609 34.9936 29.4609 35.2843L29.4606 35.2841Z" fill="#D70D1D"/>
</svg>
