<svg width="1920" height="892" viewBox="0 0 1920 892" fill="none" xmlns="http://www.w3.org/2000/svg">
<g clip-path="url(#clip0_1038_694)">
<path d="M941.962 205.518C910.893 205.518 885.707 230.692 885.707 261.747C885.707 279.203 894.61 293.772 906.166 305.113C933.821 332.23 936.237 345.591 941.936 484.93C947.635 345.591 950.051 332.256 977.706 305.113C989.288 293.772 998.165 279.203 998.165 261.747C998.191 230.692 973.032 205.518 941.962 205.518Z" fill="#D70D1D"/>
<g clip-path="url(#clip1_1038_694)">
<path fill-rule="evenodd" clip-rule="evenodd" d="M916.54 290.597C909.581 290.597 903.937 285.479 903.937 279.168V240.429C903.937 234.118 909.58 229 916.54 229H970.333C977.293 229 982.937 234.118 982.937 240.429V279.168C982.937 285.479 977.293 290.597 970.333 290.597H958.857C957.09 290.597 955.431 291.363 954.392 292.658L948.928 299.467C946.217 302.844 940.657 302.844 937.946 299.467L932.482 292.658C931.442 291.363 929.783 290.597 928.017 290.597H916.541H916.54ZM916.606 289.249C910.447 289.249 905.452 284.72 905.452 279.135V240.491C905.452 234.905 910.447 230.376 916.606 230.376H970.267C976.427 230.376 981.421 234.905 981.421 240.491V279.135C981.421 284.72 976.426 289.249 970.267 289.249H958.819C956.603 289.249 954.521 290.21 953.217 291.835L947.766 298.626C945.628 301.29 941.245 301.29 939.107 298.626L933.656 291.835C932.352 290.21 930.27 289.249 928.054 289.249H916.606Z" fill="white"/>
<path d="M916.999 287.632H928.279C930.91 287.632 933.382 288.773 934.93 290.702L940.301 297.394C941.849 299.324 945.023 299.324 946.571 297.394L951.942 290.702C953.49 288.773 955.962 287.632 958.592 287.632H969.873C975.17 287.632 979.464 283.738 979.464 278.935V240.858C979.464 236.054 975.17 232.16 969.873 232.16H916.999C911.702 232.16 907.408 236.054 907.408 240.858V278.935C907.408 283.738 911.702 287.632 916.999 287.632H916.999ZM943.066 239.429C943.247 239.661 943.625 239.661 943.806 239.429C944.316 238.778 945.399 237.813 947.339 237.813C950.267 237.813 952.219 240.025 952.219 242.237C952.219 247.479 944.925 250.871 943.631 251.432C943.507 251.486 943.365 251.486 943.241 251.432C941.947 250.871 934.653 247.479 934.653 242.237C934.653 240.025 936.605 237.813 939.533 237.813C941.473 237.813 942.556 238.778 943.066 239.429H943.066ZM956.163 277.387C956.163 277.779 956.222 278.141 956.34 278.471C956.457 278.803 956.636 279.091 956.877 279.338C957.119 279.585 957.428 279.775 957.805 279.91C958.182 280.045 958.631 280.112 959.15 280.112C959.546 280.112 959.867 280.095 960.115 280.061C960.362 280.028 960.523 279.994 960.597 279.96V277.016C960.597 276.377 960.418 275.844 960.059 275.418C959.7 274.992 959.162 274.779 958.445 274.779C957.728 274.779 957.168 275.017 956.766 275.494C956.364 275.971 956.163 276.601 956.163 277.386L956.163 277.387ZM963.195 281.694C963.121 281.704 962.975 281.724 962.759 281.752C962.542 281.78 962.273 281.805 961.952 281.828C961.63 281.85 961.265 281.873 960.857 281.895C960.449 281.917 960.022 281.929 959.577 281.929C957.548 281.929 956.027 281.506 955.013 280.659C953.999 279.812 953.491 278.637 953.491 277.134C953.491 276.439 953.609 275.827 953.844 275.3C954.079 274.773 954.398 274.33 954.8 273.971C955.202 273.613 955.665 273.34 956.191 273.155C956.717 272.97 957.276 272.878 957.87 272.878C958.29 272.878 958.668 272.925 959.002 273.021C959.336 273.116 959.617 273.228 959.846 273.357C960.075 273.486 960.251 273.607 960.375 273.719C960.498 273.831 960.572 273.904 960.598 273.937V270.303C960.598 269.922 960.721 269.659 960.968 269.513C961.216 269.367 961.544 269.294 961.952 269.294C962.236 269.294 962.499 269.322 962.74 269.378C962.982 269.435 963.133 269.474 963.195 269.496V281.693V281.694ZM949.02 270.304C949.02 269.922 949.144 269.659 949.392 269.513C949.639 269.367 949.967 269.294 950.375 269.294C950.659 269.294 950.922 269.322 951.163 269.378C951.405 269.435 951.556 269.474 951.618 269.496V281.694H949.02V270.304ZM944.512 277.403C944.512 277.022 944.459 276.666 944.354 276.335C944.249 276.004 944.089 275.718 943.872 275.477C943.656 275.236 943.393 275.045 943.084 274.905C942.774 274.764 942.416 274.694 942.008 274.694C941.599 274.694 941.24 274.764 940.932 274.905C940.622 275.045 940.36 275.236 940.143 275.477C939.927 275.718 939.766 276.004 939.661 276.335C939.555 276.666 939.503 277.022 939.503 277.403C939.503 277.785 939.555 278.141 939.661 278.471C939.766 278.803 939.927 279.088 940.143 279.329C940.36 279.571 940.622 279.762 940.932 279.902C941.24 280.042 941.599 280.112 942.008 280.112C942.416 280.112 942.774 280.042 943.084 279.902C943.393 279.762 943.656 279.571 943.872 279.329C944.089 279.088 944.249 278.803 944.354 278.471C944.459 278.141 944.512 277.785 944.512 277.403ZM947.147 277.403C947.147 278.043 947.026 278.64 946.785 279.195C946.544 279.75 946.198 280.232 945.746 280.642C945.294 281.051 944.754 281.376 944.122 281.618C943.492 281.859 942.787 281.979 942.007 281.979C941.228 281.979 940.523 281.859 939.892 281.618C939.262 281.376 938.72 281.051 938.269 280.642C937.817 280.232 937.471 279.75 937.23 279.195C936.989 278.64 936.868 278.043 936.868 277.403C936.868 276.764 936.989 276.167 937.23 275.612C937.471 275.057 937.817 274.574 938.269 274.165C938.72 273.755 939.262 273.43 939.892 273.189C940.523 272.948 941.228 272.827 942.007 272.827C942.787 272.827 943.492 272.948 944.122 273.189C944.754 273.43 945.294 273.755 945.746 274.165C946.198 274.574 946.544 275.057 946.785 275.612C947.026 276.167 947.147 276.764 947.147 277.403ZM933.585 275.048C934.587 275.048 935.088 275.485 935.088 276.36V281.693C935.05 281.704 934.905 281.724 934.652 281.752C934.398 281.78 934.073 281.811 933.677 281.844C933.281 281.878 932.836 281.909 932.342 281.938C931.847 281.965 931.346 281.979 930.839 281.979C929.8 281.979 928.844 281.853 927.972 281.601C927.1 281.348 926.346 280.97 925.709 280.465C925.072 279.96 924.574 279.329 924.215 278.572C923.856 277.815 923.677 276.932 923.677 275.923C923.677 274.981 923.85 274.137 924.197 273.391C924.543 272.645 925.025 272.008 925.644 271.481C926.262 270.954 926.998 270.55 927.852 270.27C928.705 269.989 929.645 269.849 930.672 269.849C931.179 269.849 931.63 269.877 932.026 269.934C932.422 269.99 932.774 270.06 933.084 270.144C933.393 270.228 933.656 270.32 933.872 270.421C934.089 270.522 934.271 270.618 934.42 270.707C934.654 270.865 934.834 271.036 934.958 271.22C935.081 271.406 935.143 271.588 935.143 271.767C935.143 271.958 935.103 272.129 935.023 272.28C934.942 272.432 934.846 272.566 934.735 272.684C934.623 272.802 934.509 272.898 934.392 272.97C934.274 273.043 934.178 273.097 934.104 273.13C934.005 273.04 933.866 272.92 933.687 272.768C933.507 272.617 933.279 272.471 933 272.331C932.722 272.191 932.388 272.07 931.998 271.969C931.609 271.868 931.166 271.818 930.672 271.818C930.041 271.818 929.469 271.91 928.956 272.095C928.442 272.28 928 272.55 927.629 272.903C927.258 273.256 926.97 273.688 926.766 274.198C926.562 274.709 926.46 275.283 926.46 275.923C926.46 276.584 926.565 277.165 926.776 277.664C926.986 278.163 927.286 278.578 927.676 278.909C928.065 279.24 928.535 279.489 929.085 279.658C929.636 279.826 930.251 279.91 930.932 279.91C931.389 279.91 931.735 279.899 931.97 279.876C932.205 279.854 932.366 279.832 932.453 279.809V277.185C932.453 277.185 931.375 277.234 931.377 276.142C931.379 275.346 931.738 275.149 931.843 275.049L933.585 275.048L933.585 275.048ZM968.158 256.301C968.294 256.01 968.461 255.768 968.659 255.577C968.856 255.387 969.19 255.291 969.661 255.291C970.057 255.291 970.372 255.358 970.607 255.493C970.842 255.628 970.984 255.723 971.034 255.779C970.947 256.048 970.823 256.371 970.662 256.747C970.502 257.123 970.322 257.521 970.125 257.941C969.926 258.362 969.726 258.785 969.522 259.211C969.317 259.637 969.129 260.03 968.956 260.389C968.597 261.129 968.229 261.847 967.852 262.542C967.474 263.238 967.057 263.944 966.599 264.662C966.389 264.998 966.167 265.321 965.932 265.63C965.697 265.938 965.424 266.212 965.115 266.454C964.806 266.695 964.457 266.885 964.067 267.026C963.677 267.166 963.223 267.236 962.704 267.236C962.394 267.236 962.107 267.214 961.841 267.169C961.574 267.124 961.346 267.074 961.154 267.017C960.963 266.961 960.805 266.908 960.681 266.857C960.558 266.807 960.49 266.77 960.477 266.748L961.219 265.083C961.293 265.116 961.457 265.167 961.711 265.234C961.964 265.302 962.221 265.335 962.481 265.335C962.864 265.335 963.192 265.237 963.464 265.041C963.736 264.844 964.002 264.528 964.262 264.09L964.819 263.131C964.608 262.818 964.376 262.467 964.123 262.08C963.869 261.693 963.615 261.297 963.362 260.894C963.109 260.49 962.858 260.092 962.611 259.699C962.363 259.307 962.141 258.951 961.943 258.631C961.745 258.311 961.578 258.04 961.442 257.815C961.306 257.591 961.219 257.445 961.182 257.377C961.083 257.198 961.003 257.032 960.941 256.881C960.879 256.73 960.848 256.559 960.848 256.368C960.848 256.234 960.87 256.102 960.913 255.973C960.956 255.844 961.031 255.729 961.136 255.628C961.241 255.527 961.377 255.446 961.544 255.384C961.711 255.322 961.924 255.291 962.184 255.291C962.555 255.291 962.83 255.325 963.01 255.392C963.189 255.459 963.285 255.499 963.297 255.51C963.334 255.6 963.449 255.83 963.641 256.2C963.832 256.57 964.061 257.007 964.327 257.512C964.593 258.017 964.884 258.555 965.199 259.127C965.515 259.699 965.821 260.232 966.118 260.725C966.352 260.254 966.578 259.781 966.795 259.304C967.011 258.827 967.212 258.387 967.398 257.983C967.583 257.579 967.741 257.229 967.871 256.932C968 256.634 968.096 256.424 968.158 256.301L968.158 256.301ZM952.87 259.565C952.87 259.957 952.929 260.319 953.047 260.65C953.164 260.981 953.343 261.27 953.584 261.516C953.826 261.763 954.135 261.954 954.512 262.088C954.889 262.223 955.338 262.29 955.857 262.29C956.253 262.29 956.574 262.273 956.822 262.239C957.069 262.206 957.23 262.172 957.304 262.139V259.194C957.304 258.555 957.125 258.022 956.766 257.596C956.407 257.17 955.869 256.957 955.152 256.957C954.435 256.957 953.875 257.195 953.473 257.672C953.071 258.149 952.87 258.779 952.87 259.564L952.87 259.565ZM959.902 263.872C959.828 263.882 959.682 263.902 959.466 263.93C959.249 263.958 958.98 263.983 958.659 264.006C958.337 264.028 957.973 264.051 957.564 264.073C957.156 264.096 956.729 264.107 956.284 264.107C954.256 264.107 952.734 263.684 951.72 262.837C950.706 261.99 950.198 260.815 950.198 259.312C950.198 258.617 950.316 258.006 950.551 257.478C950.786 256.951 951.105 256.508 951.507 256.149C951.908 255.79 952.372 255.518 952.898 255.333C953.424 255.148 953.984 255.056 954.577 255.056C954.997 255.056 955.375 255.103 955.709 255.199C956.043 255.294 956.324 255.406 956.553 255.535C956.782 255.664 956.958 255.785 957.082 255.897C957.205 256.009 957.279 256.082 957.305 256.115V252.482C957.305 252.101 957.428 251.837 957.675 251.691C957.923 251.545 958.251 251.472 958.659 251.472C958.943 251.472 959.206 251.5 959.447 251.556C959.688 251.613 959.84 251.652 959.902 251.674V263.871V263.872ZM945.857 263.872V259.043C945.857 257.652 945.146 256.957 943.724 256.957C943.204 256.957 942.802 256.996 942.518 257.075C942.233 257.153 942.029 257.22 941.906 257.277V263.871H939.308V255.813C939.357 255.79 939.506 255.735 939.753 255.644C940.001 255.555 940.319 255.463 940.709 255.367C941.099 255.271 941.556 255.188 942.082 255.115C942.607 255.042 943.179 255.005 943.798 255.005C944.491 255.005 945.124 255.084 945.7 255.241C946.275 255.398 946.767 255.628 947.175 255.931C947.583 256.233 947.898 256.606 948.121 257.049C948.343 257.493 948.455 258 948.455 258.572V263.871H945.857L945.857 263.872ZM934.521 260.103C934.485 260.092 934.41 260.08 934.299 260.069C934.188 260.058 934.052 260.047 933.891 260.035C933.73 260.025 933.554 260.016 933.362 260.01C933.17 260.005 932.976 260.002 932.778 260.002C932.32 260.002 931.949 260.035 931.665 260.103C931.38 260.17 931.16 260.263 931.006 260.381C930.851 260.498 930.746 260.639 930.69 260.801C930.635 260.964 930.607 261.135 930.607 261.314C930.607 261.471 930.631 261.623 930.681 261.769C930.73 261.915 930.833 262.046 930.988 262.164C931.142 262.282 931.358 262.377 931.637 262.45C931.915 262.523 932.277 262.559 932.722 262.559C933.192 262.559 933.582 262.54 933.891 262.5C934.2 262.461 934.41 262.431 934.522 262.408V260.103L934.521 260.103ZM937.082 263.804C937.045 263.815 936.909 263.838 936.674 263.871C936.439 263.905 936.126 263.939 935.737 263.972C935.347 264.006 934.886 264.037 934.354 264.065C933.823 264.093 933.241 264.107 932.611 264.107C931.695 264.107 930.944 264.037 930.356 263.897C929.768 263.756 929.302 263.563 928.956 263.316C928.609 263.069 928.371 262.781 928.241 262.45C928.111 262.119 928.046 261.757 928.046 261.365C928.046 260.883 928.127 260.462 928.288 260.103C928.448 259.744 928.708 259.45 929.067 259.22C929.425 258.99 929.886 258.819 930.449 258.707C931.012 258.595 931.695 258.539 932.499 258.539C933.056 258.539 933.52 258.553 933.891 258.581C934.262 258.609 934.478 258.628 934.54 258.64V258.37C934.54 257.843 934.342 257.44 933.946 257.159C933.55 256.879 932.938 256.738 932.11 256.738C931.739 256.738 931.411 256.769 931.126 256.831C930.842 256.893 930.598 256.966 930.394 257.05C930.189 257.134 930.016 257.218 929.874 257.302C929.732 257.386 929.617 257.451 929.531 257.495C929.357 257.406 929.203 257.263 929.067 257.067C928.931 256.87 928.863 256.649 928.863 256.402C928.863 256.155 928.949 255.945 929.123 255.771C929.296 255.597 929.528 255.457 929.819 255.35C930.109 255.244 930.443 255.168 930.82 255.123C931.197 255.079 931.584 255.056 931.98 255.056C932.734 255.056 933.424 255.115 934.049 255.233C934.673 255.35 935.211 255.553 935.663 255.838C936.114 256.124 936.464 256.506 936.711 256.982C936.958 257.459 937.082 258.056 937.082 258.774V263.804V263.804ZM927.063 253.945C927.063 254.136 927.023 254.31 926.943 254.467C926.862 254.624 926.766 254.764 926.655 254.887C926.544 255.011 926.429 255.115 926.312 255.199C926.194 255.283 926.098 255.342 926.024 255.375C925.925 255.286 925.786 255.168 925.607 255.022C925.427 254.876 925.195 254.736 924.911 254.601C924.627 254.467 924.29 254.349 923.9 254.248C923.511 254.147 923.068 254.097 922.574 254.097C921.98 254.097 921.442 254.192 920.959 254.383C920.477 254.573 920.062 254.843 919.716 255.19C919.37 255.538 919.101 255.956 918.909 256.444C918.717 256.932 918.622 257.478 918.622 258.084C918.622 259.374 918.984 260.355 919.707 261.028C920.431 261.701 921.398 262.038 922.61 262.038C923.118 262.038 923.572 261.995 923.974 261.912C924.376 261.827 924.719 261.735 925.004 261.634C925.288 261.533 925.517 261.432 925.69 261.331C925.863 261.23 925.975 261.163 926.024 261.129L927.212 262.946C927.15 263.003 927.001 263.095 926.766 263.224C926.531 263.353 926.21 263.487 925.802 263.628C925.394 263.768 924.908 263.891 924.346 263.998C923.783 264.104 923.142 264.158 922.425 264.158C921.497 264.158 920.632 264.028 919.828 263.771C919.024 263.513 918.328 263.126 917.741 262.61C917.153 262.094 916.689 261.46 916.349 260.709C916.008 259.957 915.839 259.083 915.839 258.084C915.839 257.142 916.008 256.298 916.349 255.552C916.689 254.807 917.159 254.172 917.759 253.651C918.359 253.129 919.064 252.729 919.874 252.448C920.684 252.167 921.566 252.027 922.518 252.027C923.532 252.027 924.348 252.123 924.967 252.313C925.585 252.504 926.043 252.695 926.34 252.886C926.575 253.043 926.754 253.214 926.878 253.398C927.002 253.584 927.064 253.766 927.064 253.945L927.063 253.945Z" fill="white"/>
</g>
</g>
<defs>
<clipPath id="clip0_1038_694">
<rect width="1920" height="892" fill="white"/>
</clipPath>
<clipPath id="clip1_1038_694">
<rect width="79" height="73" fill="white" transform="translate(903.937 229)"/>
</clipPath>
</defs>
</svg>
