<svg width="53" height="53" viewBox="0 0 53 53" fill="none" xmlns="http://www.w3.org/2000/svg">
<circle cx="26.5" cy="26.5" r="26.5" fill="#D70D1D"/>
<g clip-path="url(#clip0_441_147)">
<path fill-rule="evenodd" clip-rule="evenodd" d="M16.1659 23.1926C16.2502 23.1961 16.4433 23.3269 16.5275 23.3716L18.8271 24.6313C18.8552 24.6485 18.8797 24.6623 18.9043 24.676L19.631 25.0753C19.6591 25.0925 19.6732 25.0994 19.6977 25.1132L19.9716 25.2612C19.9751 25.2612 19.9786 25.2646 19.9821 25.268L20.2419 25.4126C20.2454 25.4126 20.2489 25.416 20.2524 25.4195L20.5614 25.5916C20.593 25.6088 20.6105 25.6157 20.6421 25.6329L20.9862 25.8291C21.0108 25.8428 21.0353 25.8566 21.0634 25.8738L21.1758 25.9254C21.1968 25.9357 21.1968 25.9392 21.2144 25.9461L25.3922 28.2555V40.8491L25.2517 40.7802C25.1991 40.7493 25.157 40.7286 25.1078 40.7011L24.8445 40.56C24.841 40.56 24.8375 40.5565 24.834 40.5531C24.8305 40.5496 24.8199 40.5462 24.8129 40.5428C24.7602 40.5152 24.7322 40.4946 24.676 40.467L24.4653 40.35C24.4373 40.3363 24.4443 40.3397 24.4232 40.3294L24.1213 40.1642C24.1178 40.1642 24.1143 40.1607 24.1108 40.1573L23.3454 39.7374C23.3454 39.7374 23.3173 39.7167 23.3103 39.7133C23.0997 39.5791 22.8715 39.4896 22.6573 39.3588C22.6503 39.3553 22.6397 39.3485 22.6292 39.3416L22.2992 39.1592C22.2711 39.1419 22.2501 39.1316 22.222 39.1179C22.2079 39.111 22.2044 39.111 22.1904 39.1041C22.1869 39.1041 22.1834 39.1006 22.1798 39.1006C22.1763 39.1006 22.1728 39.0972 22.1693 39.0938L21.7901 38.8873C21.7691 38.8735 21.748 38.8632 21.7234 38.8494C21.6918 38.8322 21.6743 38.8253 21.6427 38.8081C21.6146 38.7909 21.6076 38.784 21.576 38.7668L21.2846 38.605C21.253 38.5878 21.239 38.5775 21.2074 38.5603L21.0985 38.5052C21.081 38.4949 21.0775 38.4949 21.0599 38.4846L20.421 38.1301C20.3964 38.1163 20.3683 38.0991 20.3437 38.0888L19.1992 37.4623C19.1957 37.4623 19.1922 37.4589 19.1887 37.4555L18.0336 36.8256C18.002 36.8084 17.9985 36.8015 17.9669 36.7843L17.4509 36.5021C17.3982 36.4711 17.3596 36.4436 17.3104 36.4195L16.1519 35.7931V23.1995L16.1659 23.1926ZM32.0907 28.4242C32.0099 28.4242 31.9783 28.3898 31.8941 28.3794L30.9813 28.1798C30.9146 28.166 30.9637 28.1626 30.8725 28.1523L30.3037 28.0284C30.2335 28.0146 30.3072 28.0284 30.2581 28.0146L30.2089 28.0043C30.0123 27.9767 29.8263 27.9113 29.6261 27.8804L29.0188 27.7358C28.931 27.7186 28.8678 27.7255 28.8292 27.6704C28.8819 27.667 28.8854 27.6532 28.924 27.6291L29.7174 27.1748C29.7209 27.1748 29.7244 27.1714 29.7279 27.1679L30.4161 26.7755C30.4336 26.7652 30.4406 26.7618 30.4547 26.7549L30.4933 26.7308C30.4968 26.7308 30.5003 26.7274 30.5038 26.7239C30.5389 26.7033 30.56 26.6929 30.5916 26.6757L31.4693 26.1732C31.5044 26.156 31.5255 26.1457 31.557 26.1285C31.5992 26.1044 31.6132 26.0941 31.6518 26.0734L33.0596 25.2749C33.0912 25.2577 33.1193 25.2439 33.1474 25.2267C33.165 25.2164 33.1615 25.2164 33.1825 25.2026L33.5266 25.0065C33.5547 24.9927 33.5476 24.9927 33.5722 24.9789C33.6073 24.9583 33.6249 24.9514 33.66 24.9307C33.6986 24.9101 33.7197 24.8998 33.7583 24.8791L33.8812 24.8068C33.9057 24.7931 33.9022 24.7931 33.9268 24.7793L35.3311 23.9774C35.3346 23.9774 35.3381 23.9739 35.3416 23.9705L35.4189 23.9257C35.4224 23.9223 35.4329 23.9154 35.4364 23.9154C35.447 23.9085 35.4505 23.9051 35.4645 23.8982C35.4926 23.8844 35.4891 23.8844 35.5137 23.8741C35.5698 23.8431 35.6225 23.8087 35.6857 23.7743L36.1245 23.523C36.1561 23.5058 36.1807 23.4921 36.2123 23.4749L36.781 23.1582C36.7846 23.1582 36.7881 23.1548 36.7916 23.1513L36.9215 23.0722C36.9566 23.0515 36.9741 23.0446 37.0092 23.024L37.3638 22.8244C37.3989 22.8037 37.4095 22.7934 37.4481 22.7727C37.5183 22.7314 37.5499 22.7142 37.6693 22.7245C37.757 22.7314 37.8202 22.7383 37.9255 22.7383C38.0203 22.7383 38.0906 22.7658 38.1818 22.7693C38.2696 22.7727 38.3644 22.7658 38.4522 22.7693C38.6137 22.7762 38.7822 22.814 38.9612 22.814C39.1613 22.814 39.2807 22.845 39.4878 22.845L40.7938 22.9345C40.9729 22.9551 41.1133 22.9655 41.3204 22.9655C41.2397 23.0343 41.1414 23.0825 41.0466 23.141C40.857 23.2546 40.6674 23.3819 40.4744 23.4817C40.4182 23.5127 40.3831 23.5334 40.3339 23.5678L40.1268 23.6883C40.1233 23.6883 40.1198 23.6917 40.1163 23.6951L39.221 24.2252C39.207 24.2355 39.2035 24.2355 39.1824 24.2458L39.0033 24.3525C38.9823 24.3628 38.9823 24.3663 38.9682 24.3766L38.8559 24.442C38.8524 24.442 38.8489 24.4454 38.8454 24.4489L37.6026 25.1854C37.5569 25.2095 37.5113 25.2371 37.4586 25.268C37.4235 25.2887 37.4165 25.2956 37.3849 25.3128L36.0824 26.0837C35.8612 26.2008 35.6541 26.3488 35.4329 26.4692C35.3943 26.4899 35.4013 26.4899 35.3662 26.5071C35.3346 26.5243 35.3206 26.5312 35.289 26.5484C35.2363 26.5794 35.2012 26.6035 35.1485 26.6344C35.124 26.6482 35.0994 26.6585 35.0713 26.6757C35.0643 26.6792 35.0432 26.6929 35.0327 26.6964L34.5728 26.9717C34.5377 26.9924 34.5307 26.9993 34.4991 27.0199C34.478 27.0337 34.4815 27.0302 34.4604 27.0406L33.818 27.4192C33.8145 27.4192 33.811 27.4226 33.8074 27.4261L33.7021 27.488C33.653 27.5155 33.6108 27.5396 33.5617 27.574L32.8244 28.0077C32.8209 28.0112 32.8104 28.018 32.8069 28.018C32.7928 28.0284 32.7788 28.0352 32.7718 28.0421C32.7542 28.0525 32.7542 28.0525 32.7367 28.0662L32.6313 28.1247C32.5365 28.1798 32.182 28.4173 32.0977 28.4173L32.0907 28.4242ZM9.00049 15.6654C9.00049 15.7549 9.004 15.8341 9.02857 15.9063L9.18305 16.2023C9.18656 16.2058 9.19358 16.2161 9.19709 16.2195L9.39018 16.402C9.41125 16.4192 9.41827 16.4295 9.43582 16.4433L9.53412 16.5396C9.53763 16.5431 9.54465 16.5534 9.54817 16.5534C9.57274 16.5775 9.55168 16.5603 9.57976 16.5844L10.0642 17.0284C10.0853 17.049 10.0923 17.0525 10.1134 17.0697C10.1169 17.0731 10.1204 17.0731 10.1204 17.0765L10.138 17.0903L10.3486 17.2865C10.3521 17.2899 10.3556 17.2899 10.3556 17.2934L10.3732 17.3072C10.3943 17.3244 10.4013 17.3312 10.4188 17.3485C10.4259 17.3553 10.4364 17.3657 10.4434 17.3691C10.4469 17.3725 10.4504 17.3725 10.4504 17.376L10.7594 17.6651C10.8998 17.7821 11.0157 17.9163 11.1561 18.0334L11.5844 18.4292C11.767 18.5978 11.9425 18.7768 12.1321 18.9351C12.3217 19.0934 12.5569 19.3516 12.7254 19.4824L12.8834 19.6235C12.8869 19.6269 12.8904 19.6269 12.8904 19.6304C12.9044 19.6407 12.9044 19.6476 12.922 19.6613L13.1397 19.861C13.1537 19.8713 13.1502 19.8713 13.1642 19.8816C13.1853 19.8988 13.1923 19.9057 13.2099 19.9264L13.905 20.5665C13.9331 20.5906 13.9226 20.5837 13.9506 20.6113C13.9752 20.6354 13.9717 20.6285 13.9998 20.6526L14.5931 21.1998C14.6317 21.2342 14.6563 21.2583 14.6949 21.2962C14.709 21.3065 14.7055 21.3031 14.7195 21.3168L14.7441 21.3375C14.7441 21.3375 14.7581 21.3513 14.7686 21.3582C15.0109 21.5819 14.9126 21.4821 14.9126 21.8159V36.1958C14.9126 36.2956 14.9196 36.361 14.9266 36.4505L14.9477 36.5365C15.06 36.8704 15.2391 36.9667 15.5129 37.125L17.6545 38.3021C17.658 38.3056 17.672 38.309 17.6755 38.3125L17.7247 38.34C17.7423 38.3503 17.7352 38.3469 17.7528 38.3572L18.3461 38.6807C18.3953 38.7048 18.3953 38.7083 18.4304 38.7324C18.469 38.753 18.4865 38.7633 18.5251 38.7874C18.5603 38.8081 18.5778 38.815 18.6129 38.8356L19.2519 39.1867C19.2835 39.2073 19.301 39.2142 19.3396 39.2349L20.7159 39.9921C20.7194 39.9955 20.7299 39.999 20.7369 40.0024L20.7755 40.023C20.7826 40.0265 20.8036 40.0403 20.8036 40.0403L21.4461 40.3913C21.4777 40.4085 21.4988 40.4223 21.5303 40.4395L21.8604 40.6185C22.0921 40.7562 22.4431 40.9386 22.6854 41.0728L23.1804 41.3447C23.2155 41.3654 23.2436 41.3757 23.2787 41.3963C23.3033 41.4101 23.2892 41.4032 23.3173 41.4204C23.3419 41.4342 23.3349 41.4307 23.3665 41.448C23.3981 41.4652 23.4226 41.4789 23.4542 41.4961L24.5496 42.0985C24.5777 42.1157 24.6058 42.1329 24.6339 42.1466L25.4589 42.5975C25.4905 42.6147 25.5115 42.6285 25.5431 42.6457L25.8275 42.7971C25.8696 42.8212 25.8731 42.8247 25.9153 42.8453C25.9574 42.866 25.9714 42.8763 26.0136 42.897C26.0557 42.921 26.154 42.9968 26.1996 42.9968H26.7087C26.7403 42.9968 26.7438 42.983 26.7789 42.9623L27.5548 42.539C27.5583 42.5356 27.5688 42.5321 27.5759 42.5287C27.5794 42.5252 27.5829 42.5252 27.5864 42.5218L28.2218 42.1811C28.271 42.1535 28.3166 42.1157 28.3623 42.095C28.3939 42.0812 28.4044 42.0812 28.436 42.064L28.773 41.8747C28.7871 41.8679 28.7976 41.861 28.8011 41.8575L28.8748 41.8128C28.8783 41.8128 28.9135 41.7921 28.9135 41.7921L32.0205 40.0953C32.024 40.0953 32.0275 40.0919 32.031 40.0884L34.2358 38.8873C34.2744 38.8666 34.2673 38.8666 34.3025 38.846C34.3235 38.8322 34.3551 38.8184 34.3727 38.8115L37.2058 37.2593C37.3849 37.1664 37.5955 37.0734 37.7395 36.9358C37.7465 36.9289 37.757 36.922 37.7641 36.9151C37.7676 36.9117 37.7781 36.9048 37.7816 36.9013C37.7851 36.8979 37.7886 36.8979 37.7886 36.8944L37.8659 36.805C37.8659 36.8015 37.8694 36.7981 37.8729 36.7946C37.915 36.7258 37.9712 36.6294 37.9923 36.5537C38.0028 36.509 38.0028 36.5055 38.0133 36.4677C38.0519 36.3403 38.0274 34.0274 38.0274 33.7968C38.0274 31.5184 38.0274 29.2399 38.0274 26.958L40.1338 25.7155C40.1549 25.7017 40.1724 25.6948 40.19 25.6811L41.2924 25.0271C41.2959 25.0271 41.2994 25.0237 41.3029 25.0202C41.3064 25.0202 41.3099 25.0168 41.3134 25.0133L41.9348 24.6451C41.9594 24.6313 41.9383 24.6416 41.9629 24.6279L42.2473 24.4592C42.2508 24.4592 42.2543 24.4558 42.2578 24.4523L42.335 24.4076C42.3386 24.4041 42.3421 24.4041 42.3456 24.4007L44.3537 23.2133C44.6065 23.0722 44.8628 22.9276 44.9611 22.6351L44.9751 22.5903C45.0383 22.4182 45.0348 22.1567 44.9541 21.988C44.9435 21.9674 44.947 21.9742 44.933 21.9501L44.7855 21.7402C44.782 21.7367 44.782 21.7333 44.7785 21.7333C44.7083 21.6576 44.617 21.5956 44.5258 21.5509C44.5222 21.5509 44.5187 21.5475 44.5152 21.5475C44.5117 21.5475 44.5082 21.544 44.5047 21.544L44.2519 21.4821C44.1642 21.4717 44.129 21.4545 44.0097 21.4545C43.9114 21.4545 43.8271 21.4545 43.7499 21.4442C43.5779 21.4201 43.4339 21.4098 43.2443 21.4098C43.1215 21.4098 43.0899 21.396 42.9986 21.3822L42.4895 21.3513C42.3386 21.3341 42.1244 21.3478 41.977 21.3237C41.8611 21.3031 41.6224 21.2928 41.4819 21.2928C41.3907 21.2928 41.3204 21.2687 41.2397 21.2618C41.1589 21.2549 41.0536 21.2618 40.9694 21.2618C40.8605 21.2618 40.8219 21.2342 40.7306 21.2308C40.5797 21.2239 40.348 21.2274 40.2181 21.2033C40.0601 21.1757 39.8565 21.1998 39.709 21.1723C39.551 21.1448 39.379 21.1448 39.1999 21.1413C39.1157 21.1379 39.042 21.1138 38.9612 21.1103C38.8734 21.1069 38.7787 21.1172 38.6944 21.1069C38.5329 21.0897 38.3749 21.0622 38.1959 21.0656L37.6868 21.0346C37.6412 21.0277 37.6377 21.0209 37.6026 20.9968C37.571 20.9761 37.5499 20.9658 37.5183 20.9486C37.4867 20.9314 37.4586 20.921 37.427 20.9038C37.3989 20.8901 37.3673 20.866 37.3393 20.8556L37.248 20.8143C37.2269 20.8006 37.2374 20.8075 37.2094 20.7903C37.1672 20.7662 37.1988 20.7834 37.1567 20.7662L34.4675 19.4032C34.2322 19.2724 33.9865 19.1692 33.7513 19.0384C33.6143 18.9627 33.6038 19.0556 33.4177 19.2208L33.344 19.2827C33.3405 19.2862 33.337 19.2862 33.337 19.2896C33.3335 19.2931 33.33 19.2931 33.33 19.2965L33.1895 19.4101C33.186 19.4135 33.1825 19.4135 33.1825 19.417L32.347 20.0675C32.3399 20.0744 32.3259 20.0847 32.3224 20.0881C32.2943 20.1088 32.2697 20.1225 32.2487 20.1501C32.2943 20.2396 32.3259 20.2224 32.4172 20.2671C32.4488 20.2843 32.4804 20.305 32.512 20.3222C32.7437 20.4254 32.9649 20.5528 33.1895 20.6629L34.8431 21.5027C34.8782 21.5199 34.9063 21.5337 34.9449 21.5509C35.0573 21.6128 35.2363 21.6714 35.3276 21.754C35.2363 21.7781 35.131 21.8607 35.0432 21.9054C34.9976 21.9295 34.959 21.9536 34.9063 21.9811L33.7021 22.6385C33.674 22.6523 33.653 22.6626 33.6249 22.6798L32.7437 23.1651C32.7402 23.1651 32.7367 23.1685 32.7331 23.172L31.7852 23.6951C31.7572 23.7089 31.7396 23.7192 31.715 23.7296L31.1533 24.0393C31.1217 24.0565 31.1077 24.0668 31.0761 24.0841L29.7279 24.824C29.6964 24.8413 29.6823 24.8481 29.6507 24.8653C29.5981 24.8929 29.57 24.9135 29.5173 24.9411C29.4611 24.972 29.419 24.9961 29.3734 25.0202L28.3868 25.564C28.3588 25.5812 28.3517 25.5812 28.3201 25.6019L26.7579 26.4589C26.7298 26.4727 26.7157 26.483 26.6912 26.4968L26.3998 26.6585C26.3541 26.6826 26.2944 26.7239 26.2523 26.7342C26.0978 26.631 25.6801 26.4038 25.4905 26.3109L25.0657 26.0769C25.0411 26.0631 25.0271 26.0528 24.999 26.039L24.4162 25.7189C24.4127 25.7155 24.4092 25.7155 24.4057 25.712L24.0089 25.4952C23.9809 25.4814 23.9668 25.4711 23.9422 25.4573L22.4677 24.6485C22.4115 24.621 22.3835 24.5969 22.3238 24.5659L22.236 24.5177C22.2325 24.5177 22.229 24.5143 22.2255 24.5108C22.222 24.5108 22.2185 24.5074 22.2149 24.504L20.779 23.7158C20.3683 23.468 19.933 23.2546 19.5117 23.0171L17.9705 22.1704C17.9494 22.1566 17.9283 22.1463 17.9037 22.1326C17.7703 22.0637 17.3596 21.8056 17.2507 21.7815V21.7367C17.3069 21.7333 17.3385 21.7058 17.3912 21.6817L20.0629 20.4048C20.0909 20.391 20.098 20.3876 20.1225 20.3738L20.2244 20.3256C20.2419 20.3187 20.2419 20.3153 20.2559 20.3118L20.3964 20.243C20.4034 20.2396 20.4174 20.2327 20.428 20.2292L20.5614 20.1673C20.586 20.157 20.5824 20.157 20.6 20.1466L20.8633 20.0193C20.8914 20.0055 20.9019 19.9986 20.9335 19.9849L21.4707 19.7267C21.4988 19.713 21.5163 19.7061 21.5444 19.6923C21.5268 19.62 21.4636 19.5856 21.4075 19.5443C21.4005 19.5409 21.3899 19.5306 21.3829 19.5237L20.8774 19.1279C20.7334 18.9936 20.593 18.8215 20.5157 18.6632L20.4877 18.6013C20.428 18.4808 20.3999 18.35 20.3402 18.2364C20.27 18.2433 20.2314 18.2709 20.1682 18.3018L18.8271 18.9248C18.5778 19.0487 18.318 19.152 18.0652 19.2759C18.0407 19.2896 18.0266 19.2965 18.0056 19.3068L16.998 19.7715C16.9594 19.7887 16.9594 19.7921 16.9278 19.8059L16.7944 19.8679C16.7768 19.8782 16.7417 19.8919 16.7241 19.9023C16.7136 19.9057 16.7066 19.9092 16.6925 19.916L16.51 20.0021C16.4573 20.0262 16.4152 20.0434 16.366 20.0675L15.9342 20.2671C15.8991 20.2843 15.8921 20.2878 15.864 20.305C15.8254 20.3256 15.8289 20.3256 15.7903 20.3359L15.7236 20.2671C15.706 20.2499 15.713 20.2602 15.692 20.2361C15.6709 20.2155 15.6709 20.2155 15.6569 20.1983L15.4743 20.0193C15.4743 20.0193 15.4568 20.0021 15.4532 19.9952L15.046 19.5891C15.0179 19.5615 15.0004 19.5443 14.9793 19.5202L14.4176 18.9592C14.3333 18.8801 14.4843 19.0246 14.4035 18.9454L14.1121 18.6529C14.1016 18.6426 14.1051 18.646 14.0911 18.6288L12.5147 17.0559C12.5042 17.0456 12.4937 17.0352 12.4832 17.0249L12.3638 16.9045C12.2795 16.8253 12.4305 16.9699 12.3497 16.8907L12.1847 16.7255C12.1812 16.722 12.1812 16.7186 12.1777 16.7186C12.1637 16.7048 12.1637 16.7014 12.1461 16.6876C12.1426 16.6842 12.1391 16.6842 12.1391 16.6807L11.8688 16.4123C11.7845 16.3331 11.9355 16.4777 11.8547 16.3985L11.4545 16.0027C11.4124 15.9683 11.465 15.9924 11.4089 15.9717V15.9132C11.4791 15.9132 11.5072 15.8857 11.5668 15.8616C11.5774 15.8582 11.5879 15.8513 11.5984 15.8478L12.0759 15.6482C12.1426 15.6207 12.0303 15.6654 12.097 15.6413L12.6236 15.4176C12.6727 15.4004 12.7184 15.3763 12.771 15.3556L12.8764 15.3109C12.8904 15.304 12.908 15.2971 12.9185 15.2937L13.898 14.8772C13.9015 14.8772 13.905 14.8738 13.9085 14.8738L14.6458 14.5606C14.6774 14.5468 14.6879 14.5434 14.7195 14.5296C14.7265 14.5262 14.7406 14.5193 14.7511 14.5158C14.7686 14.509 14.7757 14.5055 14.7967 14.4986L16.1484 13.9273C16.18 13.9135 16.2045 13.9032 16.2326 13.8929L16.3169 13.8585C16.3204 13.8585 16.3239 13.855 16.3274 13.855L16.4082 13.8172C16.4117 13.8172 16.4152 13.8137 16.4187 13.8137L18.0863 13.1082C18.0898 13.1082 18.0933 13.1047 18.0968 13.1047L18.5111 12.9326C18.5111 12.9326 18.5462 12.9154 18.5532 12.912C18.5989 12.8879 18.5919 12.8913 18.634 12.8741C18.6902 12.8535 18.7288 12.8328 18.7814 12.8122L19.2343 12.6194C19.2589 12.6091 19.2835 12.6022 19.3116 12.5919L19.6556 12.4404C19.6591 12.4404 19.6732 12.4336 19.6767 12.4336L20.5017 12.0859C20.5052 12.0859 20.5087 12.0825 20.5122 12.0825L20.593 12.0446C20.5965 12.0446 20.6 12.0412 20.6035 12.0412C20.607 12.0412 20.6105 12.0378 20.614 12.0378L20.772 11.9724C20.7861 11.9655 20.8036 11.9586 20.8142 11.9551L20.9511 11.8966C20.9546 11.8966 20.9581 11.8932 20.9616 11.8932L21.0494 11.8588C21.102 11.8932 21.1371 11.9379 21.1793 11.9827L21.6322 12.4439C21.8779 12.6848 22.1026 12.9361 22.3484 13.1804L22.9592 13.8C23.04 13.8791 22.8925 13.7346 22.9733 13.8137C22.9978 13.8378 23.1313 13.9961 23.1313 13.8791V11.5697C23.1313 11.5112 23.0259 11.4286 22.9803 11.3907L22.9276 11.3391C22.9241 11.3356 22.9241 11.3322 22.9206 11.3322L22.6749 11.0809C22.6608 11.0637 22.6678 11.0706 22.6538 11.0568L22.3168 10.7195C22.1342 10.5371 21.9271 10.2893 21.7234 10.1413C21.5339 10.0002 21.2495 9.94169 21.0178 10.014L20.5895 10.1861C20.586 10.1861 20.5719 10.1929 20.5684 10.1929L20.3051 10.3065C20.0629 10.3926 19.8382 10.5165 19.5994 10.606L19.3256 10.723C19.3221 10.723 19.3186 10.7264 19.3151 10.7264C19.3116 10.7264 19.308 10.7299 19.3045 10.7299L19.136 10.8021C19.1255 10.8056 19.115 10.809 19.1044 10.8159L18.1565 11.2186C18.153 11.2186 18.1495 11.222 18.146 11.222L17.7738 11.3769C17.7317 11.3907 17.7036 11.4045 17.6615 11.4286C17.6159 11.4526 17.658 11.432 17.6088 11.4526C17.5772 11.463 17.5772 11.463 17.5421 11.4767C17.4965 11.4974 17.4719 11.5112 17.4263 11.5284L15.6112 12.2959C15.6077 12.2959 15.6042 12.2993 15.6007 12.2993L15.053 12.5299C15.0249 12.5403 15.0495 12.5299 15.0214 12.5437L13.733 13.0875C13.7189 13.0944 13.7084 13.0978 13.7014 13.1013L13.5329 13.1701C13.5223 13.1735 13.5118 13.1804 13.5013 13.1839L12.6025 13.5625C12.599 13.5625 12.5955 13.5659 12.592 13.5659L12.2409 13.7105C12.2374 13.7105 12.2339 13.7139 12.2304 13.7139L11.9039 13.8516C11.9004 13.8516 11.8969 13.855 11.8933 13.855L9.4955 14.8635C9.45689 14.8807 9.46742 14.8738 9.43582 14.891C9.34454 14.9426 9.27082 15.0149 9.20411 15.0941C9.14443 15.1663 9.09528 15.2696 9.06017 15.3556L9.04613 15.3866C9.04613 15.3901 9.04262 15.3935 9.04262 15.3969C9.01804 15.4658 9.01453 15.5553 9.01453 15.6413L9.00049 15.6654Z" fill="white"/>
<path fill-rule="evenodd" clip-rule="evenodd" d="M24.3525 11.0912V17.1626H22.053C21.8915 17.1626 21.6949 17.3002 21.6036 17.4207L21.5088 17.5962C21.4667 17.7201 21.4737 17.844 21.4983 17.9714C21.5158 18.0609 21.579 18.1572 21.6387 18.2226L22.0179 18.5324C22.1759 18.6701 22.3479 18.794 22.5164 18.9213L23.9277 20.0193C23.9347 20.0261 23.9453 20.033 23.9523 20.0399L25.5392 21.2893C25.5602 21.303 25.5672 21.3099 25.5918 21.3271L26.5257 22.0602C26.5397 22.074 26.5362 22.0706 26.5502 22.0809L26.7539 22.2392C26.782 22.2599 26.782 22.2599 26.8065 22.2736L26.9224 22.3356C27.1752 22.4354 27.3928 22.3459 27.6 22.1876L27.6491 22.1463C27.6526 22.1428 27.6561 22.1428 27.6561 22.1394L28.2354 21.6816C28.2389 21.6782 28.2424 21.6782 28.2424 21.6748L29.3975 20.773C29.4536 20.7248 29.5168 20.687 29.5765 20.6353L29.7345 20.508C29.7556 20.4908 29.7415 20.5011 29.7591 20.4873L32.2763 18.5186C32.3114 18.4876 32.3219 18.4773 32.3605 18.4532L32.7046 18.1504C32.7116 18.14 32.7257 18.1125 32.7327 18.1022C32.7713 18.0299 32.7853 18.0024 32.7994 17.9129C32.824 17.7683 32.831 17.7339 32.7853 17.5859C32.7853 17.5825 32.7643 17.5412 32.7608 17.5343C32.7116 17.4345 32.6414 17.3553 32.5571 17.2865L32.4097 17.2073C32.3465 17.1832 32.3114 17.1591 32.2342 17.1591H29.9522C29.9522 16.5189 29.9732 11.3666 29.9487 11.1945C29.9171 10.957 29.9557 10.9467 29.7872 10.7402C29.7626 10.7092 29.7205 10.6748 29.6853 10.6472C29.587 10.5749 29.5098 10.5543 29.3869 10.5405C29.3237 10.5336 29.2746 10.5268 29.1903 10.5268C28.6532 10.5268 25.0371 10.5027 24.8089 10.544C24.7211 10.5612 24.6158 10.6335 24.5526 10.692C24.5175 10.7229 24.5386 10.6989 24.507 10.7367C24.4262 10.8296 24.356 10.9501 24.356 11.0809L24.3525 11.0912Z" fill="white"/>
</g>
<defs>
<clipPath id="clip0_441_147">
<rect width="36" height="33" fill="white" transform="translate(9 10)"/>
</clipPath>
</defs>
</svg>
