<svg width="53" height="53" viewBox="0 0 53 53" fill="none" xmlns="http://www.w3.org/2000/svg">
<circle cx="26.5" cy="26.5" r="26.5" fill="#D70D1D"/>
<g clip-path="url(#clip0_441_150)">
<path fill-rule="evenodd" clip-rule="evenodd" d="M13.6122 28.7392C12.8881 28.4498 11.4849 27.9171 11.1035 27.5356C11.0388 27.4699 11 27.3844 11 27.2857V26.9503C11 26.8977 11.0129 26.845 11.0259 26.8122C11.2522 26.1413 11.375 24.3392 11.4849 23.5236L12.1703 18.3738C12.2803 17.4596 12.4936 17.453 13.1596 17.0255C15.5068 15.5456 17.7893 13.9474 20.1429 12.5004L23.6539 10.2248C24.3328 9.80385 24.6626 10.0604 25.3673 10.284C29.2469 11.5073 33.1524 12.6517 37.0449 13.8356C37.5233 13.9803 38.0083 14.1118 38.4868 14.2631C40.2908 14.8353 39.9675 14.5328 40.5688 16.5059C41.2477 18.7289 42.0236 20.9191 42.7026 23.129L42.9741 23.8459C42.9871 23.8919 43 23.9248 43 23.9709V24.2668C43 24.3589 42.9741 24.4313 42.9159 24.497L42.4763 25.01C42.3146 25.1679 42.1659 25.3389 42.0107 25.4967L40.1679 27.4567C40.0321 27.6146 40.1033 27.8316 40.1033 28.0486V30.9491C40.1033 32.4356 39.7929 32.1199 39.0558 33.0604C38.6355 33.5997 38.1247 34.0996 37.6721 34.6126C35.881 36.6383 34.0382 38.618 32.2471 40.6569L31.3225 41.6829C29.887 43.1693 30.4625 43.2877 28.8008 42.5314L22.3477 39.4664C21.5007 39.0521 20.6537 38.6312 19.7808 38.2431L14.6274 35.7899C13.0885 34.994 13.6187 34.4021 13.6187 32.4487C13.6187 31.2122 13.6252 29.9692 13.6187 28.7327L13.6122 28.7392ZM25.2445 11.7572V21.3663C26.5894 21.7873 27.9214 22.2608 29.2663 22.6686C29.3374 22.6883 29.6478 22.8067 29.706 22.8067C29.7965 22.7738 30.553 22.0504 30.6565 21.9583C31.1673 21.5045 31.6846 21.0638 32.1825 20.5968C33.6567 19.2156 35.2021 17.9068 36.7086 16.5717L37.8078 15.5785C36.4629 15.0655 34.4843 14.5788 33.217 14.1908C31.5617 13.6909 29.9129 13.1845 28.2576 12.6912C27.624 12.5004 26.0657 11.9282 25.251 11.7572H25.2445ZM14.414 17.9002C14.6533 17.9726 14.899 18.0449 15.1059 18.1107C16.593 18.5777 18.0738 19.0709 19.5609 19.5511C20.6343 19.8997 22.6129 20.656 23.8349 20.9323V11.7901C22.5029 12.4939 20.3433 14.1644 19.1212 14.9011C17.9897 15.5851 15.6555 16.9663 14.414 17.9068V17.9002ZM30.5078 24.0301L33.3722 32.5605L41.4611 24.0037C41.3318 23.1882 40.4912 20.8533 40.2261 20.097C39.7994 18.8802 39.4179 17.6371 39.0364 16.4007C38.3186 16.9531 37.0707 18.1633 36.5858 18.6237C36.4888 18.7158 36.3918 18.775 36.3013 18.8539L35.4413 19.6366C34.2257 20.6889 31.5294 22.8396 30.5078 24.0301ZM12.4872 26.6806L23.9319 31.449C24.8371 31.837 26.473 32.6263 27.4882 32.9486C27.6175 32.2843 27.708 31.6068 27.8244 30.9426C27.9667 30.1599 28.1089 29.3772 28.2382 28.588C28.4387 27.3909 28.9366 25.3586 29.0206 24.1353C26.4342 23.346 23.8478 22.4581 21.2744 21.6228C19.4769 21.0375 17.6858 20.4587 15.8883 19.8865C15.2611 19.6892 14.22 19.2946 13.4894 19.1236C13.2889 20.3469 13.1467 21.636 12.9786 22.8593C12.8363 23.9117 12.526 25.5822 12.4742 26.6806H12.4872ZM30.469 40.4793C30.5207 40.4201 30.5595 40.3675 30.5918 40.3346L38.5838 31.4227C38.6096 31.3898 38.6549 31.3438 38.6743 31.3175C38.6872 31.2714 38.6807 31.1596 38.6807 31.1136C38.6743 30.4098 38.6872 29.7061 38.6807 29.0023C37.9824 29.6732 36.9285 30.9163 36.4823 31.3964C35.5771 32.3566 34.6783 33.33 33.7602 34.2837C32.6674 35.4281 32.3247 33.8957 32.0467 33.0735C31.5617 31.6726 31.135 30.2454 30.6242 28.8576C30.5595 28.68 30.4948 28.4959 30.4367 28.3183C30.4431 29.0549 30.4754 29.831 30.4754 30.2322C30.4754 33.6523 30.4173 37.0724 30.469 40.4859V40.4793ZM15.0283 29.3378L15.0218 34.3626L25.82 39.5059C26.4342 39.8019 27.0485 40.1044 27.6692 40.3807C27.9796 40.5188 28.6068 40.8739 29.0529 41.0713L29.0594 32.3829C28.9624 33.1064 28.8525 33.7707 28.6779 34.2114C28.3934 34.9546 27.6175 34.5797 27.1261 34.3692C24.475 33.2182 21.7852 32.179 19.1342 31.0412L15.0218 29.3378H15.0283Z" fill="white"/>
</g>
<defs>
<clipPath id="clip0_441_150">
<rect width="32" height="33" fill="white" transform="translate(11 10)"/>
</clipPath>
</defs>
</svg>
