<svg width="53" height="53" viewBox="0 0 53 53" fill="none" xmlns="http://www.w3.org/2000/svg">
<circle cx="26.5" cy="26.5" r="26.5" fill="#D70D1D"/>
<g clip-path="url(#clip0_441_151)">
<path d="M37.3648 26.2109L37.3648 26.2109L39.9728 37.4627C39.9728 37.4627 39.9728 37.4627 39.9728 37.4627C40.0405 37.7549 39.9419 38.0979 39.5759 38.4334C39.203 38.7752 38.6556 38.996 38.1439 38.996H14.8477C14.336 38.996 13.7886 38.7752 13.4157 38.4334C13.0497 38.0979 12.9511 37.7549 13.0189 37.4627C13.0189 37.4627 13.0189 37.4627 13.0189 37.4627L15.6268 26.2109L15.6269 26.2103C15.9291 24.9032 16.6163 24.2261 17.4556 24.2261H17.4596H35.536C36.3746 24.2261 37.0624 24.9059 37.3648 26.2109Z" stroke="white" stroke-width="2"/>
<path d="M26.5019 13.75C29.0612 13.75 31.115 15.7886 31.115 18.2791C31.115 20.7695 29.0612 22.8081 26.5019 22.8081C23.9426 22.8081 21.8887 20.7695 21.8887 18.2791C21.8887 15.7886 23.9426 13.75 26.5019 13.75ZM30.1385 18.2791C30.1385 16.2867 28.5021 14.6877 26.5019 14.6877C24.5062 14.6877 22.8652 16.2861 22.8652 18.2791C22.8652 20.2721 24.5062 21.8704 26.5019 21.8704C28.4975 21.8704 30.1385 20.2721 30.1385 18.2791Z" stroke="white" stroke-width="1.5"/>
</g>
<defs>
<clipPath id="clip0_441_151">
<rect width="29" height="27" fill="white" transform="translate(12 13)"/>
</clipPath>
</defs>
</svg>
