<svg width="53" height="53" viewBox="0 0 53 53" fill="none" xmlns="http://www.w3.org/2000/svg">
<circle cx="26.5" cy="26.5" r="26.5" fill="#D70D1D"/>
<g clip-path="url(#clip0_441_152)">
<path fill-rule="evenodd" clip-rule="evenodd" d="M17.1487 15.0032C18.3372 15.0032 19.2975 15.9793 19.2975 17.1603V36.8396C19.2975 38.0326 18.3252 38.9967 17.1487 38.9967C15.9603 38.9967 15 38.0206 15 36.8396V17.1603C15 15.9673 15.9723 15.0032 17.1487 15.0032Z" fill="white"/>
<path fill-rule="evenodd" clip-rule="evenodd" d="M23.3787 15.0032C24.5671 15.0032 25.5275 15.9793 25.5275 17.1603V36.8396C25.5275 38.0326 24.5551 38.9967 23.3787 38.9967C22.1903 38.9967 21.23 38.0206 21.23 36.8396V17.1603C21.23 15.9673 22.2023 15.0032 23.3787 15.0032Z" fill="white"/>
<path fill-rule="evenodd" clip-rule="evenodd" d="M29.6092 15.0032C30.7976 15.0032 31.7579 15.9793 31.7579 17.1603V36.8396C31.7579 38.0326 30.7856 38.9967 29.6092 38.9967C28.4208 38.9967 27.4604 38.0206 27.4604 36.8396V17.1603C27.4604 15.9673 28.4328 15.0032 29.6092 15.0032Z" fill="white"/>
<path fill-rule="evenodd" clip-rule="evenodd" d="M35.8392 15.0032C37.0276 15.0032 37.9879 15.9793 37.9879 17.1603V36.8396C37.9879 38.0326 37.0156 38.9967 35.8392 38.9967C34.6508 38.9967 33.6904 38.0206 33.6904 36.8396V17.1603C33.6904 15.9673 34.6628 15.0032 35.8392 15.0032Z" fill="white"/>
</g>
<defs>
<clipPath id="clip0_441_152">
<rect width="23" height="24" fill="white" transform="translate(15 15)"/>
</clipPath>
</defs>
</svg>
