<svg width="53" height="53" viewBox="0 0 53 53" fill="none" xmlns="http://www.w3.org/2000/svg">
<circle cx="26.5" cy="26.5" r="26.5" fill="#D70D1D"/>
<path d="M20.7926 27.1352C20.9933 27.3359 20.9933 27.6632 20.7926 27.8639C20.5918 28.0647 20.2646 28.0647 20.0638 27.8639C19.8631 27.6632 19.8631 27.3359 20.0638 27.1352C20.2646 26.933 20.5905 26.933 20.7926 27.1352" stroke="white" stroke-width="2" stroke-linecap="round" stroke-linejoin="round"/>
<path d="M26.8644 27.1352C27.0651 27.3359 27.0651 27.6632 26.8644 27.8639C26.6636 28.0647 26.3364 28.0647 26.1356 27.8639C25.9349 27.6632 25.9349 27.3359 26.1356 27.1352C26.3364 26.933 26.6636 26.933 26.8644 27.1352" stroke="white" stroke-width="2" stroke-linecap="round" stroke-linejoin="round"/>
<path d="M27.875 15.125H29.25C30.7694 15.125 32 16.3556 32 17.875C32 16.3556 33.2306 15.125 34.75 15.125H36.125" stroke="white" stroke-width="2" stroke-linecap="round" stroke-linejoin="round"/>
<path d="M32 37.125V17.875" stroke="white" stroke-width="2" stroke-linecap="round" stroke-linejoin="round"/>
<path d="M36.125 39.875H34.75C33.2306 39.875 32 38.6444 32 37.125C32 38.6444 30.7694 39.875 29.25 39.875H27.875" stroke="white" stroke-width="2" stroke-linecap="round" stroke-linejoin="round"/>
<path d="M27.875 34.375H16.875C15.3556 34.375 14.125 33.1444 14.125 31.625V23.375C14.125 21.8556 15.3556 20.625 16.875 20.625H27.875" stroke="white" stroke-width="2" stroke-linecap="round" stroke-linejoin="round"/>
<path d="M32 34.375H36.125C37.6444 34.375 38.875 33.1444 38.875 31.625V23.375C38.875 21.8556 37.6444 20.625 36.125 20.625H32" stroke="white" stroke-width="2" stroke-linecap="round" stroke-linejoin="round"/>
</svg>
