<svg width="60" height="60" viewBox="0 0 60 60" fill="none" xmlns="http://www.w3.org/2000/svg">
<circle cx="30" cy="30" r="30" fill="white"/>
<path d="M33.244 35.0179L35.1291 33.132C35.383 32.8812 35.7042 32.7095 36.0538 32.6377C36.4033 32.566 36.7662 32.5973 37.0983 32.7279L39.3958 33.6456C39.7314 33.7819 40.0192 34.0145 40.2229 34.3141C40.4266 34.6138 40.537 34.9671 40.5403 35.3294V39.5389C40.5384 39.7854 40.4866 40.029 40.3881 40.2549C40.2895 40.4808 40.1463 40.6845 39.9671 40.8536C39.7878 41.0227 39.5762 41.1538 39.3449 41.2389C39.1137 41.3241 38.8676 41.3615 38.6216 41.349C22.5224 40.3471 19.274 26.7083 18.6596 21.4885C18.6311 21.2322 18.6572 20.9727 18.7361 20.7272C18.815 20.4816 18.945 20.2556 19.1175 20.0639C19.29 19.8723 19.5011 19.7193 19.737 19.6151C19.9728 19.511 20.228 19.4579 20.4858 19.4595H24.5506C24.9133 19.4606 25.2674 19.5702 25.5674 19.7742C25.8673 19.9783 26.0994 20.2674 26.2337 20.6045L27.151 22.9029C27.2859 23.2338 27.3203 23.5972 27.25 23.9475C27.1796 24.2979 27.0076 24.6198 26.7555 24.873L24.8704 26.7588C24.8704 26.7588 25.956 34.1086 33.244 35.0179Z" fill="#D70D1D"/>
</svg>
