<svg width="30" height="30" viewBox="0 0 30 30" fill="none" xmlns="http://www.w3.org/2000/svg">
<path fill-rule="evenodd" clip-rule="evenodd" d="M12.8318 9.33646C14.1973 8.54302 15.8758 8.55689 17.2285 9.37279C18.5679 10.2053 19.382 11.6911 19.3744 13.2894C19.3432 14.8772 18.4703 16.3697 17.3792 17.5235C16.7494 18.1925 16.0449 18.784 15.28 19.286C15.2013 19.3316 15.115 19.362 15.0254 19.376C14.9393 19.3723 14.8553 19.3468 14.7812 19.3019C13.6135 18.5476 12.5891 17.5847 11.7572 16.4597C11.0611 15.5206 10.6657 14.386 10.6245 13.21C10.6236 11.6086 11.4662 10.1299 12.8318 9.33646ZM13.6207 13.8721C13.8504 14.4384 14.3926 14.8077 14.9941 14.8077C15.3882 14.8106 15.767 14.6527 16.0461 14.3694C16.3253 14.086 16.4815 13.7007 16.4801 13.2993C16.4823 12.6866 16.1215 12.133 15.5664 11.8971C15.0113 11.6611 14.3713 11.7893 13.9452 12.2218C13.5191 12.6543 13.391 13.3058 13.6207 13.8721Z" fill="#D70D1D"/>
<ellipse opacity="0.4" cx="15" cy="20.626" rx="3.125" ry="0.625" fill="#D70D1D"/>
<circle cx="15" cy="15" r="14" stroke="#D70D1D" stroke-width="2"/>
</svg>
