<svg width="30" height="30" viewBox="0 0 30 30" fill="none" xmlns="http://www.w3.org/2000/svg">
<path opacity="0.4" d="M21.2495 17.4635C21.2495 19.2072 19.8495 20.6197 18.1058 20.626H18.0995H11.9058C10.1683 20.626 8.74951 19.2197 8.74951 17.476V17.4697C8.74951 17.4697 8.75326 14.7035 8.75826 13.3122C8.75889 13.051 9.05889 12.9047 9.26326 13.0672C10.7483 14.2454 13.4039 16.3935 13.437 16.4216C13.8808 16.7772 14.4433 16.9779 15.0183 16.9779C15.5933 16.9779 16.1558 16.7772 16.5995 16.4147C16.6326 16.3929 19.2289 14.3091 20.7364 13.1116C20.9414 12.9485 21.2426 13.0947 21.2433 13.3554C21.2495 14.736 21.2495 17.4635 21.2495 17.4635Z" fill="#D70D1D"/>
<path d="M20.9216 11.0462C20.3803 10.0262 19.3153 9.375 18.1428 9.375H11.9053C10.7328 9.375 9.66782 10.0262 9.12657 11.0462C9.00532 11.2744 9.06282 11.5587 9.2647 11.72L13.9053 15.4319C14.2303 15.6944 14.6241 15.825 15.0178 15.825C15.0203 15.825 15.0222 15.825 15.0241 15.825C15.0259 15.825 15.0284 15.825 15.0303 15.825C15.4241 15.825 15.8178 15.6944 16.1428 15.4319L20.7834 11.72C20.9853 11.5587 21.0428 11.2744 20.9216 11.0462Z" fill="#D70D1D"/>
<circle cx="15" cy="15" r="14" stroke="#D70D1D" stroke-width="2"/>
</svg>
