<svg width="30" height="30" viewBox="0 0 30 30" fill="none" xmlns="http://www.w3.org/2000/svg">
<circle cx="15" cy="15" r="14" stroke="#D70D1D" stroke-width="2"/>
<path opacity="0.4" d="M16.5113 10.9313C16.2138 10.8764 15.9406 11.0662 15.884 11.3566C15.8274 11.647 16.0178 11.9305 16.3072 11.9873C17.1784 12.1572 17.8512 12.8316 18.0217 13.7058V13.7065C18.0703 13.9581 18.2918 14.1411 18.547 14.1411C18.5812 14.1411 18.6154 14.138 18.6503 14.1317C18.9397 14.0737 19.1301 13.7908 19.0735 13.4998C18.8189 12.194 17.8139 11.1855 16.5113 10.9313Z" fill="#D70D1D"/>
<path opacity="0.4" d="M16.4724 8.75593C16.3329 8.73595 16.1929 8.77717 16.0815 8.86585C15.967 8.95578 15.8954 9.08568 15.8798 9.2312C15.8469 9.52535 16.0591 9.7914 16.3529 9.8245C18.3788 10.0506 19.9534 11.6288 20.1812 13.661C20.2117 13.9333 20.4401 14.1387 20.7128 14.1387C20.7333 14.1387 20.7532 14.1375 20.7738 14.135C20.9163 14.1194 21.0432 14.0488 21.1329 13.9364C21.2219 13.824 21.2623 13.6841 21.2461 13.5411C20.9623 11.0055 18.9999 9.03759 16.4724 8.75593Z" fill="#D70D1D"/>
<path d="M18.5023 16.6715C18.0971 16.5853 17.7766 16.7727 17.4927 16.9363C17.2021 17.1049 16.6488 17.5515 16.3326 17.4366C14.7106 16.7721 13.1851 15.3575 12.5248 13.7362C12.4084 13.4134 12.8546 12.8594 13.0221 12.5671C13.1858 12.2836 13.37 11.9607 13.286 11.5548C13.21 11.1894 12.2279 9.94472 11.8806 9.60436C11.6509 9.37953 11.4169 9.25587 11.176 9.23526C10.2704 9.19716 9.25905 10.4006 9.08167 10.6885C8.63666 11.3025 8.63977 12.1193 9.08914 13.1098C10.1721 15.7703 14.2681 19.7854 16.9494 20.9046C17.4436 21.135 17.8967 21.2506 18.3031 21.2506C18.7008 21.2506 19.055 21.14 19.3593 20.9208C19.5884 20.789 20.8468 19.7317 20.8132 18.8055C20.7939 18.5695 20.6701 18.3334 20.4473 18.1048C20.1074 17.7557 18.8664 16.7483 18.5023 16.6715Z" fill="#D70D1D"/>
</svg>
