<svg width="24" height="24" viewBox="0 0 24 24" fill="none" xmlns="http://www.w3.org/2000/svg">
<path fill-rule="evenodd" clip-rule="evenodd" d="M14.2942 8.99926C14.2942 8.99926 18 9.09603 18 7.08005C18 5.59552 15.5294 4.77625 14.2941 4.39225C14.2941 4.39225 11 3.2924 11 4.77692C11 6.7929 14.2942 8.99926 14.2942 8.99926Z" stroke="white" stroke-width="1.5" stroke-linecap="round" stroke-linejoin="round"/>
<path fill-rule="evenodd" clip-rule="evenodd" d="M11.531 4.02539C6.78 4.27139 3 8.18839 3 13.0004C3 17.9714 7.029 22.0004 12 22.0004C16.971 22.0004 21 17.9714 21 13.0004C21 10.3484 19.848 7.97239 18.023 6.32939" stroke="white" stroke-width="1.5" stroke-linecap="round" stroke-linejoin="round"/>
<path d="M7.99996 21.0681V20.9971C7.99996 18.9971 12 19.2331 12 16.9971C12 14.9971 8.99996 14.9971 8.99996 11.9971C8.99996 9.16907 6.99996 8.99707 3.99996 8.99707H3.93896" stroke="white" stroke-width="1.5" stroke-linecap="round" stroke-linejoin="round"/>
<path d="M17.9699 19.7195C17.8189 19.6615 17.6689 19.6005 17.5259 19.5165C16.0899 18.6765 15.6079 16.8325 16.4469 15.3965C17.2869 13.9605 19.1309 13.4785 20.5669 14.3175C20.6729 14.3795 20.7619 14.4575 20.8579 14.5295" stroke="white" stroke-width="1.5" stroke-linecap="round" stroke-linejoin="round"/>
</svg>
