<svg width="27" height="27" viewBox="0 0 27 27" fill="none" xmlns="http://www.w3.org/2000/svg">
<g clip-path="url(#clip0_391_257)">
<path fill-rule="evenodd" clip-rule="evenodd" d="M9.6822 15.3009L13.5027 17.9132L17.1855 15.3724L25.4408 23.517C25.2234 23.5872 24.9912 23.625 24.7495 23.625H2.25045C1.95345 23.625 1.66995 23.5669 1.4094 23.463L9.6822 15.3009ZM27 8.6076V21.3745C27 21.708 26.9271 22.0239 26.7975 22.3088L18.7056 14.3249L27 8.6076ZM1.27386e-06 8.67915L8.1567 14.2573L0.143101 22.1657C0.0481906 21.9127 -0.000286515 21.6447 1.27386e-06 21.3745V8.67915ZM24.7495 3.375C25.9916 3.375 27 4.3821 27 5.62545V6.41655L13.4973 15.7248L1.27386e-06 6.4935V5.62545C1.27386e-06 4.38345 1.0071 3.375 2.25045 3.375H24.7495Z" fill="white"/>
</g>
<defs>
<clipPath id="clip0_391_257">
<rect width="27" height="27" fill="white"/>
</clipPath>
</defs>
</svg>
