<svg width="1920" height="311" viewBox="0 0 1920 311" fill="none" xmlns="http://www.w3.org/2000/svg">
<path fill-rule="evenodd" clip-rule="evenodd" d="M1920 310.953V195.343L1876.88 226.484C1833.75 257.623 1747.5 319.902 1661.25 309.521C1610.94 303.466 1560.62 272.687 1510.31 241.908C1474.38 219.923 1438.44 197.939 1402.5 184.964C1354.58 167.666 1306.67 166.384 1258.75 165.103C1220.42 164.078 1182.08 163.052 1143.75 153.826C1057.5 133.066 954.75 101.351 868.5 49.4527C786.021 -0.17623 721.373 -0.0941992 641.546 0.00931645C637.896 0.0132227 634.216 0.0171289 630.5 0.0171289C577.731 0.0171289 523.372 10.9663 469.368 21.8433C435.104 28.7456 400.981 35.6187 367.5 39.648C333.807 43.7027 307.438 41.2437 279.811 38.6656C236.716 34.646 190.556 30.3394 108.75 50.0288C71.3252 59.0367 33.9014 75.8609 0 94.566V310.953H1920Z" fill="white"/>
</svg>
