<svg width="41" height="41" viewBox="0 0 41 41" fill="none" xmlns="http://www.w3.org/2000/svg">
<path fill-rule="evenodd" clip-rule="evenodd" d="M7.34116 1.36289C4.13027 1.36289 1.51817 3.97499 1.51817 7.18597V27.9015C1.51817 31.1125 4.13027 33.7242 7.34116 33.7242H12.9062C13.8518 33.7242 14.7486 34.1806 15.3049 34.9452L17.9548 38.5859C18.5181 39.3604 19.4256 39.8227 20.3838 39.8227C21.3414 39.8227 22.2495 39.3604 22.8124 38.5859L25.4623 34.9452C26.0187 34.1806 26.9155 33.7242 27.8613 33.7242H33.4264C36.637 33.7242 39.2488 31.1125 39.2488 27.9015V7.18597C39.2488 3.97499 36.637 1.36289 33.4264 1.36289H7.34116ZM20.3838 40.6075C19.1758 40.6075 18.0307 40.0246 17.3201 39.0483L14.6703 35.4072C14.2608 34.8451 13.6017 34.5091 12.9062 34.5091H7.34116C3.69756 34.5091 0.733398 31.5451 0.733398 27.9015V7.18597C0.733398 3.54229 3.69756 0.578125 7.34116 0.578125H33.4264C37.07 0.578125 40.0339 3.54229 40.0339 7.18597V27.9015C40.0339 31.5451 37.07 34.5091 33.4264 34.5091H27.8613C27.166 34.5091 26.5061 34.8451 26.097 35.4072L23.4472 39.0483C22.737 40.0246 21.5918 40.6075 20.3838 40.6075Z" fill="#D70D1D"/>
<path fill-rule="evenodd" clip-rule="evenodd" d="M7.34138 32.6328H12.9068C14.2044 32.6328 15.4238 33.2538 16.1872 34.3032L18.8371 37.9439C19.6011 38.994 21.1669 38.994 21.9307 37.9439L24.5805 34.3032C25.3442 33.2538 26.5635 32.6328 27.8613 32.6328H33.4266C36.0397 32.6328 38.1583 30.5145 38.1583 27.9011V7.18521C38.1583 4.57187 36.0397 2.45312 33.4266 2.45312H7.34138C4.72803 2.45312 2.60938 4.57187 2.60938 7.18521V27.9011C2.60938 30.5145 4.72803 32.6328 7.34138 32.6328Z" fill="#D70D1D"/>
<path fill-rule="evenodd" clip-rule="evenodd" d="M11.5203 13.3434C11.5203 13.4573 11.4986 13.5611 11.4552 13.6549C11.4115 13.7487 11.3596 13.8324 11.2994 13.906C11.2391 13.9796 11.1771 14.0416 11.1135 14.0917C11.0499 14.142 10.998 14.1769 10.958 14.1971C10.9042 14.1436 10.829 14.0734 10.7318 13.9862C10.6348 13.8994 10.509 13.8154 10.3551 13.7351C10.2012 13.6549 10.0187 13.5847 9.80785 13.5243C9.59708 13.4639 9.35723 13.4336 9.08945 13.4336C8.76815 13.4336 8.47683 13.4909 8.21566 13.6046C7.95448 13.7185 7.73007 13.8793 7.54256 14.0866C7.35533 14.2943 7.20958 14.5435 7.10575 14.835C7.00193 15.1263 6.95029 15.4527 6.95029 15.8146C6.95029 16.5845 7.14607 17.1705 7.53783 17.5719C7.92961 17.9741 8.45355 18.1748 9.10961 18.1748C9.38434 18.1748 9.63008 18.1497 9.84818 18.0996C10.0656 18.0493 10.2513 17.994 10.4054 17.9338C10.5594 17.8734 10.6833 17.8133 10.7771 17.7532C10.8708 17.6924 10.931 17.6525 10.958 17.6323L11.6009 18.7173C11.5669 18.7511 11.4869 18.8061 11.3596 18.8829C11.2324 18.96 11.0581 19.0402 10.8372 19.1239C10.6163 19.2079 10.3535 19.2813 10.0486 19.3451C9.74399 19.4084 9.39754 19.4405 9.00927 19.4405C8.50698 19.4405 8.03852 19.3634 7.60295 19.2095C7.16774 19.0553 6.79107 18.8244 6.47299 18.5163C6.15482 18.2082 5.90372 17.83 5.71961 17.3812C5.53523 16.9328 5.44336 16.4105 5.44336 15.8146C5.44336 15.2519 5.53523 14.7481 5.71961 14.3028C5.90372 13.8575 6.15828 13.479 6.48306 13.1675C6.80775 12.8563 7.18951 12.6168 7.6281 12.4497C8.06643 12.282 8.54383 12.1982 9.05956 12.1982C9.60841 12.1982 10.0505 12.2552 10.3853 12.3692C10.7201 12.4831 10.9678 12.5966 11.1285 12.7106C11.2557 12.8044 11.353 12.9066 11.42 13.0171C11.4869 13.1275 11.5203 13.2363 11.5203 13.3434Z" fill="white"/>
<path fill-rule="evenodd" clip-rule="evenodd" d="M15.5566 17.0202C15.5368 17.0136 15.4964 17.007 15.436 17C15.3759 16.9938 15.3017 16.9868 15.2152 16.9799C15.128 16.9733 15.0326 16.9682 14.9288 16.9651C14.825 16.9616 14.7195 16.96 14.6122 16.96C14.3646 16.96 14.1635 16.9799 14.0097 17.0202C13.8558 17.0601 13.7368 17.1155 13.6531 17.186C13.5694 17.2562 13.5125 17.3402 13.4822 17.4372C13.4524 17.534 13.4373 17.6363 13.4373 17.7433C13.4373 17.8374 13.4508 17.9277 13.4775 18.0145C13.5043 18.1017 13.559 18.1804 13.6431 18.2506C13.7267 18.321 13.8441 18.378 13.9945 18.4214C14.1456 18.4648 14.3413 18.4866 14.5821 18.4866C14.8366 18.4866 15.0478 18.4753 15.2152 18.4513C15.3823 18.4281 15.4964 18.4098 15.5566 18.3962V17.0202ZM16.9427 19.2298C16.9226 19.2367 16.8486 19.2499 16.7215 19.2701C16.5944 19.2903 16.4254 19.3103 16.2146 19.3305C16.0037 19.3506 15.7542 19.3689 15.4663 19.3856C15.1784 19.4023 14.8637 19.4108 14.5219 19.4108C14.0264 19.4108 13.6198 19.3689 13.3016 19.2852C12.9832 19.2015 12.7308 19.086 12.5432 18.9387C12.3557 18.7915 12.2267 18.619 12.1566 18.4214C12.0864 18.2242 12.0508 18.0079 12.0508 17.7735C12.0508 17.4856 12.0946 17.2345 12.1814 17.0202C12.2685 16.8059 12.4092 16.63 12.6034 16.4928C12.7976 16.3556 13.0468 16.2533 13.3517 16.1866C13.6565 16.1196 14.0264 16.0859 14.4618 16.0859C14.7633 16.0859 15.0141 16.0945 15.2152 16.111C15.4159 16.1281 15.533 16.1398 15.5666 16.1464V15.9855C15.5666 15.6708 15.4593 15.4298 15.2453 15.2624C15.0307 15.095 14.6991 15.0113 14.251 15.0113C14.0499 15.0113 13.8721 15.0299 13.7183 15.0667C13.5644 15.1035 13.4322 15.1469 13.3214 15.1973C13.2113 15.2473 13.1172 15.2974 13.0404 15.348C12.9634 15.3981 12.9014 15.4364 12.8545 15.4632C12.7607 15.4097 12.6773 15.3244 12.6034 15.207C12.5297 15.09 12.4929 14.9578 12.4929 14.8105C12.4929 14.663 12.5398 14.5374 12.6336 14.4338C12.7274 14.33 12.8529 14.2463 13.0102 14.1825C13.1676 14.1192 13.3482 14.0739 13.5527 14.0468C13.7566 14.0204 13.9659 14.0068 14.1805 14.0068C14.5889 14.0068 14.9621 14.0421 15.3005 14.1123C15.6387 14.1825 15.9301 14.3032 16.1743 14.4738C16.4185 14.6447 16.6079 14.8722 16.7419 15.157C16.8757 15.4414 16.9427 15.798 16.9427 16.2269V19.2298Z" fill="white"/>
<path fill-rule="evenodd" clip-rule="evenodd" d="M21.6942 19.2698V16.3871C21.6942 15.5569 21.309 15.1416 20.539 15.1416C20.258 15.1416 20.04 15.1652 19.886 15.2121C19.7322 15.2589 19.6215 15.2989 19.5547 15.3322V19.2698H18.1484V14.4584C18.1748 14.4452 18.2555 14.4119 18.3894 14.358C18.5235 14.3046 18.6959 14.2494 18.9068 14.1922C19.1177 14.1355 19.3656 14.0852 19.6501 14.0418C19.9345 13.9983 20.2445 13.9763 20.5793 13.9763C20.9541 13.9763 21.2974 14.0235 21.6089 14.117C21.9201 14.2107 22.1864 14.348 22.4076 14.5289C22.6284 14.7095 22.799 14.9324 22.9198 15.1969C23.04 15.4613 23.1005 15.7643 23.1005 16.1058V19.2698H21.6942Z" fill="white"/>
<path fill-rule="evenodd" clip-rule="evenodd" d="M25.4905 16.698C25.4905 16.9324 25.5222 17.1485 25.5862 17.3458C25.6497 17.5435 25.7467 17.7159 25.8773 17.8632C26.0078 18.0105 26.1753 18.1244 26.3794 18.2046C26.5837 18.2848 26.8263 18.3252 27.1079 18.3252C27.3219 18.3252 27.4959 18.3151 27.6299 18.2949C27.764 18.2751 27.8509 18.255 27.8912 18.2348V16.477C27.8912 16.0954 27.7939 15.7772 27.5998 15.5226C27.4056 15.2684 27.1142 15.1409 26.7259 15.1409C26.3376 15.1409 26.0346 15.2835 25.8168 15.5679C25.5994 15.8527 25.4905 16.2294 25.4905 16.698ZM29.2974 19.2692C29.2574 19.2758 29.1785 19.2877 29.0614 19.3044C28.9444 19.3211 28.7987 19.3362 28.6243 19.3497C28.45 19.3629 28.2527 19.3765 28.0318 19.39C27.8109 19.4032 27.58 19.4102 27.3386 19.4102C26.2404 19.4102 25.4169 19.1571 24.8678 18.6514C24.3187 18.146 24.0439 17.4447 24.0439 16.5472C24.0439 16.1322 24.1075 15.7671 24.2349 15.4525C24.3621 15.1378 24.5345 14.8735 24.7523 14.6592C24.97 14.4446 25.2211 14.2822 25.5056 14.1718C25.7901 14.0613 26.0931 14.0059 26.4147 14.0059C26.6422 14.0059 26.8468 14.0346 27.0274 14.0915C27.2083 14.1485 27.3603 14.2155 27.4843 14.2923C27.608 14.3694 27.7036 14.4414 27.7706 14.5082C27.8377 14.5751 27.8776 14.6189 27.8912 14.6388V12.4693C27.8912 12.2415 27.9582 12.0842 28.0922 11.997C28.2257 11.9102 28.4034 11.8665 28.6243 11.8665C28.7782 11.8665 28.9204 11.8835 29.051 11.9168C29.1816 11.9505 29.2638 11.9737 29.2974 11.987V19.2692Z" fill="white"/>
<path fill-rule="evenodd" clip-rule="evenodd" d="M33.7682 14.7494C33.8415 14.5754 33.9321 14.4313 34.0391 14.3174C34.146 14.2037 34.327 14.1465 34.5816 14.1465C34.7959 14.1465 34.9668 14.1868 35.0939 14.2674C35.221 14.3475 35.2981 14.4045 35.3248 14.4379C35.278 14.5986 35.2109 14.7912 35.1241 15.0156C35.037 15.24 34.94 15.4775 34.8327 15.7287C34.7254 15.9798 34.6168 16.2328 34.5064 16.4871C34.3956 16.7416 34.2937 16.9761 34.1999 17.19C34.0057 17.6321 33.8065 18.0607 33.6023 18.4757C33.3977 18.8912 33.1718 19.3128 32.9242 19.7414C32.8103 19.9422 32.6898 20.1348 32.5627 20.3191C32.4355 20.5032 32.2879 20.6672 32.1209 20.8112C31.9531 20.9554 31.7643 21.069 31.5532 21.1527C31.3423 21.2364 31.0962 21.2783 30.8149 21.2783C30.6476 21.2783 30.4917 21.2647 30.3479 21.2383C30.2038 21.2112 30.0798 21.181 29.976 21.1477C29.8722 21.1143 29.7869 21.0825 29.7202 21.052C29.6532 21.0221 29.6163 21.0001 29.6094 20.9869L30.0116 19.9928C30.0515 20.0126 30.1403 20.0428 30.2775 20.0831C30.4147 20.1231 30.5537 20.1432 30.6944 20.1432C30.9021 20.1432 31.0793 20.0847 31.2268 19.9676C31.3741 19.8502 31.5182 19.6611 31.6585 19.3999L31.96 18.8273C31.8461 18.6401 31.7205 18.4308 31.5833 18.1995C31.4459 17.9685 31.3086 17.7325 31.1714 17.4914C31.0342 17.2504 30.8987 17.0129 30.7646 16.7784C30.6305 16.544 30.51 16.3312 30.4031 16.1406C30.296 15.9496 30.2058 15.7875 30.1318 15.6535C30.0582 15.5194 30.0116 15.4322 29.9912 15.392C29.9376 15.2853 29.8939 15.1862 29.8608 15.0958C29.8272 15.0056 29.8105 14.9036 29.8105 14.7893C29.8105 14.7091 29.8221 14.6305 29.8458 14.5533C29.869 14.4766 29.909 14.408 29.9663 14.3475C30.0229 14.2871 30.0969 14.2387 30.1871 14.2019C30.2775 14.1654 30.393 14.1465 30.5337 14.1465C30.7344 14.1465 30.8835 14.1666 30.9808 14.2069C31.0777 14.2472 31.1296 14.2707 31.1365 14.2774C31.1564 14.3309 31.218 14.468 31.3222 14.6893C31.426 14.9102 31.5497 15.171 31.6938 15.4725C31.8377 15.7737 31.995 16.0953 32.1658 16.4367C32.3367 16.7784 32.5025 17.0962 32.663 17.3911C32.7905 17.1098 32.9126 16.8272 33.0296 16.5424C33.1466 16.2576 33.2558 15.9949 33.3559 15.7539C33.4566 15.5128 33.5419 15.3036 33.6124 15.1261C33.6829 14.9486 33.7345 14.8231 33.7682 14.7494Z" fill="white"/>
<path fill-rule="evenodd" clip-rule="evenodd" d="M15.0501 25.9427C15.593 25.9427 15.8639 26.2038 15.8639 26.7262V29.9103C15.8437 29.9169 15.7648 29.9286 15.6279 29.9456C15.4904 29.962 15.3148 29.9809 15.1005 30.0007C14.8862 30.0208 14.6452 30.0394 14.3774 30.0561C14.1096 30.0728 13.838 30.0809 13.5636 30.0809C13.001 30.0809 12.484 30.0057 12.012 29.8553C11.5396 29.7043 11.1312 29.4783 10.7863 29.1772C10.4415 28.8757 10.1721 28.499 9.97794 28.0469C9.78374 27.595 9.68652 27.0676 9.68652 26.465C9.68652 25.9027 9.78035 25.3986 9.96785 24.9533C10.1551 24.508 10.4163 24.1279 10.7514 23.8132C11.0859 23.4985 11.4846 23.2579 11.9465 23.0904C12.4085 22.9228 12.9177 22.839 13.4734 22.839C13.7477 22.839 13.9922 22.8557 14.2065 22.8894C14.4208 22.9228 14.6116 22.9646 14.7792 23.0146C14.9463 23.0649 15.0886 23.1203 15.206 23.1807C15.323 23.2408 15.4221 23.2978 15.5024 23.3516C15.6295 23.4451 15.7264 23.5473 15.7934 23.6575C15.8604 23.7683 15.8941 23.8771 15.8941 23.9841C15.8941 24.098 15.8721 24.2 15.829 24.2906C15.7852 24.3809 15.7333 24.4612 15.6729 24.5316C15.6128 24.6018 15.5508 24.6587 15.4872 24.7025C15.4237 24.7456 15.3718 24.7777 15.3318 24.7975C15.278 24.744 15.2025 24.6723 15.1055 24.582C15.0083 24.4914 14.8847 24.4042 14.7339 24.3208C14.5835 24.2371 14.4023 24.165 14.1914 24.1046C13.9806 24.0445 13.7411 24.0143 13.4734 24.0143C13.1316 24.0143 12.8219 24.0694 12.5441 24.1798C12.2662 24.2906 12.0271 24.4514 11.826 24.6622C11.6249 24.8731 11.4695 25.1308 11.3591 25.4357C11.2486 25.7403 11.1932 26.0833 11.1932 26.465C11.1932 26.8603 11.2502 27.207 11.3641 27.5047C11.4776 27.8026 11.6401 28.0506 11.8512 28.2479C12.0621 28.4456 12.3163 28.5944 12.6146 28.6948C12.9123 28.7952 13.2458 28.8458 13.614 28.8458C13.8616 28.8458 14.0489 28.8392 14.1766 28.8254C14.3035 28.8121 14.3906 28.7989 14.4378 28.7854V27.2187C14.4378 27.2187 13.8538 27.2476 13.8551 26.5959C13.856 26.1207 14.0505 26.0031 14.1078 25.9433L15.0501 25.9427Z" fill="white"/>
<path fill-rule="evenodd" clip-rule="evenodd" d="M20.9654 27.3495C20.9654 27.1217 20.9368 26.9092 20.8802 26.7117C20.8232 26.514 20.736 26.3434 20.619 26.1994C20.5016 26.0556 20.3594 25.9416 20.192 25.858C20.0249 25.7739 19.8307 25.7321 19.6095 25.7321C19.3886 25.7321 19.1941 25.7739 19.0271 25.858C18.8596 25.9416 18.7171 26.0556 18.6001 26.1994C18.4827 26.3434 18.3958 26.514 18.3389 26.7117C18.2819 26.9092 18.2536 27.1217 18.2536 27.3495C18.2536 27.5773 18.2819 27.7897 18.3389 27.987C18.3958 28.1846 18.4827 28.3555 18.6001 28.4993C18.7171 28.6435 18.8596 28.7574 19.0271 28.841C19.1941 28.9248 19.3886 28.9666 19.6095 28.9666C19.8307 28.9666 20.0249 28.9248 20.192 28.841C20.3594 28.7574 20.5016 28.6435 20.619 28.4993C20.736 28.3555 20.8232 28.1846 20.8802 27.987C20.9368 27.7897 20.9654 27.5773 20.9654 27.3495ZM22.3918 27.3495C22.3918 27.7312 22.3264 28.0877 22.1959 28.4191C22.0653 28.7508 21.8777 29.0383 21.6335 29.2832C21.389 29.5273 21.096 29.7215 20.7546 29.8653C20.4132 30.0094 20.0312 30.0815 19.6095 30.0815C19.1879 30.0815 18.8061 30.0094 18.4644 29.8653C18.123 29.7215 17.83 29.5273 17.5855 29.2832C17.341 29.0383 17.1538 28.7508 17.0232 28.4191C16.8926 28.0877 16.8271 27.7312 16.8271 27.3495C16.8271 26.9675 16.8926 26.611 17.0232 26.28C17.1538 25.9483 17.341 25.6604 17.5855 25.4155C17.83 25.1713 18.123 24.9772 18.4644 24.8334C18.8061 24.6893 19.1879 24.6172 19.6095 24.6172C20.0312 24.6172 20.4132 24.6893 20.7546 24.8334C21.096 24.9772 21.389 25.1713 21.6335 25.4155C21.8777 25.6604 22.0653 25.9483 22.1959 26.28C22.3264 26.611 22.3918 26.9675 22.3918 27.3495Z" fill="white"/>
<path fill-rule="evenodd" clip-rule="evenodd" d="M23.4082 23.1097C23.4082 22.8819 23.4752 22.7246 23.6092 22.6374C23.7427 22.5509 23.9205 22.5068 24.1413 22.5068C24.2952 22.5068 24.4375 22.5238 24.5684 22.5571C24.699 22.5911 24.7808 22.6144 24.8144 22.6277V29.9098H23.4082V23.1097Z" fill="white"/>
<path fill-rule="evenodd" clip-rule="evenodd" d="M27.2747 27.3383C27.2747 27.5727 27.3065 27.7889 27.37 27.9862C27.4336 28.1838 27.5306 28.356 27.6614 28.5032C27.792 28.6508 27.9594 28.7644 28.1636 28.845C28.3679 28.9252 28.6105 28.9654 28.8918 28.9654C29.1058 28.9654 29.2801 28.9554 29.4142 28.9353C29.5483 28.9154 29.635 28.895 29.6754 28.8752V27.1174C29.6754 26.7357 29.5781 26.4176 29.3839 26.163C29.1899 25.9087 28.8984 25.7816 28.5101 25.7816C28.1215 25.7816 27.8188 25.9239 27.601 26.2083C27.3836 26.4928 27.2747 26.8697 27.2747 27.3383ZM31.0817 29.9098C31.0413 29.9161 30.9627 29.9277 30.8456 29.9448C30.7283 29.9615 30.5826 29.9765 30.4086 29.9901C30.2342 30.0035 30.0366 30.0168 29.8157 30.0303C29.5948 30.0439 29.3641 30.0502 29.1228 30.0502C28.0246 30.0502 27.2011 29.7975 26.652 29.2918C26.1026 28.7864 25.8281 28.0851 25.8281 27.1875C25.8281 26.7725 25.8917 26.4075 26.0192 26.0928C26.1463 25.7781 26.3187 25.5135 26.5362 25.2996C26.7539 25.0852 27.005 24.9225 27.2898 24.8121C27.5743 24.7017 27.8773 24.6463 28.1989 24.6463C28.4261 24.6463 28.6307 24.6749 28.8116 24.7319C28.9922 24.7885 29.1445 24.8555 29.2685 24.9323C29.3922 25.0097 29.4878 25.0817 29.5549 25.1485C29.6216 25.2158 29.6618 25.2592 29.6754 25.279V23.1097C29.6754 22.8819 29.7421 22.7246 29.8761 22.6374C30.0099 22.5505 30.1876 22.5068 30.4086 22.5068C30.5624 22.5068 30.7046 22.5235 30.8352 22.5571C30.9658 22.5909 31.048 22.6141 31.0817 22.6273V29.9098Z" fill="white"/>
<path fill-rule="evenodd" clip-rule="evenodd" d="M20.201 5.88642C20.2904 6.01256 20.477 6.01256 20.5664 5.88642C20.8177 5.53239 21.3521 5.00684 22.3093 5.00684C23.7537 5.00684 24.7169 6.21047 24.7169 7.41413C24.7169 10.2657 21.1183 12.1116 20.4801 12.4165C20.4185 12.4457 20.3486 12.4457 20.2873 12.4165C19.6488 12.1116 16.0508 10.2657 16.0508 7.41413C16.0508 6.21047 17.0137 5.00684 18.4581 5.00684C19.4153 5.00684 19.9496 5.53239 20.201 5.88642Z" fill="white"/>
</svg>
