<svg width="18" height="18" viewBox="0 0 18 18" fill="none" xmlns="http://www.w3.org/2000/svg">
<g clip-path="url(#clip0_433_97)">
<path d="M17.069 0H0.931035C0.416839 0 0 0.416839 0 0.931035C0 1.44523 0.416839 1.86207 0.931035 1.86207H17.069C17.5832 1.86207 18 1.44523 18 0.931035C18 0.416839 17.5832 0 17.069 0Z" fill="white"/>
<path d="M11.4828 7.44727H0.931035C0.416839 7.44727 0 7.8641 0 8.3783C0 8.8925 0.416839 9.30934 0.931035 9.30934H11.4828C11.997 9.30934 12.4138 8.8925 12.4138 8.3783C12.4138 7.8641 11.997 7.44727 11.4828 7.44727Z" fill="white"/>
<path d="M17.069 15.5176H0.931035C0.416839 15.5176 0 15.9344 0 16.4486C0 16.9628 0.416839 17.3796 0.931035 17.3796H17.069C17.5832 17.3796 18 16.9628 18 16.4486C18 15.9344 17.5832 15.5176 17.069 15.5176Z" fill="white"/>
</g>
<defs>
<clipPath id="clip0_433_97">
<rect width="18" height="18" fill="white"/>
</clipPath>
</defs>
</svg>
