<svg width="27" height="27" viewBox="0 0 27 27" fill="none" xmlns="http://www.w3.org/2000/svg">
<path d="M18.0011 19.1887L20.3261 16.8628C20.6393 16.5534 21.0354 16.3417 21.4666 16.2532C21.8977 16.1647 22.3453 16.2033 22.7549 16.3644L25.5884 17.4962C26.0023 17.6643 26.3573 17.9512 26.6085 18.3208C26.8597 18.6903 26.9959 19.126 27 19.5729V24.7646C26.9976 25.0687 26.9337 25.369 26.8122 25.6477C26.6907 25.9263 26.5141 26.1775 26.293 26.3861C26.0719 26.5947 25.8109 26.7563 25.5257 26.8613C25.2405 26.9663 24.937 27.0125 24.6335 26.9971C4.77792 25.7615 0.771511 8.94022 0.0138226 2.50246C-0.0213498 2.18632 0.0107863 1.86632 0.108117 1.56349C0.205447 1.26067 0.365766 0.981897 0.578526 0.74551C0.791286 0.509123 1.05167 0.320482 1.34254 0.191995C1.63341 0.0635092 1.94817 -0.00190969 2.26613 4.24363e-05H7.27933C7.72669 0.00136715 8.16342 0.136551 8.53335 0.388208C8.90329 0.639864 9.1895 0.996483 9.35519 1.4122L10.4865 4.24689C10.6529 4.65503 10.6953 5.10315 10.6085 5.53528C10.5218 5.96741 10.3097 6.36439 9.99871 6.67662L7.67375 9.00252C7.67375 9.00252 9.01267 18.0673 18.0011 19.1887Z" fill="white"/>
</svg>
