<svg width="100" height="24" viewBox="0 0 100 24" fill="none" xmlns="http://www.w3.org/2000/svg">
<path d="M39.4732 14.4989H39.4449L37.6037 7.07272H35.3873L33.5157 14.4202H33.4854L31.7814 7.07692H29.4121L32.2635 17.8647H34.6632L36.4583 10.5214H36.4866L38.3121 17.8647H40.6657L43.5632 7.07692H41.2399L39.4732 14.4989ZM50.7886 10.7071C50.5601 10.4165 50.2594 10.1899 49.9156 10.0514C49.4629 9.88666 48.983 9.81217 48.502 9.83315C48.0713 9.83944 47.6479 9.94541 47.2655 10.1437C46.8274 10.3619 46.4659 10.7071 46.2249 11.1331H46.1788V7.06643H44.0452V17.8542H46.1872V13.7655C46.1872 12.9702 46.3181 12.4005 46.5801 12.0511C46.8421 11.7018 47.2634 11.5318 47.8481 11.5318C48.3605 11.5318 48.721 11.6892 48.9191 12.0081C49.1171 12.3271 49.2198 12.8055 49.2198 13.4497V17.8616H51.3618V13.0563C51.3649 12.6125 51.3219 12.1697 51.2329 11.7353C51.1648 11.3618 51.0128 11.0114 50.7886 10.7071ZM59.6131 16.1105V12.0522C59.634 11.6483 59.5229 11.2475 59.2966 10.9117C59.086 10.6232 58.8062 10.3924 58.4824 10.2392C58.1344 10.0724 57.7624 9.96325 57.381 9.91394C56.9859 9.85938 56.5888 9.8321 56.1895 9.83105C55.7567 9.83105 55.325 9.87407 54.9006 9.9601C54.4929 10.0398 54.1021 10.1867 53.7447 10.3966C53.4062 10.5949 53.117 10.8687 52.9001 11.1961C52.6654 11.5738 52.5354 12.0071 52.5229 12.4519H54.6648C54.6669 12.2799 54.7057 12.1088 54.778 11.9525C54.8513 11.7962 54.9561 11.6577 55.0871 11.5454C55.3805 11.3492 55.7295 11.2527 56.0816 11.2726C56.2608 11.2726 56.44 11.2842 56.6181 11.3094C56.7722 11.3314 56.921 11.3828 57.054 11.4625C57.1819 11.5381 57.2867 11.6483 57.3569 11.7794C57.4397 11.9504 57.4785 12.1393 57.4701 12.3302C57.4805 12.4247 57.468 12.5191 57.4344 12.6072C57.4009 12.6953 57.3454 12.774 57.2741 12.837C57.1054 12.9671 56.9094 13.0573 56.7009 13.1014C56.4274 13.1675 56.1497 13.2137 55.8699 13.2367C55.5576 13.2672 55.2411 13.3091 54.9205 13.3595C54.5956 13.4046 54.2729 13.4676 53.9543 13.5473C53.6525 13.626 53.3664 13.7561 53.1076 13.9313C52.8561 14.117 52.6528 14.3594 52.5145 14.6395C52.3468 14.9784 52.2672 15.354 52.2808 15.7317C52.2724 16.0895 52.3416 16.4452 52.4841 16.7736C52.613 17.0568 52.8068 17.3045 53.0489 17.4986C53.3004 17.6948 53.5875 17.8385 53.8956 17.9224C54.2351 18.0148 54.5852 18.0599 54.9362 18.0578C55.4172 18.0567 55.8951 17.9822 56.354 17.8395C56.813 17.7011 57.229 17.4461 57.5602 17.0988C57.5707 17.2289 57.5885 17.358 57.6126 17.4849C57.6388 17.6098 57.6713 17.7325 57.7111 17.8542H59.8928C59.7702 17.6308 59.6958 17.3831 59.6749 17.1292C59.633 16.7935 59.612 16.4557 59.612 16.1178V16.1105H59.6131ZM57.4732 14.8242C57.4701 14.9868 57.4575 15.1484 57.4344 15.3089C57.4072 15.5187 57.338 15.7223 57.2311 15.9048C57.1075 16.1157 56.9304 16.2899 56.7187 16.4116C56.4169 16.5721 56.0784 16.6477 55.7368 16.6298C55.5702 16.6298 55.4036 16.6151 55.2391 16.5837C55.0892 16.5574 54.9456 16.5039 54.8157 16.4242C54.6952 16.3486 54.5967 16.2427 54.5296 16.1157C54.4552 15.9657 54.4196 15.7989 54.4248 15.631C54.4185 15.4589 54.4542 15.2879 54.5296 15.1326C54.5977 15.0046 54.6931 14.8934 54.8084 14.8074C54.932 14.7182 55.0703 14.6489 55.216 14.6038C55.3711 14.5524 55.5304 14.5126 55.6918 14.4842C55.8615 14.4538 56.0323 14.4276 56.2021 14.4076C56.3719 14.3877 56.5385 14.3615 56.6925 14.331C56.8403 14.3038 56.9859 14.266 57.1284 14.2177C57.2531 14.1789 57.3695 14.1149 57.469 14.0299L57.4732 14.8242ZM63.6119 7.69489H61.47V10.0514H60.1716V11.4867H61.47V16.0958C61.4553 16.4242 61.5234 16.7505 61.6659 17.0464C61.7885 17.2793 61.973 17.4744 62.2004 17.6077C62.4435 17.7441 62.7096 17.8332 62.9853 17.8721C63.2975 17.9172 63.6119 17.9403 63.9273 17.9403C64.1453 17.9403 64.3633 17.9403 64.5823 17.9245C64.7845 17.9161 64.9847 17.8952 65.1848 17.8637V16.2018C65.08 16.2227 64.9752 16.2385 64.8684 16.2479C64.7573 16.2479 64.6504 16.2637 64.5215 16.2637C64.1589 16.2637 63.9168 16.2028 63.7974 16.0821C63.6769 15.9625 63.6161 15.7191 63.6161 15.3572V11.4804H65.1848V10.0545H63.6161L63.6119 7.69489ZM72.4668 14.4244C72.3285 14.18 72.1378 13.9691 71.9083 13.8064C71.6651 13.6344 71.399 13.498 71.116 13.4046C70.8163 13.3028 70.5124 13.2178 70.2043 13.1486C69.9036 13.0783 69.607 13.0133 69.3147 12.9524C69.0527 12.8989 68.7928 12.8317 68.5382 12.7489C68.337 12.687 68.1494 12.5852 67.9859 12.4519C67.9167 12.3963 67.8602 12.325 67.8224 12.2431C67.7847 12.1624 67.7658 12.0732 67.7679 11.984C67.7606 11.8455 67.8025 11.7091 67.8874 11.6C67.967 11.5056 68.0676 11.43 68.1819 11.3818C68.3045 11.3293 68.4334 11.2968 68.5654 11.2831C68.7069 11.2705 68.8379 11.2611 68.9584 11.2611C69.3031 11.2538 69.6448 11.3293 69.9549 11.4793C70.1006 11.5643 70.2211 11.6871 70.3028 11.835C70.3846 11.9829 70.4265 12.1498 70.4213 12.3187H72.4563C72.4343 11.8938 72.3075 11.4814 72.0875 11.1174C71.8883 10.8089 71.6232 10.5487 71.3109 10.3546C70.9829 10.1563 70.6225 10.0189 70.2463 9.94646C69.8418 9.86567 69.4299 9.82476 69.0181 9.8258C68.6031 9.82476 68.1892 9.86253 67.7816 9.93912C67.398 10.0063 67.0292 10.1395 66.6907 10.3326C66.3711 10.5162 66.1028 10.7785 65.9121 11.0953C65.7025 11.473 65.5998 11.9022 65.6176 12.3334C65.6082 12.6387 65.6836 12.9419 65.8356 13.2074C65.9739 13.4434 66.1646 13.6449 66.392 13.797C66.6372 13.9596 66.9034 14.0866 67.1843 14.1747C67.4808 14.2712 67.7868 14.3541 68.0959 14.4234C68.7027 14.5409 69.301 14.7025 69.8847 14.906C70.3123 15.0676 70.5261 15.3089 70.5261 15.631C70.5334 15.7999 70.4862 15.9667 70.3909 16.1073C70.3018 16.2322 70.1855 16.336 70.0503 16.4084C69.9099 16.4871 69.7569 16.5438 69.5986 16.5742C69.4425 16.6099 69.2832 16.6277 69.1229 16.6288C68.9165 16.6288 68.7121 16.6036 68.512 16.5522C68.3254 16.506 68.1494 16.4263 67.9901 16.3182C67.8382 16.2112 67.7124 16.0717 67.6212 15.9101C67.5217 15.7275 67.4714 15.5219 67.4777 15.3141H65.451C65.4458 15.7433 65.5526 16.1671 65.7601 16.5427C65.9676 16.9184 66.2684 17.2342 66.6341 17.4587C66.9893 17.6769 67.3813 17.8312 67.7899 17.913C68.2259 18.0032 68.6712 18.0483 69.1166 18.0483C69.5557 18.0483 69.9948 18.0053 70.4255 17.9193C70.8289 17.8458 71.2156 17.6979 71.5645 17.4828C71.9229 17.2593 72.2163 16.9446 72.4123 16.57C72.6083 16.1955 72.7015 15.7758 72.6816 15.353C72.6931 15.0309 72.6187 14.7119 72.4657 14.4286V14.4244H72.4668ZM76.7203 7.05908L72.647 17.8469H75.031L75.8757 15.4442H79.9154L80.7296 17.8469H83.188L79.1609 7.05908H76.7203ZM76.5023 13.6774L77.9055 9.71774H77.9359L79.2929 13.6774H76.5023ZM90.5842 11.0995C90.2929 10.7155 89.9209 10.4008 89.4933 10.1783C88.9977 9.93492 88.4517 9.81636 87.9005 9.83315C87.4415 9.8279 86.9878 9.92548 86.5718 10.1196C86.1578 10.3231 85.812 10.6431 85.5773 11.0408H85.5469V10.0514H83.5097V20.5968H85.6538V16.8879H85.6821C85.9325 17.2635 86.2794 17.5657 86.686 17.7619C87.103 17.9613 87.5589 18.062 88.021 18.0567C88.5387 18.0651 89.0522 17.9497 89.5153 17.7178C89.9345 17.5038 90.3002 17.1995 90.5863 16.8271C90.8787 16.4431 91.0967 16.0077 91.2276 15.5429C91.3712 15.0518 91.4446 14.543 91.4456 14.031C91.4446 13.4917 91.3712 12.9555 91.2276 12.4362C91.1008 11.9536 90.8829 11.5003 90.5842 11.0995ZM89.2146 14.8913C89.1622 15.1725 89.0564 15.4411 88.9044 15.6845C88.7514 15.93 88.5355 16.1294 88.2788 16.2637C88.0231 16.398 87.736 16.462 87.4468 16.4483C87.1418 16.4546 86.84 16.3791 86.5738 16.2301C86.3391 16.0958 86.14 15.9059 85.9933 15.6772C85.8403 15.4348 85.7334 15.1651 85.6768 14.884C85.616 14.587 85.5857 14.2849 85.5878 13.9817C85.5857 13.6669 85.616 13.3532 85.6768 13.0447C85.7303 12.7604 85.8351 12.4887 85.987 12.2431C86.1306 12.0113 86.3276 11.8172 86.5602 11.6776C86.8253 11.5255 87.1271 11.45 87.4331 11.4594C87.7391 11.4479 88.0409 11.5244 88.3061 11.6776C88.5408 11.8214 88.7399 12.0176 88.8866 12.2494C89.0417 12.4971 89.1517 12.7709 89.2115 13.0573C89.2722 13.3616 89.3005 13.6711 89.2963 13.9817C89.2984 14.288 89.2712 14.5923 89.2146 14.8913ZM99.7682 12.4362C99.6382 11.9525 99.4161 11.4982 99.1132 11.0995C98.8219 10.7155 98.4499 10.4008 98.0223 10.1783C97.5298 9.93492 96.9859 9.81636 96.4368 9.83105C95.9789 9.82581 95.5251 9.92338 95.1102 10.1175C94.6962 10.321 94.3504 10.641 94.1157 11.0387H94.0958V10.0514H92.0586V20.5968H94.2006V16.8879H94.231C94.4814 17.2635 94.8272 17.5657 95.2338 17.7619C95.6509 17.9602 96.1078 18.0609 96.5689 18.0567C97.0886 18.0683 97.6032 17.955 98.0695 17.7252C98.4887 17.5111 98.8544 17.2069 99.1405 16.8344C99.4328 16.4504 99.6508 16.015 99.7818 15.5502C99.9264 15.0592 99.9997 14.5503 99.9997 14.0383C99.9977 13.4959 99.9191 12.9566 99.7682 12.4362ZM97.7467 14.8913C97.6954 15.1725 97.5906 15.4421 97.4386 15.6845C97.1829 16.0444 96.8057 16.2983 96.3771 16.4001C95.9475 16.5018 95.4968 16.4441 95.107 16.2364C94.8723 16.1021 94.6732 15.9122 94.5275 15.6835C94.3735 15.4411 94.2656 15.1725 94.209 14.8903C94.144 14.5881 94.1115 14.2796 94.1126 13.9712C94.1115 13.6564 94.1419 13.3427 94.2016 13.0342C94.2551 12.7499 94.3599 12.4782 94.5118 12.2327C94.6554 12.0018 94.8524 11.8077 95.085 11.6671C95.3501 11.515 95.653 11.4395 95.9579 11.4489C96.2639 11.4384 96.5668 11.514 96.8308 11.6671C97.0656 11.8109 97.2636 12.0071 97.4114 12.2389C97.5665 12.4866 97.6765 12.7604 97.7363 13.0468C97.8023 13.35 97.8348 13.6606 97.8348 13.9712C97.8379 14.2796 97.8096 14.5881 97.752 14.8903H97.7467V14.8913Z" fill="#25D366"/>
<path fill-rule="evenodd" clip-rule="evenodd" d="M20.1923 3.40809C18.1688 1.40518 15.4892 0.202806 12.6494 0.0233942C9.80954 -0.156018 7.00113 0.701173 4.74287 2.43444C2.48461 4.16771 0.929502 6.66059 0.363627 9.45355C-0.2012 12.2455 0.26198 15.1486 1.66933 17.6257L0 23.731L6.23929 22.0932C7.96416 23.0354 9.89862 23.5285 11.8635 23.5285C14.1898 23.5243 16.4628 22.8308 18.3951 21.535C20.3285 20.2393 21.8344 18.4 22.7251 16.2481C23.6158 14.0962 23.8495 11.7292 23.3979 9.4441C22.9462 7.15896 21.8291 5.05952 20.1881 3.41019H20.1923V3.40809ZM11.8666 21.5371C10.1145 21.5371 8.39591 21.066 6.88795 20.1721L6.53061 19.9539L2.82204 20.9254L3.81232 17.3194L3.58073 16.95C2.42802 15.1108 1.91769 12.9411 2.13146 10.7797C2.34419 8.61944 3.2695 6.5903 4.75964 5.01336C6.24977 3.43537 8.2209 2.39877 10.3639 2.06512C12.5069 1.73148 14.6991 2.12073 16.5979 3.17097C18.4957 4.22122 19.9921 5.87265 20.8504 7.86717C21.7086 9.86063 21.8805 12.0839 21.3398 14.1865C20.799 16.289 19.5751 18.1524 17.8617 19.4828C16.1484 20.8132 14.041 21.5361 11.8729 21.5371H11.8666ZM17.2225 14.2022C16.9301 14.0532 15.4777 13.3419 15.2136 13.2432C14.9496 13.1446 14.7494 13.0974 14.5587 13.3922C14.369 13.687 13.8 14.3491 13.6271 14.5453C13.4552 14.7415 13.2844 14.7635 12.99 14.6198C12.1244 14.2767 11.3259 13.7857 10.6269 13.1698C9.98455 12.5738 9.43334 11.8866 8.99112 11.1302C8.82136 10.8353 8.97331 10.6759 9.12001 10.53C9.26567 10.3842 9.41448 10.1869 9.55595 10.0149C9.67646 9.86588 9.77496 9.70011 9.84832 9.52384C9.88814 9.44305 9.90595 9.35282 9.90176 9.26259C9.89757 9.17236 9.87137 9.08528 9.82421 9.00764C9.75191 8.85865 9.16927 7.41077 8.91882 6.82322C8.66836 6.23567 8.43677 6.32695 8.26491 6.31856C8.09306 6.31016 7.89814 6.31856 7.70218 6.31856C7.55338 6.32275 7.40667 6.35738 7.27149 6.42138C7.13631 6.48538 7.01685 6.57561 6.91834 6.68787C6.5872 6.99948 6.32313 7.37614 6.14393 7.79477C5.96474 8.2134 5.87462 8.66455 5.87776 9.11885C5.87776 10.5688 6.93092 11.958 7.07763 12.1636C7.22329 12.3693 9.1525 15.3353 12.095 16.6111C12.6421 16.8483 13.2016 17.055 13.7707 17.2312C14.3711 17.4138 15.0051 17.4526 15.6223 17.3466C16.1872 17.2616 17.3671 16.6342 17.6071 15.947C17.8471 15.2587 17.8513 14.6691 17.7789 14.5474C17.7087 14.4225 17.5264 14.3491 17.2225 14.2022Z" fill="#25D366"/>
</svg>
