<svg width="143" height="25" viewBox="0 0 143 25" fill="none" xmlns="http://www.w3.org/2000/svg">
<g clip-path="url(#clip0_1002_322)">
<path d="M20.4048 3.95652C20.4048 4.25871 20.3479 4.53389 20.2349 4.78231C20.1217 5.03099 19.9864 5.2529 19.8299 5.44805C19.6731 5.64371 19.5113 5.80806 19.3466 5.94111C19.1808 6.07466 19.0458 6.16706 18.9408 6.22058C18.8013 6.0787 18.6056 5.89238 18.3532 5.66138C18.1003 5.43114 17.7735 5.20872 17.373 4.99514C16.9719 4.78231 16.497 4.596 15.9483 4.43619C15.3994 4.27613 14.7761 4.19635 14.0795 4.19635C13.2435 4.19635 12.4849 4.34733 11.8057 4.64902C11.1259 4.95146 10.5423 5.37736 10.0545 5.92798C9.56629 6.4786 9.18777 7.14004 8.91775 7.91207C8.64724 8.6851 8.51248 9.55054 8.51248 10.5094C8.51248 12.552 9.02204 14.1057 10.0417 15.1708C11.0608 16.2364 12.4245 16.7696 14.1323 16.7696C14.8465 16.7696 15.4866 16.7025 16.0531 16.5694C16.6194 16.4364 17.1027 16.29 17.504 16.1304C17.9046 15.9706 18.2271 15.811 18.4711 15.6507C18.7151 15.4909 18.8717 15.3846 18.9413 15.3314L20.6144 18.2082C20.5267 18.2975 20.3176 18.444 19.9869 18.6477C19.6557 18.8519 19.2029 19.0648 18.6277 19.2867C18.0527 19.5096 17.3688 19.7042 16.5761 19.8731C15.7828 20.041 14.8811 20.1264 13.8707 20.1264C12.564 20.1264 11.3437 19.9221 10.2114 19.5131C9.07852 19.1049 8.09829 18.4924 7.2709 17.6755C6.44327 16.8583 5.78978 15.8552 5.31044 14.6651C4.8311 13.4755 4.5918 12.0903 4.5918 10.5096C4.5918 9.01809 4.83134 7.68208 5.31044 6.50081C5.78978 5.32006 6.45193 4.31652 7.29716 3.49047C8.14238 2.66468 9.1355 2.03024 10.2772 1.58642C11.4182 1.14234 12.6601 0.919922 14.0015 0.919922C15.4303 0.919922 16.5803 1.0714 17.4517 1.37284C18.323 1.67478 18.9676 1.97672 19.386 2.27892C19.7169 2.52759 19.9693 2.79823 20.1437 3.09108C20.3176 3.38419 20.4053 3.673 20.4053 3.95702L20.4048 3.95652Z" fill="white"/>
<path d="M30.9121 13.7055C30.8596 13.688 30.7553 13.6699 30.5985 13.6525C30.4415 13.635 30.25 13.6171 30.0235 13.5992C29.7969 13.5813 29.5482 13.5684 29.2787 13.559C29.0081 13.5502 28.7339 13.5457 28.4552 13.5457C27.8107 13.5457 27.2875 13.5989 26.8869 13.7055C26.4858 13.8123 26.1767 13.9587 25.9592 14.145C25.7409 14.3316 25.5933 14.5537 25.5145 14.8107C25.436 15.0685 25.3971 15.3396 25.3971 15.6237C25.3971 15.8728 25.432 16.1122 25.5014 16.3429C25.571 16.5734 25.7147 16.782 25.9332 16.9685C26.1504 17.1553 26.4554 17.3063 26.8475 17.4214C27.2399 17.5371 27.7495 17.5946 28.3769 17.5946C29.0386 17.5946 29.5876 17.5636 30.0235 17.5015C30.4588 17.4394 30.7553 17.3906 30.9121 17.355V13.7055ZM34.5189 19.5658C34.4669 19.5838 34.2749 19.6191 33.944 19.6726C33.6128 19.7256 33.1728 19.7789 32.6244 19.8324C32.0752 19.8857 31.4259 19.9347 30.6768 19.9789C29.9279 20.023 29.109 20.0458 28.2204 20.0458C26.9303 20.0458 25.872 19.9347 25.0443 19.7128C24.2162 19.4903 23.5588 19.1844 23.0708 18.7936C22.583 18.403 22.2473 17.9455 22.0648 17.4217C21.8812 16.8983 21.79 16.3253 21.79 15.7037C21.79 14.9403 21.903 14.2743 22.1297 13.7057C22.3558 13.1377 22.722 12.6714 23.2273 12.3073C23.7329 11.9435 24.3814 11.6724 25.1747 11.4952C25.9676 11.3174 26.93 11.2286 28.0628 11.2286C28.8469 11.2286 29.5001 11.2505 30.0233 11.2955C30.5457 11.3397 30.8507 11.371 30.9379 11.3884V10.9625C30.9379 10.1279 30.6587 9.48786 30.1018 9.04429C29.544 8.60047 28.6811 8.37855 27.5141 8.37855C26.9914 8.37855 26.5294 8.42728 26.1286 8.52473C25.7276 8.62243 25.3837 8.73806 25.0961 8.87085C24.8088 9.0044 24.5648 9.13745 24.3644 9.2705C24.1642 9.40354 24.0029 9.50579 23.8811 9.57673C23.6366 9.4351 23.4191 9.20839 23.2273 8.89787C23.0353 8.58709 22.94 8.23667 22.94 7.84586C22.94 7.45505 23.0616 7.12206 23.3058 6.84688C23.5498 6.57094 23.8763 6.34978 24.2861 6.18013C24.6948 6.01224 25.1657 5.89207 25.6978 5.82062C26.229 5.75019 26.7732 5.71484 27.3311 5.71484C28.3935 5.71484 29.3651 5.80775 30.2455 5.99432C31.1252 6.18038 31.8829 6.50075 32.5193 6.95342C33.155 7.40582 33.6472 8.00996 33.996 8.76431C34.3443 9.51917 34.5187 10.4649 34.5187 11.602V19.5661L34.5189 19.5658Z" fill="white"/>
<path d="M46.8819 19.6726V12.0278C46.8819 9.82536 45.8796 8.72438 43.8763 8.72438C43.1445 8.72438 42.578 8.78699 42.1769 8.91094C41.7764 9.03566 41.489 9.14195 41.3146 9.23031V19.6726H37.6553V6.91297C37.7249 6.87788 37.934 6.78901 38.2828 6.64688C38.631 6.50474 39.0802 6.35832 39.6289 6.20735C40.1776 6.05637 40.8224 5.92333 41.5631 5.8077C42.3035 5.69233 43.1094 5.63477 43.9811 5.63477C44.9564 5.63477 45.8499 5.75898 46.6597 6.00714C47.47 6.25607 48.1626 6.61987 48.7376 7.09954C49.313 7.57871 49.7569 8.16997 50.0711 8.87106C50.3844 9.57315 50.5412 10.3765 50.5412 11.2813V19.6728H46.8819V19.6726Z" fill="white"/>
<path d="M56.7622 12.8524C56.7622 13.4742 56.8447 14.0471 57.0101 14.5704C57.1759 15.0948 57.429 15.552 57.7687 15.9423C58.1078 16.3336 58.5438 16.6353 59.0754 16.8484C59.6067 17.0615 60.2384 17.1677 60.9702 17.1677C61.5278 17.1677 61.9807 17.1412 62.3295 17.0882C62.6778 17.035 62.9044 16.9814 63.0094 16.9284V12.267C63.0094 11.2546 62.7565 10.4111 62.2509 9.73581C61.7453 9.06099 60.9873 8.72395 59.9771 8.72395C58.9666 8.72395 58.1774 9.10138 57.6114 9.85599C57.0448 10.6108 56.7622 11.6093 56.7622 12.8524ZM66.6683 19.6716C66.564 19.6891 66.3589 19.7204 66.0544 19.7651C65.749 19.8092 65.37 19.8489 64.9174 19.8852C64.4638 19.9206 63.9498 19.9557 63.3753 19.991C62.8004 20.0269 62.1992 20.0448 61.5717 20.0448C58.7137 20.0448 56.5702 19.374 55.1418 18.0334C53.7127 16.6929 52.998 14.8325 52.998 12.453C52.998 11.3518 53.1638 10.3844 53.495 9.54925C53.8257 8.71461 54.2746 8.01353 54.8411 7.44499C55.4071 6.8767 56.0601 6.446 56.8011 6.15315C57.542 5.86004 58.3305 5.71362 59.1668 5.71362C59.7591 5.71362 60.2912 5.78961 60.7614 5.93957C61.232 6.09104 61.6277 6.26878 61.9507 6.47251C62.2727 6.67675 62.5212 6.86786 62.6956 7.04534C62.87 7.22282 62.9738 7.33795 63.0094 7.39147V1.63789C63.0094 1.03426 63.1829 0.616944 63.5316 0.385186C63.8802 0.154942 64.3419 0.0390625 64.9174 0.0390625C65.3177 0.0390625 65.6881 0.083748 66.0282 0.172614C66.3678 0.261985 66.5811 0.32409 66.6683 0.359182V19.6714V19.6716Z" fill="white"/>
<path d="M78.2985 7.68622C78.49 7.22497 78.7253 6.84249 79.0043 6.5408C79.2829 6.23886 79.7536 6.08789 80.4158 6.08789C80.9731 6.08789 81.4178 6.19418 81.7488 6.40776C82.08 6.62033 82.2801 6.77181 82.35 6.86017C82.2279 7.28657 82.0537 7.79705 81.8273 8.39184C81.6006 8.98765 81.3477 9.61729 81.0688 10.2835C80.7901 10.9493 80.5072 11.6198 80.2196 12.2944C79.9322 12.9697 79.6662 13.5913 79.4222 14.1593C78.9168 15.331 78.3986 16.4675 77.867 17.5688C77.3354 18.67 76.7473 19.7887 76.1029 20.9252C75.8062 21.4579 75.4928 21.9684 75.1621 22.4569C74.8304 22.9454 74.4469 23.3799 74.0117 23.7624C73.5762 24.1439 73.0842 24.4456 72.535 24.668C71.9863 24.8899 71.3457 25.001 70.6139 25.001C70.1779 25.001 69.7729 24.9654 69.3984 24.8947C69.0236 24.8232 68.7015 24.7435 68.4318 24.6548C68.1612 24.566 67.9388 24.4814 67.7651 24.4016C67.5912 24.3221 67.4949 24.264 67.4775 24.2287L68.5232 21.5917C68.6275 21.6445 68.8588 21.7248 69.216 21.8316C69.573 21.9379 69.9342 21.9909 70.3006 21.9909C70.8404 21.9909 71.3026 21.8354 71.6861 21.5256C72.0686 21.2143 72.4441 20.7127 72.81 20.0202L73.5938 18.5019C73.2975 18.0048 72.9708 17.4496 72.614 16.8369C72.2568 16.2242 71.8994 15.5981 71.5421 14.9591C71.1847 14.3196 70.8319 13.6895 70.4836 13.0674C70.1351 12.4459 69.821 11.8821 69.5428 11.3762C69.2636 10.8702 69.0288 10.4398 68.8368 10.0843C68.6448 9.72938 68.5234 9.49838 68.4709 9.39159C68.3314 9.10757 68.2185 8.84552 68.1313 8.60568C68.0443 8.36584 68.0007 8.09546 68.0007 7.79301C68.0007 7.57993 68.0309 7.3714 68.0921 7.16741C68.1531 6.96317 68.2579 6.78064 68.406 6.62083C68.5536 6.46103 68.7456 6.33278 68.981 6.23508C69.2163 6.13737 69.5168 6.0884 69.8827 6.0884C70.4051 6.0884 70.7928 6.14166 71.0457 6.2482C71.2981 6.35449 71.4334 6.4171 71.4505 6.43477C71.5033 6.57691 71.664 6.94121 71.9343 7.52717C72.2043 8.11313 72.5266 8.80563 72.9014 9.60517C73.2757 10.4034 73.6854 11.2565 74.1301 12.1618C74.5747 13.0674 75.0055 13.9111 75.4239 14.6925C75.7546 13.9467 76.073 13.1967 76.3779 12.4418C76.6829 11.6867 76.966 10.9899 77.2271 10.3504C77.4892 9.71095 77.7109 9.15629 77.8937 8.68546C78.0768 8.21512 78.2115 7.88213 78.2987 7.68698L78.2985 7.68622Z" fill="white"/>
<path d="M101.285 9.11013C102.696 9.11013 103.402 9.80263 103.402 11.1876V19.6319C103.349 19.6493 103.145 19.6806 102.788 19.7253C102.43 19.7695 101.973 19.8185 101.416 19.8713C100.858 19.925 100.231 19.9738 99.5336 20.0179C98.8365 20.0621 98.131 20.0846 97.4168 20.0846C95.9528 20.0846 94.6067 19.8849 93.378 19.4852C92.1493 19.0853 91.0863 18.4863 90.1893 17.6872C89.2918 16.8882 88.5903 15.8889 88.0852 14.6903C87.5796 13.4916 87.3271 12.0929 87.3271 10.4951C87.3271 9.00308 87.5712 7.66731 88.0589 6.48605C88.5467 5.3053 89.2262 4.29747 90.0974 3.46233C90.9687 2.6277 92.0054 1.98872 93.2078 1.5449C94.4102 1.10107 95.7343 0.878906 97.1808 0.878906C97.8954 0.878906 98.5311 0.923592 99.0887 1.01246C99.6466 1.10107 100.143 1.21165 100.579 1.3452C101.014 1.47774 101.384 1.62467 101.69 1.78448C101.994 1.94454 102.252 2.09551 102.461 2.2374C102.791 2.48607 103.044 2.75721 103.219 3.05007C103.393 3.34317 103.48 3.63199 103.48 3.9155C103.48 4.21795 103.423 4.48808 103.31 4.72792C103.196 4.96776 103.062 5.18058 102.905 5.3674C102.748 5.55397 102.587 5.70545 102.421 5.82057C102.256 5.93569 102.121 6.02026 102.016 6.07328C101.877 5.93165 101.681 5.74054 101.428 5.50095C101.175 5.26111 100.853 5.03062 100.461 4.8082C100.069 4.58629 99.5988 4.39543 99.0498 4.23562C98.5006 4.07531 97.8776 3.99578 97.1805 3.99578C96.2919 3.99578 95.4856 4.14196 94.763 4.43532C94.0399 4.72792 93.4169 5.15432 92.8944 5.71352C92.3717 6.27298 91.9667 6.95689 91.6789 7.76451C91.3915 8.57289 91.2476 9.48301 91.2476 10.4951C91.2476 11.5431 91.3957 12.4623 91.692 13.2522C91.988 14.0422 92.4106 14.6996 92.9596 15.2232C93.5088 15.7471 94.1707 16.1419 94.9463 16.4085C95.7214 16.6749 96.5887 16.8084 97.5474 16.8084C98.1915 16.8084 98.6795 16.791 99.0109 16.7546C99.3416 16.7195 99.5683 16.6842 99.6904 16.6483V12.4931C99.6904 12.4931 98.1714 12.5706 98.1749 10.8423C98.1771 9.58172 98.6832 9.26968 98.8321 9.11088L101.285 9.10987L101.285 9.11013Z" fill="white"/>
<path d="M116.68 12.8391C116.68 12.2352 116.605 11.6717 116.458 11.1474C116.309 10.624 116.083 10.1711 115.778 9.78888C115.473 9.40716 115.102 9.10573 114.667 8.88331C114.232 8.6614 113.726 8.55006 113.151 8.55006C112.577 8.55006 112.07 8.6614 111.635 8.88331C111.2 9.10573 110.829 9.40716 110.524 9.78888C110.219 10.1709 109.993 10.624 109.845 11.1474C109.697 11.6717 109.622 12.2352 109.622 12.8391C109.622 13.4432 109.697 14.007 109.845 14.5303C109.993 15.0542 110.219 15.5071 110.524 15.8888C110.829 16.2713 111.2 16.573 111.635 16.7947C112.071 17.0166 112.577 17.1277 113.151 17.1277C113.726 17.1277 114.232 17.0168 114.667 16.7947C115.102 16.5728 115.473 16.2713 115.778 15.8888C116.083 15.5071 116.309 15.0542 116.458 14.5303C116.605 14.007 116.68 13.443 116.68 12.8391ZM120.391 12.8391C120.391 13.8515 120.221 14.7964 119.882 15.6758C119.542 16.5551 119.054 17.3183 118.418 17.9663C117.782 18.6149 117.02 19.1302 116.131 19.5114C115.242 19.8934 114.249 20.0845 113.151 20.0845C112.053 20.0845 111.061 19.8934 110.172 19.5114C109.283 19.1302 108.521 18.6149 107.885 17.9663C107.248 17.3183 106.761 16.5548 106.421 15.6758C106.081 14.7964 105.911 13.8515 105.911 12.8391C105.911 11.8262 106.081 10.8813 106.421 10.002C106.761 9.12315 107.248 8.35945 107.885 7.71139C108.521 7.06332 109.283 6.54805 110.172 6.16658C111.061 5.78486 112.054 5.59375 113.151 5.59375C114.249 5.59375 115.242 5.78486 116.131 6.16658C117.02 6.54805 117.782 7.06332 118.418 7.71139C119.054 8.35945 119.542 9.1234 119.882 10.002C120.221 10.8813 120.391 11.8265 120.391 12.8391Z" fill="white"/>
<path d="M123.032 1.59833C123.032 0.994694 123.205 0.577377 123.554 0.346123C123.902 0.115879 124.364 0 124.939 0C125.34 0 125.711 0.0446855 126.05 0.133552C126.39 0.222418 126.603 0.284523 126.691 0.32012V19.6323H123.031V1.59858L123.032 1.59833Z" fill="white"/>
<path d="M133.094 12.8134C133.094 13.4349 133.176 14.008 133.342 14.5314C133.508 15.0552 133.761 15.5129 134.1 15.9032C134.44 16.294 134.876 16.5955 135.407 16.8091C135.939 17.0219 136.57 17.1287 137.302 17.1287C137.86 17.1287 138.312 17.1019 138.661 17.0487C139.009 16.9956 139.236 16.9424 139.341 16.8888V12.2272C139.341 11.2148 139.088 10.3716 138.583 9.6965C138.077 9.02167 137.319 8.68413 136.309 8.68413C135.298 8.68413 134.509 9.06156 133.943 9.81617C133.376 10.5713 133.094 11.5703 133.094 12.8131L133.094 12.8134ZM143 19.6326C142.896 19.65 142.691 19.6813 142.386 19.726C142.081 19.7702 141.702 19.8098 141.249 19.8457C140.796 19.8813 140.282 19.9166 139.707 19.9519C139.132 19.9875 138.531 20.0057 137.903 20.0057C135.045 20.0057 132.902 19.3349 131.474 17.9941C130.045 16.6536 129.33 14.7937 129.33 12.4137C129.33 11.313 129.496 10.3448 129.827 9.51018C130.158 8.67555 130.607 7.97447 131.173 7.40593C131.739 6.83789 132.393 6.40644 133.134 6.11358C133.874 5.82098 134.663 5.67455 135.499 5.67455C136.091 5.67455 136.623 5.75004 137.094 5.90051C137.564 6.05148 137.96 6.22971 138.282 6.43345C138.605 6.63744 138.853 6.82855 139.027 7.00578C139.202 7.18401 139.306 7.29888 139.341 7.35241V1.59833C139.341 0.995199 139.515 0.577125 139.864 0.346123C140.212 0.115879 140.674 0 141.249 0C141.65 0 142.02 0.0446855 142.36 0.133552C142.7 0.222165 142.913 0.284523 143 0.319867V19.6321V19.6326Z" fill="white"/>
</g>
<defs>
<clipPath id="clip0_1002_322">
<rect width="143" height="25" fill="white"/>
</clipPath>
</defs>
</svg>
