<svg width="99" height="101" viewBox="0 0 99 101" fill="none" xmlns="http://www.w3.org/2000/svg">
<g clip-path="url(#clip0_391_223)">
<path fill-rule="evenodd" clip-rule="evenodd" d="M15.7948 85.2232C7.0729 85.2232 0 78.1428 0 69.4106V15.8131C0 7.08095 7.07275 0 15.7948 0H83.2056C91.9277 0 99 7.08125 99 15.8131V69.4106C99 78.1428 91.9271 85.2232 83.2052 85.2232H68.824C66.6106 85.2232 64.5307 86.2834 63.2284 88.0752L56.3812 97.4951C52.9843 102.168 46.0162 102.168 42.6191 97.4951L35.7717 88.0752C34.4693 86.2833 32.3897 85.2232 30.1764 85.2232H15.795H15.7948ZM15.8771 83.3577C8.15836 83.3577 1.89975 77.0926 1.89975 69.3644V15.8979C1.89975 8.16991 8.15821 1.90419 15.8771 1.90419H83.1233C90.8422 1.90419 97.1003 8.17021 97.1003 15.8979V69.3644C97.1003 77.0926 90.8416 83.3577 83.1229 83.3577H68.7767C65.9998 83.3577 63.3906 84.6875 61.7567 86.9354L54.9261 96.3323C52.2469 100.018 46.7533 100.018 44.074 96.3323L37.2433 86.9354C35.6096 84.6875 33.0004 83.3577 30.2235 83.3577H15.8771Z" fill="#FEFEFE"/>
<path d="M16.3706 81.1208H30.5062C33.8029 81.1208 36.9004 82.6997 38.8402 85.3683L45.5707 94.6273C47.5115 97.2972 51.4882 97.2972 53.429 94.6273L60.1595 85.3683C62.0994 82.6997 65.1968 81.1208 68.4935 81.1208H82.6293C89.2678 81.1208 94.649 75.7334 94.649 69.0876V16.4057C94.649 9.75993 89.2678 4.37207 82.6297 4.37207H16.3704C9.73176 4.37207 4.35059 9.75993 4.35059 16.4057V69.0876C4.35059 75.7334 9.73176 81.1208 16.3704 81.1208H16.3706ZM49.0361 14.4293C49.2634 14.7498 49.7366 14.7498 49.9639 14.4293C50.6027 13.5285 51.9599 12.1928 54.3916 12.1928C58.0606 12.1928 60.5064 15.2538 60.5064 18.3147C60.5064 25.5668 51.3664 30.2599 49.7445 31.0361C49.5891 31.1104 49.4108 31.1104 49.2553 31.0361C47.6336 30.2599 38.4936 25.5669 38.4936 18.3147C38.4936 15.2538 40.9397 12.1928 44.6083 12.1928C47.0399 12.1928 48.3973 13.5285 49.036 14.4293H49.0361ZM65.4495 66.9456C65.4495 67.4886 65.5228 67.9896 65.6702 68.4466C65.8172 68.9048 66.042 69.3041 66.3441 69.6457C66.6466 69.9867 67.034 70.2505 67.5067 70.4369C67.9794 70.6233 68.5413 70.7161 69.1926 70.7161C69.6884 70.7161 70.0913 70.6925 70.4013 70.6463C70.7115 70.6001 70.9128 70.5535 71.0061 70.5065V66.4334C71.0061 65.5487 70.7812 64.8119 70.3316 64.222C69.8819 63.6324 69.2076 63.3372 68.3089 63.3372C67.4097 63.3372 66.7081 63.6673 66.2043 64.3265C65.7005 64.9865 65.4492 65.8592 65.4492 66.9453L65.4495 66.9456ZM74.2613 72.9045C74.1679 72.9196 73.9859 72.9467 73.7149 72.986C73.4433 73.0246 73.1062 73.0594 72.7033 73.091C72.3005 73.1215 71.8432 73.1523 71.3313 73.1834C70.82 73.2143 70.2851 73.23 69.7271 73.23C67.1851 73.23 65.2783 72.6449 64.0078 71.4728C62.7369 70.3013 62.1011 68.6761 62.1011 66.5964C62.1011 65.6343 62.2486 64.7884 62.5431 64.0589C62.8371 63.3295 63.2367 62.7171 63.7404 62.2203C64.2442 61.724 64.8251 61.3471 65.4839 61.0914C66.1428 60.8352 66.8443 60.7071 67.588 60.7071C68.1148 60.7071 68.5882 60.7733 69.0066 60.905C69.425 61.0372 69.7773 61.1924 70.0644 61.3707C70.3508 61.5489 70.5723 61.7158 70.7273 61.8711C70.8817 62.0261 70.9746 62.1273 71.0062 62.1734V57.1457C71.0062 56.6184 71.1606 56.2536 71.4708 56.0516C71.7809 55.8501 72.1917 55.7487 72.7032 55.7487C73.0599 55.7487 73.3892 55.7878 73.6911 55.8652C73.9938 55.9437 74.1835 55.9978 74.2613 56.0285V72.9044V72.9045ZM56.4982 57.1458C56.4982 56.6185 56.6532 56.2537 56.9633 56.0518C57.2733 55.8502 57.6843 55.7489 58.1957 55.7489C58.5519 55.7489 58.8816 55.7879 59.1837 55.8653C59.4862 55.9438 59.6754 55.998 59.7532 56.0286V72.9045H56.4982V57.1458ZM50.8487 66.9686C50.8487 66.4412 50.7823 65.9489 50.6509 65.4907C50.5194 65.0329 50.3176 64.6371 50.0468 64.3035C49.7753 63.9698 49.4457 63.7062 49.0582 63.5123C48.6709 63.3178 48.2218 63.2209 47.7099 63.2209C47.1985 63.2209 46.7486 63.3178 46.3617 63.5123C45.9737 63.7062 45.6446 63.9699 45.3731 64.3035C45.1021 64.6371 44.9005 65.0329 44.7689 65.4907C44.6369 65.9489 44.5712 66.441 44.5712 66.9686C44.5712 67.4965 44.6369 67.9894 44.7689 68.4466C44.9005 68.9048 45.1022 69.3001 45.3731 69.6338C45.6446 69.9679 45.9737 70.2315 46.3617 70.4255C46.7486 70.6194 47.1985 70.7163 47.7099 70.7163C48.2218 70.7163 48.6709 70.6194 49.0582 70.4255C49.4457 70.2315 49.7753 69.9678 50.0468 69.6338C50.3178 69.3001 50.5194 68.9048 50.6509 68.4466C50.7823 67.9894 50.8487 67.4967 50.8487 66.9686ZM54.1504 66.9686C54.1504 67.8534 53.9993 68.6796 53.6968 69.4476C53.3947 70.2158 52.9606 70.883 52.3951 71.4492C51.8285 72.0158 51.151 72.4658 50.3602 72.7994C49.57 73.1331 48.6862 73.2998 47.7098 73.2998C46.7333 73.2998 45.8496 73.1331 45.0592 72.7994C44.269 72.4658 43.5906 72.0158 43.0251 71.4492C42.459 70.8828 42.0249 70.2158 41.7228 69.4476C41.4203 68.6796 41.2691 67.8532 41.2691 66.9686C41.2691 66.0839 41.4203 65.2576 41.7228 64.49C42.0249 63.7219 42.459 63.0541 43.0251 62.4881C43.5906 61.9213 44.269 61.4719 45.0592 61.1378C45.8496 60.8041 46.7333 60.6374 47.7098 60.6374C48.6862 60.6374 49.57 60.8041 50.3602 61.1378C51.151 61.4719 51.8285 61.9213 52.3951 62.4881C52.9606 63.0542 53.3947 63.7219 53.6968 64.49C53.9993 65.2576 54.1504 66.084 54.1504 66.9686ZM37.1549 63.7097C38.4103 63.7097 39.038 64.315 39.038 65.5252V72.9044C38.9914 72.9195 38.8093 72.9466 38.4916 72.9859C38.174 73.0244 37.7667 73.0673 37.2709 73.1134C36.7745 73.1602 36.2165 73.2029 35.5968 73.2421C34.9771 73.2802 34.3489 73.2998 33.7136 73.2998C32.4115 73.2998 31.2143 73.1255 30.1214 72.7764C29.0285 72.4269 28.0831 71.9033 27.2848 71.205C26.4865 70.5067 25.8627 69.6338 25.4131 68.5862C24.9635 67.5388 24.7392 66.3166 24.7392 64.9205C24.7392 63.6168 24.956 62.4494 25.3899 61.4169C25.824 60.3852 26.4282 59.5045 27.2034 58.7751C27.9781 58.0455 28.9009 57.4874 29.9703 57.099C31.0401 56.7112 32.2178 56.5173 33.5044 56.5173C34.1396 56.5173 34.7056 56.556 35.2014 56.6339C35.6976 56.7114 36.1393 56.8082 36.5269 56.9247C36.914 57.0407 37.2436 57.1688 37.515 57.3086C37.7861 57.4483 38.0148 57.5804 38.2011 57.7045C38.4951 57.922 38.7198 58.1587 38.8754 58.4143C39.03 58.6706 39.1078 58.9228 39.1078 59.171C39.1078 59.4347 39.057 59.6713 38.9567 59.8808C38.8553 60.0902 38.7353 60.2767 38.5959 60.4393C38.4563 60.6021 38.3129 60.7347 38.1658 60.8353C38.0183 60.9363 37.8984 61.0101 37.8055 61.0563C37.6811 60.9322 37.507 60.7655 37.2822 60.5559C37.0575 60.3463 36.7709 60.145 36.4221 59.9506C36.0734 59.7571 35.655 59.5899 35.1667 59.4502C34.6786 59.3104 34.1241 59.2406 33.5044 59.2406C32.714 59.2406 31.9971 59.3683 31.3536 59.6245C30.7105 59.8808 30.1565 60.2535 29.6912 60.7418C29.2262 61.2311 28.8658 61.8283 28.6099 62.5343C28.3545 63.2405 28.2266 64.0359 28.2266 64.9205C28.2266 65.8358 28.358 66.6391 28.622 67.3294C28.885 68.0202 29.2613 68.5943 29.7496 69.0521C30.2379 69.5098 30.8268 69.8549 31.5164 70.0879C32.2059 70.3206 32.9776 70.437 33.8301 70.437C34.4032 70.437 34.8372 70.4219 35.1318 70.3904C35.4262 70.3597 35.628 70.3285 35.7364 70.2975V66.6663C35.7364 66.6663 34.385 66.7342 34.388 65.2241C34.3901 64.1229 34.8401 63.8496 34.9726 63.711L37.1547 63.7099L37.1549 63.7097ZM80.4803 37.772C80.651 37.3691 80.8602 37.035 81.1081 36.7713C81.356 36.5075 81.7745 36.3754 82.3641 36.3754C82.8599 36.3754 83.2547 36.4682 83.5493 36.6545C83.8438 36.8409 84.0219 36.9731 84.0842 37.0499C83.9758 37.4228 83.8206 37.8695 83.619 38.3889C83.4179 38.9091 83.1926 39.4597 82.9451 40.0416C82.6968 40.6233 82.4453 41.2096 82.1894 41.7988C81.9334 42.3886 81.6972 42.9316 81.4805 43.4284C81.0303 44.4522 80.5698 45.4454 80.0971 46.4075C79.6239 47.37 79.101 48.347 78.5276 49.3402C78.2635 49.8059 77.9852 50.252 77.6906 50.679C77.3961 51.1055 77.0549 51.4854 76.6675 51.8199C76.2802 52.1529 75.8422 52.4167 75.3539 52.611C74.8658 52.8045 74.2961 52.9019 73.6454 52.9019C73.2575 52.9019 72.8972 52.8708 72.564 52.8091C72.2303 52.7468 71.9439 52.6769 71.704 52.5989C71.4636 52.5216 71.2659 52.4478 71.1109 52.3779C70.9565 52.3081 70.8711 52.2574 70.855 52.2266L71.7853 49.9224C71.8782 49.969 72.0833 50.039 72.4015 50.132C72.7187 50.2253 73.0408 50.2716 73.3665 50.2716C73.8466 50.2716 74.2575 50.1354 74.5989 49.8642C74.9391 49.5924 75.2728 49.1546 75.5985 48.5492L76.296 47.2224C76.032 46.7884 75.7416 46.3031 75.4238 45.7676C75.1062 45.2327 74.7881 44.6851 74.4711 44.127C74.1529 43.5683 73.8393 43.0173 73.5291 42.4741C73.219 41.9311 72.94 41.4382 72.6921 40.9957C72.4438 40.5535 72.2351 40.1778 72.0644 39.8668C71.8938 39.5568 71.7854 39.3548 71.7387 39.2615C71.6147 39.0138 71.5139 38.7843 71.4366 38.5751C71.3588 38.3657 71.3203 38.129 71.3203 37.8655C71.3203 37.679 71.3474 37.4966 71.4021 37.3183C71.4557 37.1399 71.5492 36.9809 71.6805 36.8411C71.812 36.7015 71.9831 36.5889 72.1923 36.5037C72.4017 36.4186 72.669 36.3755 72.9942 36.3755C73.4594 36.3755 73.8042 36.4222 74.0289 36.5152C74.2537 36.608 74.3736 36.6629 74.3893 36.6778C74.4358 36.8025 74.5789 37.1205 74.8198 37.6324C75.0596 38.1447 75.3466 38.7496 75.6797 39.4484C76.013 40.1462 76.3774 40.8911 76.7727 41.6822C77.1681 42.474 77.5514 43.211 77.9237 43.8938C78.2177 43.2423 78.5008 42.5865 78.7723 41.9269C79.0433 41.2673 79.2951 40.6584 79.5281 40.0999C79.7603 39.5408 79.958 39.0559 80.1206 38.645C80.2831 38.2337 80.403 37.9426 80.4808 37.7719L80.4803 37.772ZM61.3223 42.2878C61.3223 42.8308 61.3961 43.3317 61.5435 43.7893C61.6906 44.247 61.9153 44.6468 62.2174 44.9878C62.5199 45.3294 62.9075 45.5932 63.3801 45.7796C63.8527 45.9654 64.4148 46.0584 65.066 46.0584C65.5617 46.0584 65.9646 46.0352 66.2748 45.9884C66.5849 45.9422 66.7861 45.8956 66.8794 45.8493V41.7757C66.8794 40.8909 66.6541 40.154 66.205 39.5642C65.7553 38.9745 65.0809 38.6795 64.1823 38.6795C63.2832 38.6795 62.5816 39.0096 62.0778 39.6692C61.574 40.3288 61.322 41.2014 61.322 42.2875L61.3223 42.2878ZM70.1342 48.2468C70.0414 48.2619 69.8592 48.2894 69.5882 48.3281C69.3167 48.3668 68.9796 48.4015 68.5767 48.4331C68.1733 48.4637 67.7167 48.495 67.2048 48.5261C66.6934 48.557 66.1585 48.5727 65.6006 48.5727C63.0586 48.5727 61.1517 47.987 59.8812 46.815C58.6103 45.6434 57.9744 44.0183 57.9744 41.9385C57.9744 40.9766 58.1219 40.1311 58.416 39.4011C58.7106 38.6722 59.1101 38.0594 59.6137 37.5624C60.1171 37.0661 60.6986 36.6893 61.3574 36.4335C62.0161 36.1773 62.7178 36.0498 63.4615 36.0498C63.9883 36.0498 64.4615 36.1156 64.8799 36.2473C65.2985 36.3794 65.6506 36.5345 65.9378 36.7128C66.2243 36.8912 66.4456 37.0585 66.6006 37.2132C66.7552 37.3688 66.8481 37.4694 66.8796 37.5156V32.4879C66.8796 31.9611 67.034 31.5958 67.3441 31.3937C67.6543 31.1923 68.0652 31.0914 68.5765 31.0914C68.9328 31.0914 69.2625 31.13 69.5646 31.2079C69.8667 31.2858 70.0568 31.3401 70.1342 31.3707V48.2466V48.2468ZM52.5341 48.2468V41.5662C52.5341 39.6421 51.6429 38.6796 49.8605 38.6796C49.2093 38.6796 48.7055 38.7344 48.3492 38.8429C47.9925 38.9513 47.7365 39.0443 47.5821 39.1222V48.2466H44.3269V37.097C44.3887 37.0659 44.575 36.9886 44.885 36.864C45.1951 36.7399 45.594 36.6123 46.0821 36.4802C46.5709 36.348 47.144 36.232 47.8028 36.131C48.4617 36.03 49.1781 35.9798 49.9536 35.9798C50.8216 35.9798 51.6159 36.0882 52.3366 36.3053C53.0575 36.5228 53.6738 36.8408 54.1851 37.2598C54.697 37.6787 55.0918 38.1947 55.3709 38.8076C55.6498 39.421 55.7893 40.1228 55.7893 40.9141V48.2466H52.5343L52.5341 48.2468ZM38.3286 43.0327C38.2824 43.0171 38.1891 43.0016 38.0496 42.986C37.9102 42.9709 37.7396 42.9554 37.5383 42.9392C37.3366 42.9241 37.1159 42.9126 36.8761 42.9047C36.6352 42.8972 36.3914 42.8932 36.1435 42.8932C35.5698 42.8932 35.1047 42.9392 34.7485 43.0328C34.3917 43.1256 34.1166 43.2538 33.9231 43.4167C33.7288 43.5798 33.5974 43.7739 33.5276 43.9989C33.4578 44.2239 33.4227 44.4604 33.4227 44.7086C33.4227 44.9261 33.4538 45.1357 33.5161 45.3371C33.5777 45.5392 33.7057 45.721 33.9 45.8842C34.0932 46.0469 34.3645 46.179 34.7134 46.2801C35.062 46.381 35.5158 46.4314 36.0737 46.4314C36.6628 46.4314 37.151 46.4042 37.5385 46.3495C37.9258 46.2957 38.1893 46.253 38.3287 46.2218V43.0328L38.3286 43.0327ZM41.5375 48.1532C41.4909 48.1689 41.3202 48.1998 41.0256 48.2466C40.7311 48.2928 40.3396 48.3395 39.8514 48.3863C39.3631 48.4329 38.7855 48.4758 38.1192 48.514C37.4528 48.5525 36.7242 48.5727 35.934 48.5727C34.7868 48.5727 33.845 48.4758 33.1088 48.2819C32.3722 48.0874 31.7873 47.8203 31.3536 47.4785C30.9195 47.137 30.621 46.7376 30.4586 46.28C30.2955 45.8222 30.2141 45.3215 30.2141 44.7785C30.2141 44.1119 30.3149 43.5294 30.5167 43.0328C30.718 42.5365 31.043 42.1286 31.4933 41.8105C31.9423 41.4925 32.5199 41.256 33.2255 41.1008C33.9303 40.9456 34.7868 40.8682 35.7945 40.8682C36.4921 40.8682 37.073 40.8879 37.5382 40.9265C38.0033 40.9651 38.2744 40.9923 38.3522 41.008V40.6351C38.3522 39.9061 38.1037 39.3476 37.6079 38.9592C37.1117 38.5719 36.3445 38.3775 35.3063 38.3775C34.8412 38.3775 34.4301 38.4201 34.0739 38.5056C33.7172 38.5911 33.4115 38.6921 33.1556 38.8081C32.8996 38.9245 32.6825 39.0407 32.5048 39.1571C32.3262 39.2736 32.1827 39.3632 32.0743 39.4249C31.8572 39.3008 31.6633 39.1029 31.4934 38.8317C31.3227 38.5599 31.2375 38.2534 31.2375 37.9118C31.2375 37.5708 31.3457 37.2799 31.5631 37.0392C31.7798 36.7986 32.0704 36.6047 32.4352 36.457C32.799 36.3098 33.2175 36.2048 33.6902 36.1426C34.1628 36.0813 34.6471 36.0502 35.1437 36.0502C36.0887 36.0502 36.9531 36.1316 37.736 36.2944C38.5184 36.457 39.1927 36.737 39.7588 37.1323C40.3243 37.5282 40.7625 38.0556 41.0723 38.7146C41.382 39.3748 41.5375 40.2013 41.5375 41.1942V48.1535V48.1532ZM28.9825 34.5131C28.9825 34.7772 28.9317 35.0179 28.8313 35.2348C28.73 35.4518 28.61 35.6458 28.4706 35.8166C28.331 35.9873 28.1876 36.131 28.0405 36.2471C27.893 36.3636 27.7729 36.4451 27.6802 36.4917C27.5558 36.3676 27.3817 36.205 27.1569 36.0024C26.9322 35.8015 26.6415 35.607 26.2853 35.4207C25.9286 35.2348 25.5066 35.0722 25.0183 34.9324C24.5301 34.7922 23.9757 34.7224 23.356 34.7224C22.6117 34.7224 21.9373 34.8545 21.3332 35.1184C20.7285 35.3821 20.2086 35.7548 19.7752 36.2356C19.3411 36.7168 19.004 37.2947 18.7641 37.9698C18.5233 38.645 18.4034 39.4011 18.4034 40.2395C18.4034 42.024 18.857 43.3819 19.7637 44.3127C20.6704 45.2441 21.8833 45.7098 23.4021 45.7098C24.0379 45.7098 24.6075 45.651 25.1113 45.535C25.6151 45.4184 26.045 45.2903 26.4018 45.1506C26.7581 45.0108 27.0445 44.8714 27.2619 44.7322C27.4786 44.5919 27.6182 44.4991 27.6803 44.4523L29.1687 46.9668C29.0904 47.0447 28.9047 47.1723 28.6102 47.3505C28.3157 47.5295 27.9127 47.7153 27.4014 47.9092C26.8901 48.1037 26.2814 48.2734 25.5765 48.4217C24.871 48.5685 24.0687 48.6427 23.1699 48.6427C22.0072 48.6427 20.9224 48.4639 19.9147 48.1072C18.9072 47.7506 18.0351 47.2151 17.2995 46.5011C16.5629 45.7874 15.9814 44.9107 15.5554 43.8708C15.1288 42.8308 14.916 41.6212 14.916 40.2395C14.916 38.9359 15.1288 37.7683 15.5554 36.7366C15.9814 35.7047 16.5704 34.8275 17.3227 34.1057C18.0744 33.3843 18.9574 32.8297 19.9731 32.4417C20.9882 32.0533 22.0926 31.8596 23.2864 31.8596C24.5568 31.8596 25.58 31.9917 26.3553 32.2554C27.1301 32.5193 27.7042 32.7829 28.076 33.0472C28.3701 33.2641 28.5948 33.5009 28.75 33.7566C28.9048 34.0128 28.9828 34.2649 28.9828 34.5132L28.9825 34.5131Z" fill="#FEFEFE"/>
</g>
<defs>
<clipPath id="clip0_391_223">
<rect width="99" height="101" fill="white"/>
</clipPath>
</defs>
</svg>
