<svg width="53" height="53" viewBox="0 0 53 53" fill="none" xmlns="http://www.w3.org/2000/svg">
<circle cx="26.5" cy="26.5" r="26.5" fill="white"/>
<path d="M39.7621 30.0872C40.3463 30.983 41.1402 31.7181 42.0729 32.2269C43.0057 32.7356 44.0482 33.0021 45.1073 33.0025L45.4141 33.0025C45.491 33.0025 45.5672 32.9872 45.6383 32.9573C45.7094 32.9274 45.774 32.8837 45.8284 32.8285C45.8828 32.7733 45.926 32.7078 45.9554 32.6358C45.9848 32.5637 46 32.4864 46 32.4084L46 20.5914C46 20.4338 45.9383 20.2827 45.8284 20.1713C45.7185 20.0598 45.5695 19.9972 45.4141 19.9972L45.1073 19.9972C44.0482 19.9977 43.0057 20.2642 42.0729 20.7729C41.1402 21.2817 40.3463 22.0168 39.7621 22.9126C39.6812 22.4756 39.5524 22.049 39.3781 21.6409C39.3657 21.6037 39.3497 21.5679 39.3303 21.5339C38.7498 20.2473 37.7442 19.2067 36.4873 18.5922C36.4628 18.5787 36.4373 18.567 36.411 18.5572C35.6301 18.1896 34.7794 17.9994 33.9184 18L18.0816 18C16.6962 18.0019 15.3547 18.4935 14.2881 19.3902C13.2215 20.2868 12.4965 21.5324 12.2379 22.9126C11.6537 22.0168 10.8598 21.2817 9.92707 20.7729C8.99434 20.2642 7.95184 19.9977 6.89273 19.9972L6.58594 19.9972C6.43054 19.9972 6.2815 20.0598 6.17162 20.1712C6.06173 20.2827 6 20.4338 6 20.5914L6 32.4085C6 32.5661 6.06173 32.7172 6.17161 32.8287C6.2815 32.9401 6.43054 33.0027 6.58594 33.0027L6.89273 33.0027C7.95184 33.0022 8.99434 32.7357 9.92707 32.227C10.8598 31.7183 11.6537 30.9831 12.2379 30.0873C12.3195 30.5274 12.4495 30.9567 12.6256 31.3673C12.6374 31.402 12.6524 31.4355 12.6703 31.4674C13.2513 32.7541 14.2574 33.7946 15.5148 34.4087C15.5384 34.4216 15.5629 34.4329 15.588 34.4424C16.3692 34.8103 17.2203 35.0006 18.0816 35L33.9184 35C35.3038 34.9981 36.6453 34.5064 37.7119 33.6098C38.7785 32.7131 39.5035 31.4675 39.7621 30.0873L39.7621 30.0872ZM44.8281 21.1929L44.8281 31.8069C43.8436 31.7522 42.8942 31.4176 42.0885 30.8413C41.2827 30.265 40.6533 29.4703 40.2723 28.5482C40.2974 28.5637 40.3215 28.5797 40.3473 28.5948C40.9865 28.9664 41.7192 29.1398 42.4546 29.0935C42.6097 29.084 42.7548 29.0124 42.8578 28.8944C42.9609 28.7765 43.0135 28.6218 43.0041 28.4645C42.9948 28.3073 42.9242 28.1602 42.8078 28.0557C42.6915 27.9512 42.539 27.8978 42.3839 27.9073C41.8772 27.9372 41.3727 27.8181 40.9311 27.5644C40.7138 27.4378 40.5162 27.2793 40.3447 27.094L42.4166 27.094C42.572 27.094 42.721 27.0314 42.8309 26.92C42.9408 26.8086 43.0025 26.6575 43.0025 26.4999C43.0025 26.3423 42.9408 26.1912 42.8309 26.0798C42.721 25.9683 42.572 25.9057 42.4166 25.9057L40.3447 25.9057C40.5162 25.7204 40.7138 25.5619 40.9311 25.4352C41.3727 25.1816 41.8772 25.0625 42.3839 25.0924C42.5381 25.1003 42.6892 25.0462 42.8044 24.9418C42.9195 24.8374 42.9893 24.6912 42.9986 24.5348C43.0079 24.3785 42.956 24.2248 42.8541 24.1071C42.7522 23.9894 42.6087 23.9172 42.4546 23.9063C41.7192 23.8599 40.9865 24.0333 40.3473 24.4049C40.3215 24.4199 40.2974 24.436 40.2723 24.4515C40.6533 23.5294 41.2828 22.7347 42.0885 22.1584C42.8942 21.5821 43.8436 21.2475 44.8281 21.1929ZM18.0816 19.1882L19.0637 19.1882L13.3506 29.6254C13.321 29.4078 13.3059 29.1883 13.3055 28.9685L13.3055 24.0313C13.307 22.7473 13.8106 21.5163 14.706 20.6083C15.6014 19.7004 16.8154 19.1897 18.0816 19.1882ZM7.17187 31.8069L7.17187 21.1929C8.15638 21.2475 9.10582 21.5821 9.91153 22.1584C10.7172 22.7347 11.3467 23.5294 11.7277 24.4515C11.7026 24.436 11.6785 24.42 11.6527 24.4049C11.0134 24.0333 10.2808 23.8599 9.54539 23.9063C9.39646 23.9154 9.25657 23.9818 9.15425 24.0919C9.05193 24.202 8.99489 24.3476 8.99477 24.4989C8.99477 24.5108 8.99516 24.523 8.99586 24.5351C9.0005 24.613 9.02023 24.6892 9.05391 24.7594C9.0876 24.8296 9.13459 24.8923 9.19219 24.944C9.24979 24.9958 9.31688 25.0355 9.38963 25.061C9.46238 25.0864 9.53936 25.0971 9.61617 25.0924C10.1228 25.0625 10.6272 25.1816 11.0688 25.4352C11.2861 25.5619 11.4837 25.7204 11.6552 25.9057L9.58336 25.9057C9.42796 25.9057 9.27892 25.9683 9.16904 26.0797C9.05915 26.1912 8.99742 26.3423 8.99742 26.4999C8.99742 26.6575 9.05915 26.8086 9.16904 26.92C9.27892 27.0314 9.42796 27.094 9.58336 27.094L11.6552 27.094C11.4837 27.2793 11.2862 27.4378 11.0689 27.5644C10.6273 27.8181 10.1228 27.9372 9.6161 27.9073C9.53928 27.9026 9.4623 27.9133 9.38956 27.9387C9.31681 27.9642 9.24973 28.0039 9.19213 28.0557C9.13454 28.1074 9.08756 28.1702 9.05389 28.2404C9.02021 28.3105 9.00049 28.3867 8.99586 28.4646C8.99507 28.4767 8.99477 28.4889 8.99477 28.501C8.99489 28.6523 9.05193 28.7978 9.15425 28.9079C9.25657 29.0181 9.39646 29.0844 9.54539 29.0936C10.2808 29.1399 11.0135 28.9665 11.6527 28.5948C11.6786 28.5797 11.7027 28.5637 11.7277 28.5482C11.3467 29.4703 10.7173 30.265 9.91154 30.8413C9.10583 31.4176 8.15639 31.7522 7.17187 31.8069ZM13.8373 31.185L20.4039 19.1882L23.1709 19.1882L15.5655 33.0826C14.8317 32.6191 14.2347 31.9636 13.8373 31.185ZM18.0816 33.8116C17.5897 33.8118 17.1007 33.7347 16.6321 33.5829L24.5113 19.1882L27.2784 19.1882L19.274 33.8115L18.0816 33.8116ZM20.6143 33.8116L28.6187 19.1882L31.3857 19.1882L23.3813 33.8115L20.6143 33.8116ZM24.7216 33.8116L32.726 19.1882L33.9184 19.1882C34.4103 19.188 34.8993 19.2652 35.3679 19.4169L27.4887 33.8115L24.7216 33.8116ZM28.829 33.8116L36.4343 19.9171C37.1682 20.3806 37.7653 21.0362 38.1627 21.8148L31.596 33.8116L28.829 33.8116ZM32.9363 33.8116L38.6494 23.3742C38.679 23.5919 38.6941 23.8114 38.6945 24.0312L38.6945 26.4963L38.6943 26.4995L38.6943 26.5L38.6945 26.5032L38.6945 28.9685C38.693 30.2525 38.1894 31.4835 37.294 32.3914C36.3986 33.2994 35.1846 33.8101 33.9184 33.8115L32.9363 33.8116Z" fill="#E51B48"/>
</svg>
