<svg width="53" height="53" viewBox="0 0 53 53" fill="none" xmlns="http://www.w3.org/2000/svg">
<circle cx="26.5" cy="26.5" r="26.5" fill="white"/>
<path d="M21.8499 24.3299H18.7499C18.4058 24.3299 18.1299 24.6058 18.1299 24.9499V28.0499C18.1299 28.3909 18.4058 28.6699 18.7499 28.6699H21.8499C22.1909 28.6699 22.4699 28.3909 22.4699 28.0499V24.9499C22.4699 24.6058 22.1909 24.3299 21.8499 24.3299ZM21.2299 27.4299H19.3699V25.5699H21.2299V27.4299ZM21.8499 18.1299H18.7499C18.4058 18.1299 18.1299 18.4058 18.1299 18.7499V21.8499C18.1299 22.1909 18.4058 22.4699 18.7499 22.4699H21.8499C22.1909 22.4699 22.4699 22.1909 22.4699 21.8499V18.7499C22.4699 18.4058 22.1909 18.1299 21.8499 18.1299ZM21.2299 21.2299H19.3699V19.3699H21.2299V21.2299ZM28.0499 30.5299H24.9499C24.6058 30.5299 24.3299 30.8058 24.3299 31.1499V34.2499C24.3299 34.5909 24.6058 34.8699 24.9499 34.8699H28.0499C28.3909 34.8699 28.6699 34.5909 28.6699 34.2499V31.1499C28.6699 30.8058 28.3909 30.5299 28.0499 30.5299ZM27.4299 33.6299H25.5699V31.7699H27.4299V33.6299Z" fill="#E51B48"/>
<path d="M38.2798 27.4298H37.9698V25.5698H38.2798C39.4764 25.5698 40.4498 24.5964 40.4498 23.3998C40.4498 22.2032 39.4764 21.2298 38.2798 21.2298H37.9698V19.159C38.7107 18.8056 39.2098 18.0492 39.2098 17.1998C39.2098 16.2915 38.6456 15.4948 37.821 15.1786C37.5048 14.354 36.7081 13.7898 35.7998 13.7898C34.9504 13.7898 34.1909 14.2889 33.8375 15.0298H31.7698V14.7198C31.7698 13.5232 30.7964 12.5498 29.5998 12.5498C28.4032 12.5498 27.4298 13.5232 27.4298 14.7198V15.0298H25.5698V14.7198C25.5698 13.5232 24.5964 12.5498 23.3998 12.5498C22.2032 12.5498 21.2298 13.5232 21.2298 14.7198V15.0298H19.159C18.8056 14.2889 18.0492 13.7898 17.1998 13.7898C16.2915 13.7898 15.4948 14.354 15.1755 15.1786C14.354 15.4948 13.7898 16.2915 13.7898 17.1998C13.7898 18.0492 14.2889 18.8056 15.0298 19.159V21.2298H14.7198C13.5232 21.2298 12.5498 22.2032 12.5498 23.3998C12.5498 24.5964 13.5232 25.5698 14.7198 25.5698H15.0298V27.4298H14.7198C13.5232 27.4298 12.5498 28.4032 12.5498 29.5998C12.5498 30.7964 13.5232 31.7698 14.7198 31.7698H15.0298V33.8375C14.2889 34.1909 13.7898 34.9504 13.7898 35.7998C13.7898 36.7081 14.354 37.5048 15.1755 37.821C15.4948 38.6456 16.2915 39.2098 17.1998 39.2098C18.0492 39.2098 18.8056 38.7107 19.159 37.9698H21.2298V38.2798C21.2298 39.4764 22.2032 40.4498 23.3998 40.4498C24.5964 40.4498 25.5698 39.4764 25.5698 38.2798V37.9698H27.4298V38.2798C27.4298 39.4764 28.4032 40.4498 29.5998 40.4498C30.7964 40.4498 31.7698 39.4764 31.7698 38.2798V37.9698H33.8375C34.1909 38.7107 34.9504 39.2098 35.7998 39.2098C36.7081 39.2098 37.5048 38.6456 37.821 37.821C38.6456 37.5048 39.2098 36.7081 39.2098 35.7998C39.2098 34.9504 38.7107 34.1909 37.9698 33.8375V31.7698H38.2798C39.4764 31.7698 40.4498 30.7964 40.4498 29.5998C40.4498 28.4032 39.4764 27.4298 38.2798 27.4298ZM25.5698 16.2698H28.0498C28.3908 16.2698 28.6698 15.9908 28.6698 15.6498V14.7198C28.6698 14.2052 29.0852 13.7898 29.5998 13.7898C30.1113 13.7898 30.5298 14.2052 30.5298 14.7198V15.6498C30.5298 15.9908 30.8057 16.2698 31.1498 16.2698H34.2808C34.5753 16.2698 34.8295 16.0621 34.8884 15.7738C34.9752 15.3429 35.3596 15.0298 35.7998 15.0298C36.2462 15.0298 36.6306 15.3491 36.7112 15.7893C36.7577 16.0435 36.9561 16.2419 37.2072 16.2884C37.6505 16.369 37.9698 16.7534 37.9698 17.1998C37.9698 17.64 37.6567 18.0244 37.2258 18.1112C36.9375 18.1701 36.7298 18.4243 36.7298 18.7188V20.9198C36.7298 21.4313 36.3113 21.8498 35.7998 21.8498C34.6032 21.8498 33.6298 22.8232 33.6298 24.0198V26.8098C33.6298 27.3213 33.2113 27.7398 32.6998 27.7398C32.1852 27.7398 31.7698 27.3213 31.7698 26.8098V25.8798C31.7698 24.6832 30.7964 23.7098 29.5998 23.7098C28.4032 23.7098 27.4298 24.6832 27.4298 25.8798V26.4998C27.4298 27.0113 27.0113 27.4298 26.4998 27.4298C25.9852 27.4298 25.5698 27.0113 25.5698 26.4998V16.2698ZM38.2798 30.5298H37.3498C37.0057 30.5298 36.7298 30.8057 36.7298 31.1498V34.2808C36.7298 34.5753 36.9375 34.8295 37.2258 34.8884C37.6567 34.9752 37.9698 35.3596 37.9698 35.7998C37.9698 36.2462 37.6505 36.6306 37.2072 36.7112C36.9561 36.7577 36.7577 36.9561 36.7112 37.2072C36.6306 37.6505 36.2462 37.9698 35.7998 37.9698C35.3596 37.9698 34.9752 37.6567 34.8884 37.2258C34.8295 36.9375 34.5753 36.7298 34.2808 36.7298H31.1498C30.8057 36.7298 30.5298 37.0057 30.5298 37.3498V38.2798C30.5298 38.7913 30.1113 39.2098 29.5998 39.2098C29.0852 39.2098 28.6698 38.7913 28.6698 38.2798V37.3498C28.6698 37.0057 28.3908 36.7298 28.0498 36.7298H24.9498C24.6057 36.7298 24.3298 37.0057 24.3298 37.3498V38.2798C24.3298 38.7913 23.9113 39.2098 23.3998 39.2098C22.8852 39.2098 22.4698 38.7913 22.4698 38.2798V37.3498C22.4698 37.0057 22.1908 36.7298 21.8498 36.7298H18.7188C18.4243 36.7298 18.1701 36.9375 18.1112 37.2258C18.0213 37.6567 17.64 37.9698 17.1998 37.9698C16.7503 37.9698 16.369 37.6505 16.2884 37.2072C16.2419 36.9561 16.0435 36.7577 15.7893 36.7112C15.3491 36.6306 15.0298 36.2462 15.0298 35.7998C15.0298 35.3596 15.3429 34.9752 15.7707 34.8884C16.0621 34.8295 16.2698 34.5753 16.2698 34.2808V31.1498C16.2698 30.8057 15.9908 30.5298 15.6498 30.5298H14.7198C14.2052 30.5298 13.7898 30.1113 13.7898 29.5998C13.7898 29.0852 14.2052 28.6698 14.7198 28.6698H15.6498C15.9908 28.6698 16.2698 28.3908 16.2698 28.0498V24.9498C16.2698 24.6057 15.9908 24.3298 15.6498 24.3298H14.7198C14.2052 24.3298 13.7898 23.9113 13.7898 23.3998C13.7898 22.8852 14.2052 22.4698 14.7198 22.4698H15.6498C15.9908 22.4698 16.2698 22.1908 16.2698 21.8498V18.7188C16.2698 18.4243 16.0621 18.1701 15.7738 18.1112C15.3429 18.0244 15.0298 17.64 15.0298 17.1998C15.0298 16.7534 15.3491 16.369 15.7893 16.2884C16.0435 16.2419 16.2419 16.0435 16.2884 15.7893C16.369 15.3491 16.7503 15.0298 17.1998 15.0298C17.64 15.0298 18.0213 15.3429 18.1112 15.7738C18.1701 16.0621 18.4243 16.2698 18.7188 16.2698H21.8498C22.1908 16.2698 22.4698 15.9908 22.4698 15.6498V14.7198C22.4698 14.2052 22.8852 13.7898 23.3998 13.7898C23.9113 13.7898 24.3298 14.2052 24.3298 14.7198V26.4998C24.3298 27.6964 25.3032 28.6698 26.4998 28.6698C27.6964 28.6698 28.6698 27.6964 28.6698 26.4998V25.8798C28.6698 25.3652 29.0852 24.9498 29.5998 24.9498C30.1113 24.9498 30.5298 25.3652 30.5298 25.8798V26.8098C30.5298 28.0064 31.5032 28.9798 32.6998 28.9798C33.8964 28.9798 34.8698 28.0064 34.8698 26.8098V24.0198C34.8698 23.5052 35.2852 23.0898 35.7998 23.0898C36.3888 23.0898 36.9251 22.8511 37.3188 22.4667C37.3281 22.4667 37.3374 22.4698 37.3498 22.4698H38.2798C38.7913 22.4698 39.2098 22.8852 39.2098 23.3998C39.2098 23.9113 38.7913 24.3298 38.2798 24.3298H37.3498C37.0057 24.3298 36.7298 24.6057 36.7298 24.9498V28.0498C36.7298 28.3908 37.0057 28.6698 37.3498 28.6698H38.2798C38.7913 28.6698 39.2098 29.0852 39.2098 29.5998C39.2098 30.1113 38.7913 30.5298 38.2798 30.5298Z" fill="#E51B48"/>
<path d="M34.2499 30.5298H31.1499C30.8058 30.5298 30.5299 30.8057 30.5299 31.1498V34.2498C30.5299 34.5908 30.8058 34.8698 31.1499 34.8698H34.2499C34.5909 34.8698 34.8699 34.5908 34.8699 34.2498V31.1498C34.8699 30.8057 34.5909 30.5298 34.2499 30.5298ZM33.6299 33.6298H31.7699V31.7698H33.6299V33.6298ZM21.8499 30.5298H18.7499C18.4058 30.5298 18.1299 30.8057 18.1299 31.1498V34.2498C18.1299 34.5908 18.4058 34.8698 18.7499 34.8698H21.8499C22.1909 34.8698 22.4699 34.5908 22.4699 34.2498V31.1498C22.4699 30.8057 22.1909 30.5298 21.8499 30.5298ZM21.2299 33.6298H19.3699V31.7698H21.2299V33.6298Z" fill="#E51B48"/>
</svg>
