<svg width="53" height="53" viewBox="0 0 53 53" fill="none" xmlns="http://www.w3.org/2000/svg">
<circle cx="26.5" cy="26.5" r="26.5" fill="white"/>
<path fill-rule="evenodd" clip-rule="evenodd" d="M37.1293 18.0919V18.0919C37.9289 18.2668 38.6179 18.7705 39.0271 19.4793C39.4364 20.1882 39.5281 21.0367 39.2797 21.8166V21.8166C38.9348 22.8996 39.2523 24.0843 40.0924 24.8497V24.8497C40.6975 25.401 41.0423 26.1816 41.0423 27.0002C41.0423 27.8187 40.6975 28.5993 40.0924 29.1506V29.1506C39.2523 29.9161 38.9348 31.1007 39.2797 32.1837V32.1837C39.5281 32.9637 39.4364 33.8121 39.0271 34.521C38.6179 35.2299 37.9289 35.7335 37.1293 35.9084V35.9084C36.0189 36.1512 35.1517 37.0185 34.9089 38.1288V38.1288C34.734 38.9284 34.2303 39.6174 33.5215 40.0266C32.8126 40.4359 31.9641 40.5276 31.1842 40.2792V40.2792C30.1012 39.9344 28.9165 40.2518 28.1511 41.0919V41.0919C27.5998 41.697 26.8192 42.0418 26.0006 42.0418C25.1821 42.0418 24.4015 41.697 23.8502 41.0919V41.0919C23.0847 40.2518 21.9001 39.9344 20.8171 40.2792V40.2792C20.0371 40.5276 19.1887 40.4359 18.4798 40.0266C17.7709 39.6174 17.2673 38.9284 17.0924 38.1288V38.1288C16.8496 37.0185 15.9824 36.1512 14.872 35.9084V35.9084C14.0724 35.7335 13.3834 35.2299 12.9742 34.521C12.5649 33.8121 12.4732 32.9637 12.7216 32.1837V32.1837C13.0664 31.1007 12.749 29.9161 11.9089 29.1506V29.1506C11.3038 28.5993 10.959 27.8187 10.959 27.0002C10.959 26.1816 11.3038 25.401 11.9089 24.8497V24.8497C12.749 24.0843 13.0664 22.8996 12.7216 21.8166V21.8166C12.4732 21.0367 12.5649 20.1882 12.9742 19.4793C13.3834 18.7705 14.0724 18.2668 14.872 18.0919V18.0919C15.9824 17.8491 16.8496 16.9819 17.0924 15.8715V15.8715C17.2673 15.0719 17.7709 14.383 18.4798 13.9737C19.1887 13.5644 20.0371 13.4727 20.8171 13.7211V13.7211C21.9001 14.066 23.0847 13.7485 23.8502 12.9084V12.9084C24.4015 12.3033 25.1821 11.9585 26.0006 11.9585C26.8192 11.9585 27.5998 12.3033 28.1511 12.9084V12.9084C28.9165 13.7485 30.1012 14.066 31.1842 13.7211V13.7211C31.9641 13.4727 32.8126 13.5644 33.5215 13.9737C34.2303 14.383 34.734 15.0719 34.9089 15.8715V15.8715C35.1517 16.9819 36.0189 17.8491 37.1293 18.0919Z" stroke="#E51B48" stroke-width="2" stroke-linecap="round" stroke-linejoin="round"/>
<path d="M28.8587 24.2067C28.1176 23.4621 27.1084 23.0463 26.0578 23.0528C25.0072 23.0593 24.0033 23.4876 23.2715 24.2415C21.7272 25.7973 21.7272 28.3075 23.2715 29.8633C24.8363 31.389 27.3393 31.3655 28.8751 29.8106C30.4109 28.2557 30.4036 25.7526 28.8587 24.2067" stroke="#E51B48" stroke-width="2" stroke-linecap="round" stroke-linejoin="round"/>
<path d="M34.6526 27.0561C34.6752 27.0789 34.7094 27.0858 34.7391 27.0735C34.7688 27.0612 34.7882 27.0323 34.7882 27.0002C34.7882 26.968 34.7688 26.9391 34.7391 26.9268C34.7094 26.9146 34.6752 26.9214 34.6526 26.9442C34.6376 26.959 34.6292 26.9791 34.6292 27.0002C34.6292 27.0212 34.6376 27.0414 34.6526 27.0561" stroke="#E51B48" stroke-width="2" stroke-linecap="round" stroke-linejoin="round"/>
<path d="M17.2356 27.0561C17.2583 27.0789 17.2924 27.0858 17.3221 27.0735C17.3518 27.0612 17.3712 27.0323 17.3712 27.0002C17.3712 26.968 17.3518 26.9391 17.3221 26.9268C17.2924 26.9146 17.2583 26.9214 17.2356 26.9442C17.2206 26.959 17.2122 26.9791 17.2122 27.0002C17.2122 27.0212 17.2206 27.0414 17.2356 27.0561" stroke="#E51B48" stroke-width="2" stroke-linecap="round" stroke-linejoin="round"/>
<path d="M26.0566 18.3477C26.0794 18.3251 26.0862 18.2909 26.074 18.2612C26.0617 18.2316 26.0328 18.2122 26.0007 18.2122C25.9685 18.2122 25.9396 18.2316 25.9273 18.2612C25.9151 18.2909 25.9219 18.3251 25.9447 18.3477C25.9595 18.3627 25.9796 18.3711 26.0007 18.3711C26.0217 18.3711 26.0419 18.3627 26.0566 18.3477" stroke="#E51B48" stroke-width="2" stroke-linecap="round" stroke-linejoin="round"/>
<path d="M26.0566 35.7642C26.0794 35.7416 26.0862 35.7074 26.074 35.6777C26.0617 35.6481 26.0328 35.6287 26.0007 35.6287C25.9685 35.6287 25.9396 35.6481 25.9273 35.6777C25.9151 35.7074 25.9219 35.7416 25.9447 35.7642C25.9595 35.7792 25.9796 35.7876 26.0007 35.7876C26.0217 35.7876 26.0419 35.7792 26.0566 35.7642" stroke="#E51B48" stroke-width="2" stroke-linecap="round" stroke-linejoin="round"/>
<path d="M19.9218 20.8421C19.9218 20.81 19.9025 20.781 19.8729 20.7687C19.8432 20.7564 19.8091 20.7632 19.7864 20.7859C19.7636 20.8086 19.7569 20.8427 19.7692 20.8724C19.7815 20.902 19.8105 20.9213 19.8426 20.9213C19.8637 20.9214 19.8839 20.9132 19.8988 20.8983C19.9136 20.8834 19.9219 20.8632 19.9218 20.8421" stroke="#E51B48" stroke-width="2" stroke-linecap="round" stroke-linejoin="round"/>
<path d="M32.2372 33.1571C32.2373 33.125 32.218 33.096 32.1883 33.0836C32.1587 33.0713 32.1245 33.0781 32.1018 33.1008C32.0791 33.1235 32.0723 33.1577 32.0846 33.1873C32.0969 33.217 32.1259 33.2363 32.1581 33.2362C32.1791 33.2364 32.1993 33.2281 32.2142 33.2132C32.2291 33.1983 32.2374 33.1781 32.2372 33.1571" stroke="#E51B48" stroke-width="2" stroke-linecap="round" stroke-linejoin="round"/>
<path d="M32.0785 20.8421C32.0785 20.81 32.0978 20.781 32.1274 20.7687C32.1571 20.7564 32.1913 20.7631 32.214 20.7859C32.2367 20.8086 32.2435 20.8427 32.2311 20.8724C32.2188 20.9021 32.1898 20.9214 32.1577 20.9213C32.1367 20.9215 32.1164 20.9132 32.1015 20.8983C32.0867 20.8834 32.0784 20.8632 32.0785 20.8421" stroke="#E51B48" stroke-width="2" stroke-linecap="round" stroke-linejoin="round"/>
<path d="M19.7631 33.1571C19.7631 33.1249 19.7824 33.096 19.812 33.0836C19.8417 33.0713 19.8758 33.0781 19.8985 33.1008C19.9212 33.1235 19.928 33.1577 19.9157 33.1873C19.9034 33.217 19.8744 33.2363 19.8423 33.2362C19.8212 33.2364 19.801 33.2281 19.7861 33.2132C19.7713 33.1983 19.763 33.1781 19.7631 33.1571" stroke="#E51B48" stroke-width="2" stroke-linecap="round" stroke-linejoin="round"/>
</svg>
