<svg width="53" height="53" viewBox="0 0 53 53" fill="none" xmlns="http://www.w3.org/2000/svg">
<circle cx="26.5" cy="26.5" r="26.5" fill="#D70D1D"/>
<path fill-rule="evenodd" clip-rule="evenodd" d="M37.1288 18.0919V18.0919C37.9284 18.2668 38.6174 18.7705 39.0266 19.4793C39.4359 20.1882 39.5276 21.0367 39.2792 21.8166V21.8166C38.9344 22.8996 39.2518 24.0843 40.0919 24.8497V24.8497C40.697 25.401 41.0418 26.1816 41.0418 27.0002C41.0418 27.8187 40.697 28.5993 40.0919 29.1506V29.1506C39.2518 29.9161 38.9344 31.1007 39.2792 32.1837V32.1837C39.5276 32.9637 39.4359 33.8121 39.0266 34.521C38.6174 35.2299 37.9284 35.7335 37.1288 35.9084V35.9084C36.0185 36.1512 35.1512 37.0185 34.9084 38.1288V38.1288C34.7335 38.9284 34.2299 39.6174 33.521 40.0266C32.8121 40.4359 31.9637 40.5276 31.1837 40.2792V40.2792C30.1007 39.9344 28.9161 40.2518 28.1506 41.0919V41.0919C27.5993 41.697 26.8187 42.0418 26.0002 42.0418C25.1816 42.0418 24.401 41.697 23.8497 41.0919V41.0919C23.0843 40.2518 21.8996 39.9344 20.8166 40.2792V40.2792C20.0367 40.5276 19.1882 40.4359 18.4793 40.0266C17.7705 39.6174 17.2668 38.9284 17.0919 38.1288V38.1288C16.8491 37.0185 15.9819 36.1512 14.8715 35.9084V35.9084C14.0719 35.7335 13.383 35.2299 12.9737 34.521C12.5644 33.8121 12.4727 32.9637 12.7211 32.1837V32.1837C13.066 31.1007 12.7485 29.9161 11.9084 29.1506V29.1506C11.3033 28.5993 10.9585 27.8187 10.9585 27.0002C10.9585 26.1816 11.3033 25.401 11.9084 24.8497V24.8497C12.7485 24.0843 13.066 22.8996 12.7211 21.8166V21.8166C12.4727 21.0367 12.5644 20.1882 12.9737 19.4793C13.383 18.7705 14.0719 18.2668 14.8715 18.0919V18.0919C15.9819 17.8491 16.8491 16.9819 17.0919 15.8715V15.8715C17.2668 15.0719 17.7705 14.383 18.4793 13.9737C19.1882 13.5644 20.0367 13.4727 20.8166 13.7211V13.7211C21.8996 14.066 23.0843 13.7485 23.8497 12.9084V12.9084C24.401 12.3033 25.1816 11.9585 26.0002 11.9585C26.8187 11.9585 27.5993 12.3033 28.1506 12.9084V12.9084C28.9161 13.7485 30.1007 14.066 31.1837 13.7211V13.7211C31.9637 13.4727 32.8121 13.5644 33.521 13.9737C34.2299 14.383 34.7335 15.0719 34.9084 15.8715V15.8715C35.1512 16.9819 36.0185 17.8491 37.1288 18.0919Z" stroke="white" stroke-width="2" stroke-linecap="round" stroke-linejoin="round"/>
<path d="M28.8582 24.2067C28.1171 23.4621 27.1079 23.0463 26.0573 23.0528C25.0067 23.0593 24.0028 23.4876 23.271 24.2415C21.7267 25.7973 21.7267 28.3075 23.271 29.8633C24.8358 31.389 27.3388 31.3655 28.8746 29.8106C30.4104 28.2557 30.4031 25.7526 28.8582 24.2067" stroke="white" stroke-width="2" stroke-linecap="round" stroke-linejoin="round"/>
<path d="M34.6526 27.0561C34.6752 27.0789 34.7094 27.0858 34.7391 27.0735C34.7688 27.0612 34.7882 27.0323 34.7882 27.0002C34.7882 26.968 34.7688 26.9391 34.7391 26.9268C34.7094 26.9146 34.6752 26.9214 34.6526 26.9442C34.6376 26.959 34.6292 26.9791 34.6292 27.0002C34.6292 27.0212 34.6376 27.0414 34.6526 27.0561" stroke="white" stroke-width="2" stroke-linecap="round" stroke-linejoin="round"/>
<path d="M17.2356 27.0561C17.2583 27.0789 17.2924 27.0858 17.3221 27.0735C17.3518 27.0612 17.3712 27.0323 17.3712 27.0002C17.3712 26.968 17.3518 26.9391 17.3221 26.9268C17.2924 26.9146 17.2583 26.9214 17.2356 26.9442C17.2206 26.959 17.2122 26.9791 17.2122 27.0002C17.2122 27.0212 17.2206 27.0414 17.2356 27.0561" stroke="white" stroke-width="2" stroke-linecap="round" stroke-linejoin="round"/>
<path d="M26.0561 18.3477C26.0789 18.3251 26.0857 18.2909 26.0735 18.2612C26.0612 18.2316 26.0323 18.2122 26.0002 18.2122C25.968 18.2122 25.9391 18.2316 25.9268 18.2612C25.9146 18.2909 25.9214 18.3251 25.9442 18.3477C25.959 18.3627 25.9791 18.3711 26.0002 18.3711C26.0212 18.3711 26.0414 18.3627 26.0561 18.3477" stroke="white" stroke-width="2" stroke-linecap="round" stroke-linejoin="round"/>
<path d="M26.0561 35.7642C26.0789 35.7416 26.0857 35.7074 26.0735 35.6777C26.0612 35.6481 26.0323 35.6287 26.0002 35.6287C25.968 35.6287 25.9391 35.6481 25.9268 35.6777C25.9146 35.7074 25.9214 35.7416 25.9442 35.7642C25.959 35.7792 25.9791 35.7876 26.0002 35.7876C26.0212 35.7876 26.0414 35.7792 26.0561 35.7642" stroke="white" stroke-width="2" stroke-linecap="round" stroke-linejoin="round"/>
<path d="M19.9213 20.8421C19.9213 20.81 19.902 20.781 19.8724 20.7687C19.8427 20.7564 19.8086 20.7632 19.7859 20.7859C19.7632 20.8086 19.7564 20.8427 19.7687 20.8724C19.781 20.902 19.81 20.9213 19.8421 20.9213C19.8632 20.9214 19.8834 20.9132 19.8983 20.8983C19.9132 20.8834 19.9214 20.8632 19.9213 20.8421" stroke="white" stroke-width="2" stroke-linecap="round" stroke-linejoin="round"/>
<path d="M32.2372 33.1571C32.2373 33.125 32.218 33.096 32.1883 33.0836C32.1587 33.0713 32.1245 33.0781 32.1018 33.1008C32.0791 33.1235 32.0723 33.1577 32.0846 33.1873C32.0969 33.217 32.1259 33.2363 32.1581 33.2362C32.1791 33.2364 32.1993 33.2281 32.2142 33.2132C32.2291 33.1983 32.2374 33.1781 32.2372 33.1571" stroke="white" stroke-width="2" stroke-linecap="round" stroke-linejoin="round"/>
<path d="M32.0785 20.8421C32.0785 20.81 32.0978 20.781 32.1274 20.7687C32.1571 20.7564 32.1913 20.7631 32.214 20.7859C32.2367 20.8086 32.2435 20.8427 32.2311 20.8724C32.2188 20.9021 32.1898 20.9214 32.1577 20.9213C32.1367 20.9215 32.1164 20.9132 32.1015 20.8983C32.0867 20.8834 32.0784 20.8632 32.0785 20.8421" stroke="white" stroke-width="2" stroke-linecap="round" stroke-linejoin="round"/>
<path d="M19.7626 33.1571C19.7626 33.1249 19.7819 33.096 19.8115 33.0836C19.8412 33.0713 19.8753 33.0781 19.8981 33.1008C19.9208 33.1235 19.9275 33.1577 19.9152 33.1873C19.9029 33.217 19.8739 33.2363 19.8418 33.2362C19.8208 33.2364 19.8005 33.2281 19.7856 33.2132C19.7708 33.1983 19.7625 33.1781 19.7626 33.1571" stroke="white" stroke-width="2" stroke-linecap="round" stroke-linejoin="round"/>
</svg>
