<svg width="53" height="53" viewBox="0 0 53 53" fill="none" xmlns="http://www.w3.org/2000/svg">
<circle cx="26.5" cy="26.5" r="26.5" fill="white"/>
<path d="M39.0692 35.7168C41.0159 38.1242 36.954 40.3464 36.0733 39.6737L32.6398 36.5718L28.7869 33.0912L25.9533 30.5313L22.31 27.2401L19.3145 24.534L15.1855 20.8039C13.7509 19.7449 16.205 15.7258 18.459 16.9921L22.0293 20.2358L25.5996 23.4794L28.7167 26.3114L32.2783 29.5472L35.1744 32.1783L38.7843 35.458L39.0692 35.7168Z" fill="white"/>
<path d="M18.459 16.9921C16.205 15.7258 13.7509 19.7449 15.1855 20.8039M18.459 16.9921C19.8685 19.4519 16.8678 21.7274 15.1855 20.8039M18.459 16.9921L22.0293 20.2358M15.1855 20.8039L19.3145 24.534M15.1855 20.8039C17.4759 22.7785 20.7024 21.2479 22.0293 20.2358M38.7843 35.458L39.0692 35.7168C41.0159 38.1242 36.954 40.3464 36.0733 39.6737L32.6398 36.5718M38.7843 35.458C37.8536 36.2721 35.3216 37.6345 32.6398 36.5718M38.7843 35.458L35.1744 32.1783M32.6398 36.5718L28.7869 33.0912M35.1744 32.1783C33.9862 33.1395 31.0453 34.6677 28.7869 33.0912M35.1744 32.1783L32.2783 29.5472M28.7869 33.0912L25.9533 30.5313M32.2783 29.5472C31.2209 30.4509 28.4755 31.9128 25.9533 30.5313M32.2783 29.5472L28.7167 26.3114M25.9533 30.5313L22.31 27.2401M28.7167 26.3114C27.6409 27.2248 24.8536 28.6894 22.31 27.2401M28.7167 26.3114L25.5996 23.4794M22.31 27.2401L19.3145 24.534M25.5996 23.4794C24.3043 24.3458 21.234 25.7697 19.3145 24.534M25.5996 23.4794L22.0293 20.2358M18.086 17.2832C17.362 16.6397 14.325 18.9846 15.4032 20.3875C16.6659 21.2684 19.3227 18.6365 18.086 17.2832Z" stroke="#E51B48"/>
<path d="M40.2933 36.6475C41.2631 39.5877 36.6778 40.2302 36.0919 39.2895L33.9768 35.174L31.6034 30.556L29.8579 27.1596L27.6137 22.7928L25.7684 19.2023L23.225 14.2533C22.2575 12.7555 25.9741 9.86365 27.6348 11.8452L29.8276 16.1417L32.0204 20.4381L33.9349 24.1893L36.1224 28.4754L37.9011 31.9604L40.1183 36.3047L40.2933 36.6475Z" fill="white"/>
<path d="M27.6348 11.8452C25.9741 9.86365 22.2575 12.7555 23.225 14.2533M27.6348 11.8452C28.0835 14.6445 24.4721 15.712 23.225 14.2533M27.6348 11.8452L29.8276 16.1416M23.225 14.2533L25.7684 19.2023M23.225 14.2533C24.6693 16.9102 28.2285 16.6192 29.8276 16.1416M40.1183 36.3047L40.2933 36.6475C41.2631 39.5877 36.6778 40.2302 36.0919 39.2895L33.9768 35.174M40.1183 36.3047C38.9598 36.7371 36.1097 37.1163 33.9768 35.174M40.1183 36.3047L37.9011 31.9604M33.9768 35.174L31.6034 30.556M37.9011 31.9604C36.4499 32.4394 33.1586 32.8291 31.6034 30.556M37.9011 31.9604L36.1224 28.4754M31.6034 30.556L29.8579 27.1596M36.1224 28.4754C34.8138 28.9468 31.7288 29.3436 29.8579 27.1596M36.1224 28.4754L33.9349 24.1893M29.8579 27.1596L27.6137 22.7928M33.9349 24.1893C32.6056 24.6634 29.4805 25.0478 27.6137 22.7928M33.9349 24.1893L32.0204 20.4381M27.6137 22.7928L25.7684 19.2023M32.0204 20.4381C30.5025 20.7906 27.127 21.037 25.7684 19.2023M32.0204 20.4381L29.8276 16.1416M27.1829 11.9856C26.7332 11.1277 23.0633 12.2473 23.5758 13.9408C24.4455 15.2112 27.8613 13.6887 27.1829 11.9856Z" stroke="#E51B48"/>
<path d="M37.9421 35.6757C40.4039 37.5531 36.9843 40.6747 35.9693 40.2298L31.8985 38.0301L27.3305 35.5617L23.9709 33.7464L19.6515 31.4123L16.0999 29.4932L11.2046 26.848C9.55983 26.1591 10.9915 21.6729 13.4814 22.369L17.7187 24.6741L21.956 26.9792L25.6555 28.9917L29.8826 31.2913L33.3196 33.161L37.604 35.4918L37.9421 35.6757Z" fill="white"/>
<path d="M13.4814 22.369C10.9915 21.6729 9.55983 26.1591 11.2046 26.848M13.4814 22.369C15.4337 24.4247 13.0578 27.3465 11.2046 26.848M13.4814 22.369L17.7187 24.6741M11.2046 26.848L16.0999 29.4932M11.2046 26.848C13.8977 28.2235 16.6695 25.9719 17.7187 24.6741M37.604 35.4918L37.9421 35.6757C40.4039 37.5531 36.9843 40.6747 35.9693 40.2298L31.8985 38.0301M37.604 35.4918C36.8927 36.5032 34.7557 38.427 31.8985 38.0301M37.604 35.4918L33.3196 33.161M31.8985 38.0301L27.3305 35.5617M33.3196 33.161C32.3931 34.3764 29.8982 36.5581 27.3305 35.5617M33.3196 33.161L29.8826 31.2913M27.3305 35.5617L23.9709 33.7464M29.8826 31.2913C29.0694 32.4198 26.7487 34.4908 23.9709 33.7464M29.8826 31.2913L25.6555 28.9917M23.9709 33.7464L19.6515 31.4123M25.6555 28.9917C24.8269 30.1341 22.466 32.2176 19.6515 31.4123M25.6555 28.9917L21.956 26.9792M19.6515 31.4123L16.0999 29.4932M21.956 26.9792C20.903 28.1279 18.2576 30.2389 16.0999 29.4932M21.956 26.9792L17.7187 24.6741M13.188 22.7402C12.3321 22.2866 9.93741 25.2844 11.3174 26.3919C12.7528 26.9484 14.7102 23.7618 13.188 22.7402Z" stroke="#E51B48"/>
</svg>
