<svg width="55" height="55" viewBox="0 0 55 55" fill="none" xmlns="http://www.w3.org/2000/svg">
<path d="M46.9192 34.3908C39.5423 39.6387 29.2528 38.9764 22.6367 32.3604" stroke="white" stroke-width="2" stroke-linecap="round" stroke-linejoin="round"/>
<path d="M8.08008 20.6092C15.457 15.3613 25.7465 16.0236 32.3626 22.6397" stroke="white" stroke-width="2" stroke-linecap="round" stroke-linejoin="round"/>
<path d="M29.2783 34.1412C38.3167 31.7189 44.0389 23.1343 43.1773 14.1189" stroke="white" stroke-width="2" stroke-linecap="round" stroke-linejoin="round"/>
<path d="M25.7218 20.8584C16.6834 23.2807 10.9612 31.8653 11.8228 40.8807" stroke="white" stroke-width="2" stroke-linecap="round" stroke-linejoin="round"/>
<path d="M34.1414 29.2786C36.5637 20.2403 31.9895 10.9934 23.751 7.23047" stroke="white" stroke-width="2" stroke-linecap="round" stroke-linejoin="round"/>
<path d="M20.8584 25.7217C18.4361 34.76 23.0102 44.0069 31.2488 47.7698" stroke="white" stroke-width="2" stroke-linecap="round" stroke-linejoin="round"/>
<path d="M42.0843 12.9159C50.1388 20.9705 50.1388 34.0295 42.0843 42.084C34.0297 50.1386 20.9707 50.1386 12.9162 42.084C4.8616 34.0295 4.8616 20.9704 12.9162 12.9159C20.9707 4.86136 34.0298 4.86136 42.0843 12.9159" stroke="white" stroke-width="2" stroke-linecap="round" stroke-linejoin="round"/>
<path d="M32.3614 22.6386C35.0462 25.3235 35.0462 29.6765 32.3614 32.3614C29.6765 35.0462 25.3235 35.0462 22.6386 32.3614C19.9538 29.6765 19.9538 25.3235 22.6386 22.6386C25.3235 19.9538 29.6765 19.9538 32.3614 22.6386" stroke="white" stroke-width="2" stroke-linecap="round" stroke-linejoin="round"/>
</svg>
