<svg width="55" height="55" viewBox="0 0 55 55" fill="none" xmlns="http://www.w3.org/2000/svg">
<path d="M6.875 50.4167V29.7917C6.875 28.526 7.90101 27.5 9.16667 27.5H45.8333C47.099 27.5 48.125 28.526 48.125 29.7917V50.4167" stroke="white" stroke-width="2" stroke-linecap="round" stroke-linejoin="round"/>
<path d="M34.3753 43.5413V38.958" stroke="white" stroke-width="2" stroke-linecap="round" stroke-linejoin="round"/>
<path d="M41.2503 38.958V43.5413" stroke="white" stroke-width="2" stroke-linecap="round" stroke-linejoin="round"/>
<path d="M25.2087 50.4163V41.2497C25.2087 39.984 24.1826 38.958 22.917 38.958H18.3337C17.068 38.958 16.042 39.984 16.042 41.2497V50.4163" stroke="white" stroke-width="2" stroke-linecap="round" stroke-linejoin="round"/>
<path d="M50.4163 50.4163H4.58301" stroke="white" stroke-width="2" stroke-linecap="round" stroke-linejoin="round"/>
<path d="M13.75 27.5003V18.3337C13.75 17.068 14.776 16.042 16.0417 16.042H18.3333C19.599 16.042 20.625 17.068 20.625 18.3337V27.5003" stroke="white" stroke-width="2" stroke-linecap="round" stroke-linejoin="round"/>
<path d="M27.5 27.5V22.9167C27.5 21.651 28.526 20.625 29.7917 20.625H32.0833C33.349 20.625 34.375 21.651 34.375 22.9167V27.5" stroke="white" stroke-width="2" stroke-linecap="round" stroke-linejoin="round"/>
<path d="M32.083 13.7503C32.083 11.219 34.135 9.16699 36.6663 9.16699H41.2497" stroke="white" stroke-width="2" stroke-linecap="round" stroke-linejoin="round"/>
<path d="M18.333 9.16634C18.333 6.63504 20.385 4.58301 22.9163 4.58301H27.4997" stroke="white" stroke-width="2" stroke-linecap="round" stroke-linejoin="round"/>
</svg>
