<svg width="55" height="55" viewBox="0 0 55 55" fill="none" xmlns="http://www.w3.org/2000/svg">
<path fill-rule="evenodd" clip-rule="evenodd" d="M41.409 8.02727V8.02727C40.6713 8.76506 39.6706 9.17954 38.6272 9.17954C37.5838 9.17954 36.5832 8.76506 35.8454 8.02727V8.02727C35.1076 7.28949 34.107 6.875 33.0636 6.875C32.0202 6.875 31.0196 7.28949 30.2818 8.02727V8.02727C29.544 8.76505 28.5434 9.17954 27.5 9.17954C26.4566 9.17954 25.4559 8.76505 24.7182 8.02727V8.02727C23.9804 7.28949 22.9797 6.875 21.9364 6.875C20.893 6.875 19.8923 7.28949 19.1545 8.02727V8.02727C18.4168 8.76506 17.4161 9.17954 16.3727 9.17954C15.3293 9.17954 14.3287 8.76506 13.5909 8.02727V8.02727C12.8531 7.28948 11.8525 6.875 10.8091 6.875C9.7657 6.875 8.76505 7.28948 8.02727 8.02727V8.02727C7.28948 8.76505 6.875 9.7657 6.875 10.8091C6.875 11.8525 7.28948 12.8531 8.02727 13.5909V13.5909C8.76506 14.3287 9.17954 15.3293 9.17954 16.3727C9.17954 17.4161 8.76506 18.4168 8.02727 19.1545V19.1545C7.28949 19.8923 6.875 20.893 6.875 21.9364C6.875 22.9797 7.28949 23.9804 8.02727 24.7182V24.7182C8.76505 25.4559 9.17954 26.4566 9.17954 27.5C9.17954 28.5434 8.76505 29.544 8.02727 30.2818V30.2818C7.28949 31.0196 6.875 32.0202 6.875 33.0636C6.875 34.107 7.28949 35.1076 8.02727 35.8454V35.8454C8.76506 36.5832 9.17954 37.5838 9.17954 38.6272C9.17954 39.6706 8.76506 40.6713 8.02727 41.409V41.409C7.28948 42.1468 6.875 43.1475 6.875 44.1909C6.875 45.2342 7.28948 46.2349 8.02727 46.9727V46.9727C8.76505 47.7105 9.7657 48.1249 10.8091 48.1249C11.8525 48.1249 12.8531 47.7105 13.5909 46.9727V46.9727C14.3287 46.2349 15.3293 45.8204 16.3727 45.8204C17.4161 45.8204 18.4168 46.2349 19.1545 46.9727V46.9727C19.8923 47.7105 20.893 48.1249 21.9364 48.1249C22.9797 48.1249 23.9804 47.7105 24.7182 46.9727V46.9727C25.4559 46.2349 26.4566 45.8204 27.5 45.8204C28.5434 45.8204 29.544 46.2349 30.2818 46.9727V46.9727C31.0196 47.7105 32.0202 48.1249 33.0636 48.1249C34.107 48.1249 35.1076 47.7105 35.8454 46.9727V46.9727C36.5832 46.2349 37.5838 45.8204 38.6272 45.8204C39.6706 45.8204 40.6713 46.2349 41.409 46.9727V46.9727C42.1468 47.7105 43.1475 48.1249 44.1909 48.1249C45.2342 48.1249 46.2349 47.7105 46.9727 46.9727V46.9727C47.7105 46.2349 48.1249 45.2342 48.1249 44.1909C48.1249 43.1475 47.7105 42.1468 46.9727 41.409V41.409C46.2349 40.6713 45.8204 39.6706 45.8204 38.6272C45.8204 37.5838 46.2349 36.5832 46.9727 35.8454V35.8454C47.7105 35.1076 48.1249 34.107 48.1249 33.0636C48.1249 32.0202 47.7105 31.0196 46.9727 30.2818V30.2818C46.2349 29.544 45.8204 28.5434 45.8204 27.5C45.8204 26.4566 46.2349 25.4559 46.9727 24.7182V24.7182C47.7105 23.9804 48.1249 22.9797 48.1249 21.9364C48.1249 20.893 47.7105 19.8923 46.9727 19.1545V19.1545C46.2349 18.4168 45.8204 17.4161 45.8204 16.3727C45.8204 15.3293 46.2349 14.3287 46.9727 13.5909V13.5909C47.7105 12.8531 48.1249 11.8525 48.1249 10.8091C48.1249 9.7657 47.7105 8.76505 46.9727 8.02727V8.02727C46.2349 7.28948 45.2342 6.875 44.1909 6.875C43.1475 6.875 42.1468 7.28948 41.409 8.02727Z" stroke="white" stroke-width="2" stroke-linecap="round" stroke-linejoin="round"/>
<path d="M18.3333 18.3337V19.4795" stroke="white" stroke-width="2" stroke-linecap="round" stroke-linejoin="round"/>
<path d="M18.3333 35.5212V36.667" stroke="white" stroke-width="2" stroke-linecap="round" stroke-linejoin="round"/>
<path d="M18.3333 26.9274V28.0732" stroke="white" stroke-width="2" stroke-linecap="round" stroke-linejoin="round"/>
<path d="M27.5003 18.3337V19.4795" stroke="white" stroke-width="2" stroke-linecap="round" stroke-linejoin="round"/>
<path d="M27.5003 35.5212V36.667" stroke="white" stroke-width="2" stroke-linecap="round" stroke-linejoin="round"/>
<path d="M27.5003 26.9274V28.0732" stroke="white" stroke-width="2" stroke-linecap="round" stroke-linejoin="round"/>
<path d="M36.6663 18.3337V19.4795" stroke="white" stroke-width="2" stroke-linecap="round" stroke-linejoin="round"/>
<path d="M36.6663 35.5212V36.667" stroke="white" stroke-width="2" stroke-linecap="round" stroke-linejoin="round"/>
<path d="M36.6663 26.9274V28.0732" stroke="white" stroke-width="2" stroke-linecap="round" stroke-linejoin="round"/>
</svg>
