<svg width="55" height="55" viewBox="0 0 55 55" fill="none" xmlns="http://www.w3.org/2000/svg">
<path fill-rule="evenodd" clip-rule="evenodd" d="M43.6075 14.6068V14.6068C44.7649 14.8599 45.7621 15.5889 46.3544 16.6149C46.9468 17.6409 47.0795 18.8689 46.72 19.9978V19.9978C46.2209 21.5653 46.6803 23.2799 47.8963 24.3878V24.3878C48.7721 25.1857 49.2711 26.3156 49.2711 27.5003C49.2711 28.685 48.7721 29.8149 47.8963 30.6128V30.6128C46.6803 31.7207 46.2209 33.4353 46.72 35.0028V35.0028C47.0795 36.1317 46.9468 37.3598 46.3544 38.3857C45.7621 39.4117 44.7649 40.1407 43.6075 40.3938V40.3938C42.0005 40.7453 40.7453 42.0005 40.3938 43.6075V43.6075C40.1407 44.7649 39.4117 45.7621 38.3857 46.3544C37.3598 46.9468 36.1317 47.0795 35.0028 46.72V46.72C33.4353 46.2209 31.7207 46.6803 30.6128 47.8963V47.8963C29.8149 48.7721 28.685 49.2711 27.5003 49.2711C26.3156 49.2711 25.1857 48.7721 24.3878 47.8963V47.8963C23.2799 46.6803 21.5653 46.2209 19.9978 46.72V46.72C18.8689 47.0795 17.6409 46.9468 16.6149 46.3544C15.5889 45.7621 14.8599 44.7649 14.6068 43.6075V43.6075C14.2554 42.0005 13.0002 40.7453 11.3931 40.3938V40.3938C10.2357 40.1407 9.23857 39.4117 8.64622 38.3857C8.05387 37.3598 7.92115 36.1317 8.28061 35.0028V35.0028C8.77976 33.4353 8.32033 31.7207 7.1043 30.6128V30.6128C6.22857 29.8149 5.72949 28.685 5.72949 27.5003C5.72949 26.3156 6.22857 25.1857 7.1043 24.3878V24.3878C8.32033 23.2799 8.77976 21.5653 8.28061 19.9978V19.9978C7.92115 18.8689 8.05387 17.6409 8.64622 16.6149C9.23857 15.5889 10.2357 14.8599 11.3931 14.6068V14.6068C13.0002 14.2554 14.2554 13.0002 14.6068 11.3931V11.3931C14.8599 10.2357 15.5889 9.23857 16.6149 8.64622C17.6409 8.05387 18.8689 7.92115 19.9978 8.28061V8.28061C21.5653 8.77976 23.2799 8.32033 24.3878 7.1043V7.1043C25.1857 6.22857 26.3156 5.72949 27.5003 5.72949C28.685 5.72949 29.8149 6.22857 30.6128 7.1043V7.1043C31.7207 8.32033 33.4353 8.77976 35.0028 8.28061V8.28061C36.1317 7.92115 37.3598 8.05387 38.3857 8.64622C39.4117 9.23857 40.1407 10.2357 40.3938 11.3931V11.3931C40.7453 13.0002 42.0005 14.2554 43.6075 14.6068Z" stroke="white" stroke-width="2" stroke-linecap="round" stroke-linejoin="round"/>
<path d="M31.6371 23.4574C30.5645 22.3795 29.1038 21.7778 27.5832 21.7872C26.0626 21.7967 24.6095 22.4165 23.5504 23.5076C21.3152 25.7595 21.3152 29.3927 23.5504 31.6445C25.8153 33.8528 29.4379 33.8187 31.6608 31.5682C33.8837 29.3177 33.8731 25.6948 31.6371 23.4574" stroke="white" stroke-width="2" stroke-linecap="round" stroke-linejoin="round"/>
<path d="M40.0234 27.5813C40.0562 27.6143 40.1056 27.6242 40.1486 27.6065C40.1916 27.5887 40.2196 27.5468 40.2196 27.5003C40.2196 27.4538 40.1916 27.4119 40.1486 27.3942C40.1056 27.3764 40.0562 27.3864 40.0234 27.4193C40.0017 27.4407 39.9895 27.4699 39.9895 27.5003C39.9895 27.5308 40.0017 27.56 40.0234 27.5813" stroke="white" stroke-width="2" stroke-linecap="round" stroke-linejoin="round"/>
<path d="M14.8147 27.5813C14.8475 27.6143 14.8969 27.6242 14.9399 27.6065C14.9829 27.5887 15.0109 27.5468 15.0109 27.5003C15.0109 27.4538 14.9829 27.4119 14.9399 27.3942C14.8969 27.3764 14.8475 27.3864 14.8147 27.4193C14.793 27.4407 14.7808 27.4699 14.7808 27.5003C14.7808 27.5308 14.793 27.56 14.8147 27.5813" stroke="white" stroke-width="2" stroke-linecap="round" stroke-linejoin="round"/>
<path d="M27.5813 14.977C27.6143 14.9442 27.6242 14.8948 27.6064 14.8518C27.5887 14.8088 27.5468 14.7808 27.5003 14.7808C27.4538 14.7808 27.4119 14.8088 27.3942 14.8518C27.3765 14.8948 27.3864 14.9442 27.4193 14.977C27.4407 14.9987 27.4699 15.0109 27.5003 15.0109C27.5308 15.0109 27.56 14.9987 27.5813 14.977" stroke="white" stroke-width="2" stroke-linecap="round" stroke-linejoin="round"/>
<path d="M27.5813 40.185C27.6143 40.1522 27.6242 40.1028 27.6064 40.0598C27.5887 40.0168 27.5468 39.9888 27.5003 39.9888C27.4538 39.9888 27.4119 40.0168 27.3942 40.0598C27.3765 40.1028 27.3864 40.1522 27.4193 40.185C27.4407 40.2067 27.4699 40.2189 27.5003 40.2189C27.5308 40.2189 27.56 40.2067 27.5813 40.185" stroke="white" stroke-width="2" stroke-linecap="round" stroke-linejoin="round"/>
<path d="M18.7021 18.5875C18.7021 18.541 18.6742 18.499 18.6313 18.4812C18.5884 18.4634 18.5389 18.4732 18.5061 18.5061C18.4732 18.5389 18.4634 18.5884 18.4812 18.6313C18.499 18.6742 18.541 18.7021 18.5875 18.7021C18.6179 18.7023 18.6472 18.6903 18.6687 18.6687C18.6903 18.6472 18.7023 18.6179 18.7021 18.5875" stroke="white" stroke-width="2" stroke-linecap="round" stroke-linejoin="round"/>
<path d="M36.5273 36.4117C36.5274 36.3652 36.4994 36.3233 36.4565 36.3054C36.4136 36.2876 36.3641 36.2974 36.3312 36.3303C36.2984 36.3631 36.2886 36.4126 36.3064 36.4555C36.3242 36.4985 36.3662 36.5264 36.4127 36.5263C36.4431 36.5265 36.4724 36.5145 36.494 36.493C36.5155 36.4714 36.5275 36.4422 36.5273 36.4117" stroke="white" stroke-width="2" stroke-linecap="round" stroke-linejoin="round"/>
<path d="M36.2976 18.5875C36.2975 18.541 36.3254 18.499 36.3684 18.4812C36.4113 18.4634 36.4608 18.4732 36.4936 18.506C36.5265 18.5389 36.5363 18.5884 36.5185 18.6313C36.5006 18.6742 36.4587 18.7022 36.4122 18.7021C36.3817 18.7023 36.3524 18.6903 36.3309 18.6688C36.3094 18.6472 36.2974 18.618 36.2976 18.5875" stroke="white" stroke-width="2" stroke-linecap="round" stroke-linejoin="round"/>
<path d="M18.4724 36.4117C18.4723 36.3652 18.5003 36.3233 18.5432 36.3054C18.5861 36.2876 18.6356 36.2974 18.6684 36.3303C18.7013 36.3631 18.7111 36.4126 18.6933 36.4555C18.6754 36.4984 18.6335 36.5264 18.587 36.5263C18.5566 36.5265 18.5273 36.5145 18.5057 36.493C18.4842 36.4714 18.4722 36.4421 18.4724 36.4117" stroke="white" stroke-width="2" stroke-linecap="round" stroke-linejoin="round"/>
</svg>
